<svg xmlns="http://www.w3.org/2000/svg" viewBox="0 0 58 46"><defs><style>.a{fill:none;}.b{fill:#5596e6;}</style></defs><title>ico_vantage_integrator</title><rect class="a" width="58" height="46"/><path class="b" d="M36.31,17.56H27.88a2.8,2.8,0,0,0-3.95,3.95c0,0.1,0,.2,0,0.3V24.2h2.56V22.49a2.78,2.78,0,0,0,2.37-2.37h7.46a1.71,1.71,0,0,1,1.7,1.7v8.13a1.71,1.71,0,0,1-1.7,1.7H28.18a1.71,1.71,0,0,1-1.7-1.7V29.31H23.92v0.63a4.27,4.27,0,0,0,4.26,4.26h8.13a4.27,4.27,0,0,0,4.26-4.26V21.81A4.27,4.27,0,0,0,36.31,17.56ZM26.6,20.23a0.73,0.73,0,1,1,0-1A0.74,0.74,0,0,1,26.6,20.23Z"/><path class="b" d="M30.12,28.43a2.8,2.8,0,0,0,3.95-3.95c0-.1,0-0.2,0-0.3V21.8H31.52v1.71a2.78,2.78,0,0,0-2.37,2.37H21.69a1.71,1.71,0,0,1-1.7-1.7V16.06a1.71,1.71,0,0,1,1.7-1.7h8.13a1.71,1.71,0,0,1,1.7,1.7v0.63h2.56V16.06a4.27,4.27,0,0,0-4.26-4.26H21.69a4.27,4.27,0,0,0-4.26,4.26v8.13a4.27,4.27,0,0,0,4.26,4.26h8.43Zm1.29-2.66a0.73,0.73,0,1,1,0,1A0.74,0.74,0,0,1,31.4,25.77Z"/></svg>