<svg xmlns="http://www.w3.org/2000/svg" viewBox="0 0 58 46"><defs><style>.a{fill:none;}.b{fill:#5596e6;}</style></defs><title>ico_vantage_dashboard</title><rect class="a" width="58" height="46"/><path class="b" d="M41,11.52H17a1,1,0,0,0-1,1v17a1,1,0,0,0,1,1H41a1,1,0,0,0,1-1v-17a1,1,0,0,0-1-1m-0.5,16h-23V13h23V27.49Zm-18.63,7H36.15v-2H21.85v2ZM26.22,18.4l2.33,3,1.11,0.26,0.54-.9-1.08-.25-2.94-3.72-4.33,6.09,2.48-1.76ZM20.11,26h17.7v0.66l1-1-1-1v0.68h-16l4.42-3.15L30,25l1.72-2.89,4.26,1,0.22-1-3.94-.91,3.33-5.58-0.86-.51-5,8.43L26.21,21l-5.43,3.86V15.37h0.67l-1-1-1,1h0.67V26Z"/></svg>