<svg xmlns="http://www.w3.org/2000/svg">
<defs>
<font id="HelvNeueMediumforIBM" horiz-adv-x="551" >
  <font-face 
    font-family="HelvNeue Medium for IBM"
    font-weight="500"
    font-stretch="normal"
    units-per-em="1000"
    panose-1="2 11 6 4 2 2 2 2 2 4"
    ascent="714"
    descent="-286"
    x-height="517"
    cap-height="714"
    bbox="-173 -223 1045 957"
    underline-thickness="50"
    underline-position="-50"
    stemh="90"
    stemv="114"
    unicode-range="U+000D-FB02"
  />
<missing-glyph horiz-adv-x="498" 
d="M271 117h-56v67h56v-67zM264 234h-46l-2 17c0 37 4 64 13 81s24 37 46 59c43 41 50 58 50 83c0 48 -35 85 -76 85s-74 -27 -82 -95l-50 8c9 95 63 137 135 137c71 0 124 -52 124 -131c0 -43 -12 -73 -63 -120c-25 -22 -39 -39 -43 -52s-6 -37 -6 -72zM43 50h412v617h-412
v-617zM-7 718h512v-718h-512v718z" />
    <glyph glyph-name="IJ" unicode="IJ" horiz-adv-x="794" 
d="M63 0v714h125v-714h-125zM732 714v-484c0 -124 -30 -247 -235 -247c-151 0 -213 98 -213 229v38h125v-37c0 -81 22 -128 98 -128c81 0 100 49 100 138v491h125z" />
    <glyph glyph-name="ij" unicode="ij" horiz-adv-x="459" 
d="M52 606v108h114v-108h-114zM52 0v517h114v-517h-114zM285 606v108h114v-108h-114zM285 -39v556h114v-561c0 -103 -41 -161 -148 -161c-23 0 -36 1 -51 4v90c15 -3 28 -4 39 -4c41 0 46 25 46 76z" />
    <glyph glyph-name="napostrophe" unicode="&#x22;n" horiz-adv-x="575" 
d="M72 0v517h108v-76l2 -2c35 57 93 92 161 92c113 0 183 -59 183 -176v-355h-114v325c-3 81 -33 116 -101 116c-76 0 -125 -60 -125 -136v-305h-114zM-7 714v99h131v-89c0 -42 -22 -80 -116 -84v38c28 4 41 13 45 36h-60z" />
    <glyph glyph-name="fi" unicode="fi" horiz-adv-x="532" 
d="M365 606v108h114v-108h-114zM-4 432v85h85v43c0 132 69 154 143 154c37 0 63 -2 80 -7v-89c-15 4 -30 6 -53 6c-31 0 -56 -11 -56 -54v-53h97v-85h-97v-432h-114v432h-85zM365 0v517h114v-517h-114z" />
    <glyph glyph-name="fl" unicode="fl" horiz-adv-x="531" 
d="M364 0v714h114v-714h-114zM-5 432v85h85v43c0 132 69 154 143 154c37 0 63 -2 80 -7v-89c-15 4 -30 6 -53 6c-31 0 -56 -11 -56 -54v-53h97v-85h-97v-432h-114v432h-85z" />
    <glyph glyph-name=".notdef" horiz-adv-x="498" 
d="M271 117h-56v67h56v-67zM264 234h-46l-2 17c0 37 4 64 13 81s24 37 46 59c43 41 50 58 50 83c0 48 -35 85 -76 85s-74 -27 -82 -95l-50 8c9 95 63 137 135 137c71 0 124 -52 124 -131c0 -43 -12 -73 -63 -120c-25 -22 -39 -39 -43 -52s-6 -37 -6 -72zM43 50h412v617h-412
v-617zM-7 718h512v-718h-512v718z" />
    <glyph glyph-name=".null" horiz-adv-x="500" 
 />
    <glyph glyph-name=".null" horiz-adv-x="500" 
 />
    <glyph glyph-name="CR" unicode="&#xd;" horiz-adv-x="0" 
 />
    <glyph glyph-name="space" unicode=" " horiz-adv-x="228" 
 />
    <glyph glyph-name="exclam" unicode="!" horiz-adv-x="254" 
d="M60 0v125h134v-125h-134zM65 508v206h125v-206l-33 -309h-59z" />
    <glyph glyph-name="quotedbl" unicode="&#x22;" horiz-adv-x="435" 
d="M255 432v282h102v-282h-102zM79 432v282h102v-282h-102z" />
    <glyph glyph-name="numbersign" unicode="#" horiz-adv-x="542" 
d="M340 415h-111l-18 -130h111zM487 285v-75h-95l-30 -210h-80l29 210h-110l-30 -210h-80l29 210h-94v75h105l18 130h-94v75h104l29 210h81l-30 -210h111l29 210h81l-30 -210h86v-75h-96l-18 -130h85z" />
    <glyph glyph-name="dollar" unicode="$" horiz-adv-x="529" 
d="M246 441v200c-72 0 -113 -27 -113 -98c0 -64 57 -89 113 -102zM4 217h114c-1 -88 36 -141 128 -144v242c-109 29 -227 74 -227 220c0 127 107 196 227 196v78h43v-78c120 0 219 -63 219 -195h-114c-3 68 -33 105 -105 105v-211c121 -32 237 -78 237 -222
c0 -149 -105 -220 -237 -225v-78h-43v78c-144 3 -245 86 -242 234zM289 306v-233c72 5 123 39 123 119c0 75 -62 98 -123 114z" />
    <glyph glyph-name="percent" unicode="%" horiz-adv-x="966" 
d="M156 515c0 -75 20 -134 76 -134s78 59 78 134c0 67 -17 134 -78 134c-62 0 -76 -67 -76 -134zM233 316c-121 0 -167 91 -167 199s50 199 167 199s167 -91 167 -199s-46 -199 -167 -199zM658 185c0 -75 20 -134 76 -134s78 59 78 134c0 67 -17 134 -78 134
c-62 0 -76 -67 -76 -134zM735 -14c-121 0 -167 91 -167 199s50 199 167 199s167 -91 167 -199s-46 -199 -167 -199zM244 -24l389 748h76l-387 -748h-78z" />
    <glyph glyph-name="ampersand" unicode="&#x26;" horiz-adv-x="640" 
d="M517 0l-65 80c-53 -65 -116 -94 -200 -94c-132 0 -225 79 -225 212c0 101 81 164 164 207c-37 48 -72 93 -72 156c0 103 78 170 175 170c92 0 178 -56 178 -171c0 -85 -60 -144 -129 -181l111 -134c8 23 17 49 22 96h100c-7 -63 -24 -124 -56 -175l137 -166h-140z
M391 156l-140 174c-42 -26 -110 -49 -110 -134c0 -77 48 -120 115 -120c83 0 114 51 135 80zM297 646c-43 0 -76 -31 -76 -79c0 -47 38 -84 65 -119c43 29 84 59 84 116c0 47 -29 82 -73 82z" />
    <glyph glyph-name="quotesingle" unicode="'" horiz-adv-x="275" 
d="M87 432v282h102v-282h-102z" />
    <glyph glyph-name="parenleft" unicode="(" horiz-adv-x="270" 
d="M281 -191h-93c-80 129 -144 268 -144 461c0 161 52 320 144 461h93c-80 -144 -123 -293 -123 -461s39 -318 123 -461z" />
    <glyph glyph-name="parenright" unicode=")" horiz-adv-x="271" 
d="M-11 731h93c80 -128 144 -271 144 -462c0 -161 -52 -320 -144 -460h-93c80 143 123 292 123 460s-39 318 -123 462z" />
    <glyph glyph-name="asterisk" unicode="*" horiz-adv-x="366" 
d="M127 534l-111 38l22 65l110 -43v120h68v-120l109 43l24 -65l-114 -38l70 -94l-53 -39l-71 98l-68 -98l-56 39z" />
    <glyph glyph-name="plus" unicode="+" horiz-adv-x="586" 
d="M242 304v202h102v-202h201v-102h-201v-202h-102v202h-201v102h201z" />
    <glyph glyph-name="comma" unicode="," horiz-adv-x="219" 
d="M40 0v135h139v-135c-1 -83 -55 -142 -135 -158v61c44 11 66 54 65 97h-69z" />
    <glyph glyph-name="hyphen" unicode="-" horiz-adv-x="388" 
d="M48 218v108h291v-108h-291z" />
    <glyph glyph-name="period" unicode="." horiz-adv-x="219" 
d="M40 0v135h139v-135h-139z" />
    <glyph glyph-name="slash" unicode="/" horiz-adv-x="360" 
d="M-18 -17l287 748h109l-287 -748h-109z" />
    <glyph glyph-name="zero" unicode="0" horiz-adv-x="563" 
d="M282 714c201 0 242 -205 242 -364s-41 -364 -242 -364s-242 205 -242 364s41 364 242 364zM282 81c100 0 128 122 128 269c0 146 -28 269 -128 269s-128 -123 -128 -269c0 -147 28 -269 128 -269z" />
    <glyph glyph-name="one" unicode="1" horiz-adv-x="415" 
d="M42 494v90c95 0 188 31 204 116h93v-700h-125v494h-172z" />
    <glyph glyph-name="two" unicode="2" horiz-adv-x="534" 
d="M505 102v-102h-478c1 116 59 201 154 265c91 67 208 121 211 230c0 50 -19 124 -118 124c-90 0 -117 -76 -120 -175h-114c0 155 85 270 241 270c171 0 225 -125 225 -215c0 -224 -304 -272 -342 -397h341z" />
    <glyph glyph-name="three" unicode="3" horiz-adv-x="565" 
d="M235 325v85c76 -3 155 24 155 110c0 60 -45 99 -109 99c-79 0 -119 -71 -116 -143h-114c5 136 92 238 232 238c109 0 221 -63 221 -187c0 -71 -31 -126 -99 -150v-2c80 -16 127 -84 127 -175c0 -132 -115 -214 -248 -214c-162 0 -243 97 -246 244h114
c-3 -85 43 -149 132 -149c76 0 134 45 134 125c0 109 -93 122 -183 119z" />
    <glyph glyph-name="four" unicode="4" horiz-adv-x="543" 
d="M320 564l-210 -308h212v308h-2zM520 256v-90h-90v-166h-108v166h-300v113l300 421h108v-444h90z" />
    <glyph glyph-name="five" unicode="5" horiz-adv-x="547" 
d="M40 317l75 383h362v-102h-277l-36 -178l2 -2c31 35 82 53 129 53c140 0 219 -100 219 -234c0 -112 -70 -251 -242 -251c-135 0 -240 73 -245 213h114c7 -76 54 -118 129 -118c97 0 130 69 130 154c0 77 -41 146 -133 146c-48 0 -94 -15 -113 -64h-114z" />
    <glyph glyph-name="six" unicode="6" horiz-adv-x="562" 
d="M516 523h-114c-5 57 -42 96 -102 96c-125 0 -137 -148 -145 -240l2 -2c31 56 88 83 151 83c139 0 221 -102 221 -235c0 -136 -93 -239 -233 -239c-205 0 -255 162 -255 366c0 167 67 362 264 362c110 0 206 -77 211 -191zM292 81c83 0 123 71 123 146s-40 143 -123 143
s-126 -66 -126 -143c0 -76 43 -146 126 -146z" />
    <glyph glyph-name="seven" unicode="7" horiz-adv-x="476" 
d="M-2 598v102h479v-95c-146 -165 -242 -352 -261 -605h-125c16 222 125 434 270 598h-363z" />
    <glyph glyph-name="eight" unicode="8" horiz-adv-x="569" 
d="M285 624c-61 0 -110 -38 -110 -107c0 -67 46 -103 110 -103s110 36 110 103c0 69 -49 107 -110 107zM285 -14c-142 0 -247 83 -247 220c0 88 49 151 128 171v2c-64 24 -99 76 -99 144c0 120 78 191 218 191s218 -71 218 -191c0 -68 -35 -120 -99 -144v-2
c79 -20 128 -83 128 -171c0 -137 -105 -220 -247 -220zM285 76c76 0 133 47 133 130c0 77 -57 123 -133 123s-133 -46 -133 -123c0 -83 57 -130 133 -130z" />
    <glyph glyph-name="nine" unicode="9" horiz-adv-x="562" 
d="M45 177h114c5 -57 42 -96 102 -96c124 0 137 148 145 240l-2 2c-31 -55 -87 -84 -151 -84c-132 0 -221 93 -221 236c0 136 88 239 241 239c197 0 247 -162 247 -366c0 -167 -67 -362 -264 -362c-110 0 -206 77 -211 191zM268 619c-83 0 -122 -67 -122 -143
s39 -147 122 -147c85 0 127 70 127 147c0 75 -42 143 -127 143z" />
    <glyph glyph-name="colon" unicode=":" horiz-adv-x="271" 
d="M66 0v135h139v-135h-139zM66 371v135h139v-135h-139z" />
    <glyph glyph-name="semicolon" unicode=";" horiz-adv-x="270" 
d="M65 371v135h139v-135h-139zM65 0v135h139v-135c-1 -83 -55 -142 -135 -158v61c44 11 66 54 65 97h-69z" />
    <glyph glyph-name="less" unicode="&#x3c;" horiz-adv-x="586" 
d="M547 94v-102l-508 225v72l508 225v-102l-374 -159z" />
    <glyph glyph-name="equal" unicode="=" horiz-adv-x="585" 
d="M545 203v-102h-504v102h504zM545 405v-102h-504v102h504z" />
    <glyph glyph-name="greater" unicode="&#x3e;" horiz-adv-x="586" 
d="M39 94l374 159l-374 159v102l508 -225v-72l-508 -225v102z" />
    <glyph glyph-name="question" unicode="?" horiz-adv-x="523" 
d="M192 0v125h134v-125h-134zM147 487h-114c0 147 92 244 240 244c122 0 218 -73 218 -202c0 -95 -45 -128 -88 -166c-51 -43 -88 -73 -88 -169h-108c0 116 25 158 78 203c42 37 81 61 81 128c0 81 -63 111 -98 111c-83 0 -121 -58 -121 -149z" />
    <glyph glyph-name="at" unicode="@" horiz-adv-x="767" 
d="M598 542l-72 -263c-5 -16 -9 -33 -9 -46s6 -23 19 -23c62 0 130 93 130 216c0 149 -120 240 -267 240c-170 0 -287 -133 -287 -300c0 -195 127 -318 296 -318c88 0 170 36 225 99h70c-64 -104 -175 -164 -299 -164c-206 0 -372 159 -372 387c0 202 168 361 367 361
c178 0 335 -121 335 -293c0 -200 -155 -298 -236 -298c-31 0 -56 19 -59 58h-2c-27 -31 -69 -57 -112 -57c-84 0 -146 72 -146 157c0 127 88 259 219 259c47 0 87 -21 112 -72l18 57h70zM344 216c79 0 137 105 137 178c0 48 -36 88 -79 88c-83 0 -138 -100 -138 -175
c0 -53 31 -91 80 -91z" />
    <glyph glyph-name="A" unicode="A" horiz-adv-x="666" 
d="M-8 0l274 714h133l275 -714h-134l-67 189h-285l-67 -189h-129zM330 591l-108 -307h218l-107 307h-3z" />
    <glyph glyph-name="B" unicode="B" horiz-adv-x="681" 
d="M186 612v-197h204c60 0 105 35 105 99c0 72 -37 98 -105 98h-204zM61 0v714h347c128 0 212 -58 212 -177c0 -72 -37 -124 -102 -152v-2c88 -19 134 -87 134 -184c0 -112 -78 -199 -263 -199h-328zM186 325v-223h221c76 0 120 41 120 113c0 71 -44 110 -120 110h-221z" />
    <glyph glyph-name="C" unicode="C" horiz-adv-x="698" 
d="M675 487h-125c-21 83 -74 142 -178 142c-153 0 -217 -135 -217 -272s64 -272 217 -272c112 0 171 83 182 187h122c-11 -171 -131 -289 -304 -289c-213 0 -342 169 -342 374c0 203 129 374 342 374c162 0 287 -90 303 -244z" />
    <glyph glyph-name="D" unicode="D" horiz-adv-x="704" 
d="M62 0v714h296c220 0 315 -160 315 -357s-95 -357 -315 -357h-296zM187 612v-510h123c196 0 238 111 238 255s-42 255 -238 255h-123z" />
    <glyph glyph-name="E" unicode="E" horiz-adv-x="619" 
d="M62 0v714h514v-108h-389v-187h360v-102h-360v-209h396v-108h-521z" />
    <glyph glyph-name="F" unicode="F" horiz-adv-x="573" 
d="M62 0v714h493v-108h-368v-187h323v-102h-323v-317h-125z" />
    <glyph glyph-name="G" unicode="G" horiz-adv-x="740" 
d="M685 376v-376h-80l-19 84c-67 -76 -128 -101 -215 -101c-213 0 -342 169 -342 374c0 203 129 374 342 374c155 0 287 -83 306 -244h-122c-13 93 -93 142 -184 142c-153 0 -217 -135 -217 -272s64 -272 217 -272c129 -3 197 75 200 196h-190v95h304z" />
    <glyph glyph-name="H" unicode="H" horiz-adv-x="698" 
d="M62 0v714h125v-284h325v284h125v-714h-125v322h-325v-322h-125z" />
    <glyph glyph-name="I" unicode="I" horiz-adv-x="252" 
d="M63 0v714h125v-714h-125z" />
    <glyph glyph-name="J" unicode="J" horiz-adv-x="524" 
d="M462 714v-484c0 -124 -30 -247 -235 -247c-151 0 -213 98 -213 229v38h125v-37c0 -81 22 -128 98 -128c81 0 100 49 100 138v491h125z" />
    <glyph glyph-name="K" unicode="K" horiz-adv-x="672" 
d="M62 0v714h125v-325l318 325h154l-285 -285l305 -429h-156l-234 341l-102 -101v-240h-125z" />
    <glyph glyph-name="L" unicode="L" horiz-adv-x="573" 
d="M62 0v714h125v-606h363v-108h-488z" />
    <glyph glyph-name="M" unicode="M" horiz-adv-x="863" 
d="M61 0v714h176l197 -559h2l192 559h174v-714h-119v551h-2l-198 -551h-103l-198 551h-2v-551h-119z" />
    <glyph glyph-name="N" unicode="N" horiz-adv-x="701" 
d="M61 0v714h132l326 -526h2v526h119v-714h-132l-325 525h-3v-525h-119z" />
    <glyph glyph-name="O" unicode="O" horiz-adv-x="740" 
d="M370 629c-153 0 -217 -135 -217 -272s64 -272 217 -272s217 135 217 272s-64 272 -217 272zM370 731c213 0 342 -171 342 -374c0 -205 -129 -374 -342 -374s-342 169 -342 374c0 203 129 374 342 374z" />
    <glyph glyph-name="P" unicode="P" horiz-adv-x="641" 
d="M62 0v714h315c204 0 243 -132 243 -221s-39 -219 -243 -219h-190v-274h-125zM187 612v-236h183c56 0 125 28 125 118c0 94 -57 118 -123 118h-185z" />
    <glyph glyph-name="Q" unicode="Q" horiz-adv-x="740" 
d="M611 83l92 -80l-61 -68l-104 91c-53 -31 -112 -43 -168 -43c-213 0 -342 169 -342 374c0 203 129 374 342 374s342 -171 342 -374c0 -96 -29 -208 -101 -274zM450 102l-72 63l60 69l87 -76c45 55 62 127 62 199c0 137 -64 272 -217 272s-217 -135 -217 -272
s64 -272 217 -272c27 0 55 5 80 17z" />
    <glyph glyph-name="R" unicode="R" horiz-adv-x="687" 
d="M62 0v714h341c157 0 236 -72 236 -193c0 -137 -94 -172 -118 -180v-2c43 -5 106 -39 106 -151c0 -84 12 -159 39 -188h-134c-19 31 -19 70 -19 105c0 131 -27 189 -142 189h-184v-294h-125zM187 612v-223h205c80 0 122 38 122 114c0 92 -59 109 -124 109h-203z" />
    <glyph glyph-name="S" unicode="S" horiz-adv-x="622" 
d="M19 238h125c0 -109 81 -153 181 -153c110 0 151 55 151 108c0 55 -30 77 -59 88c-51 19 -114 32 -213 59c-123 32 -158 107 -158 181c0 144 132 210 261 210c148 0 274 -79 274 -228h-125c-7 92 -67 126 -154 126c-58 0 -131 -21 -131 -93c0 -51 34 -77 85 -92
c11 -3 169 -44 206 -55c93 -29 139 -106 139 -182c0 -160 -143 -224 -284 -224c-163 0 -295 78 -298 255z" />
    <glyph glyph-name="T" unicode="T" horiz-adv-x="611" 
d="M16 606v108h578v-108h-227v-606h-125v606h-226z" />
    <glyph glyph-name="U" unicode="U" horiz-adv-x="701" 
d="M57 257v457h125v-416c0 -96 6 -207 168 -207s168 111 168 207v416h125v-457c0 -183 -117 -274 -293 -274s-293 91 -293 274z" />
    <glyph glyph-name="V" unicode="V" horiz-adv-x="611" 
d="M233 0l-238 714h130l179 -565h2l183 565h127l-244 -714h-139z" />
    <glyph glyph-name="W" unicode="W" horiz-adv-x="921" 
d="M182 0l-188 714h127l129 -546h2l144 546h128l140 -546h2l133 546h127l-197 -714h-127l-143 546h-2l-146 -546h-129z" />
    <glyph glyph-name="X" unicode="X" horiz-adv-x="636" 
d="M244 370l-236 344h149l162 -252l169 252h140l-236 -344l253 -370h-152l-178 273l-181 -273h-143z" />
    <glyph glyph-name="Y" unicode="Y" horiz-adv-x="625" 
d="M250 0v280l-268 434h145l189 -320l186 320h140l-267 -434v-280h-125z" />
    <glyph glyph-name="Z" unicode="Z" horiz-adv-x="629" 
d="M54 606v108h543v-95l-416 -511h426v-108h-585v102l416 504h-384z" />
    <glyph glyph-name="bracketleft" unicode="[" horiz-adv-x="282" 
d="M63 -191v922h223v-90h-115v-742h115v-90h-223z" />
    <glyph glyph-name="backslash" unicode="\" horiz-adv-x="360" 
d="M91 731l287 -748h-109l-287 748h109z" />
    <glyph glyph-name="bracketright" unicode="]" horiz-adv-x="283" 
d="M219 731v-922h-223v90h115v742h-115v90h223z" />
    <glyph glyph-name="asciicircum" unicode="^" horiz-adv-x="529" 
d="M150 335h-102l180 365h72l180 -365h-102l-114 247z" />
    <glyph glyph-name="underscore" unicode="_" horiz-adv-x="486" 
d="M493 -125h-500v50h500v-50z" />
    <glyph glyph-name="grave" unicode="`" horiz-adv-x="216" 
d="M-49 732h134l91 -143h-83z" />
    <glyph glyph-name="a" unicode="a" horiz-adv-x="552" 
d="M486 381v-266c0 -28 6 -39 27 -39h12c5 0 10 1 16 2v-79c-17 -6 -53 -13 -72 -13c-47 0 -79 16 -88 63c-45 -44 -118 -63 -179 -63c-93 0 -177 50 -177 151c0 129 103 150 199 161c83 16 155 5 155 73c0 60 -62 70 -107 70c-64 0 -109 -26 -114 -82h-114
c8 133 120 172 235 172c101 0 207 -41 207 -150zM372 174v85c-35 -23 -89 -22 -140 -31c-49 -8 -93 -26 -93 -86c0 -52 65 -66 105 -66c50 0 128 26 128 98z" />
    <glyph glyph-name="b" unicode="b" horiz-adv-x="594" 
d="M49 0v714h114v-264h2c32 50 95 81 154 81c163 0 242 -123 242 -275c0 -140 -71 -270 -223 -270c-70 0 -145 17 -179 85h-2v-71h-108zM447 258c0 93 -49 183 -143 183c-96 0 -145 -72 -145 -183c0 -104 53 -182 145 -182c104 0 143 92 143 182z" />
    <glyph glyph-name="c" unicode="c" horiz-adv-x="540" 
d="M518 344h-114c-9 64 -54 97 -118 97c-59 0 -142 -32 -142 -188c0 -86 38 -177 137 -177c67 0 112 43 123 118h114c-21 -135 -104 -208 -237 -208c-162 0 -251 115 -251 267c0 156 85 278 255 278c120 0 222 -60 233 -187z" />
    <glyph glyph-name="d" unicode="d" horiz-adv-x="594" 
d="M545 714v-714h-108v70h-2c-31 -60 -95 -84 -160 -84c-163 0 -242 121 -242 276c0 188 111 269 224 269c64 0 137 -24 172 -81h2v264h114zM147 253c0 -89 44 -177 143 -177c101 0 145 93 145 183c0 115 -55 182 -143 182c-107 0 -145 -96 -145 -188z" />
    <glyph glyph-name="e" unicode="e" 
d="M140 304h266c-5 72 -52 137 -130 137c-79 0 -133 -60 -136 -137zM520 229h-380c0 -81 44 -153 139 -153c67 0 106 29 126 86h108c-24 -113 -122 -176 -234 -176c-163 0 -253 112 -253 272c0 147 96 273 250 273c163 0 263 -147 244 -302z" />
    <glyph glyph-name="f" unicode="f" horiz-adv-x="296" 
d="M-4 432v85h85v43c0 132 69 154 143 154c37 0 63 -2 80 -7v-89c-15 4 -30 6 -53 6c-31 0 -56 -11 -56 -54v-53h97v-85h-97v-432h-114v432h-85z" />
    <glyph glyph-name="g" unicode="g" horiz-adv-x="585" 
d="M536 517v-490c0 -156 -90 -232 -254 -232c-104 0 -220 40 -231 161h114c14 -65 66 -76 124 -76c92 0 133 47 133 132v79h-2c-32 -57 -91 -91 -155 -91c-164 0 -232 124 -232 272c0 139 87 259 234 259c65 0 124 -26 153 -85h2v71h114zM283 90c101 0 139 91 139 180
s-40 171 -139 171c-101 0 -136 -94 -136 -180c0 -84 41 -171 136 -171z" />
    <glyph glyph-name="h" unicode="h" 
d="M49 0v714h114v-265h2c28 47 87 82 155 82c113 0 183 -59 183 -176v-355h-114v325c-3 81 -33 116 -101 116c-76 0 -125 -60 -125 -136v-305h-114z" />
    <glyph glyph-name="i" unicode="i" horiz-adv-x="218" 
d="M52 606v108h114v-108h-114zM52 0v517h114v-517h-114z" />
    <glyph glyph-name="j" unicode="j" horiz-adv-x="229" 
d="M56 606v108h114v-108h-114zM56 -39v556h114v-561c0 -103 -41 -161 -148 -161c-23 0 -36 1 -51 4v90c15 -3 28 -4 39 -4c41 0 46 25 46 76z" />
    <glyph glyph-name="k" unicode="k" horiz-adv-x="528" 
d="M58 0v714h114v-406l206 209h140l-198 -190l217 -327h-139l-158 251l-68 -66v-185h-114z" />
    <glyph glyph-name="l" unicode="l" horiz-adv-x="218" 
d="M52 0v714h114v-714h-114z" />
    <glyph glyph-name="m" unicode="m" horiz-adv-x="853" 
d="M52 0v517h108v-72h3c35 51 76 86 159 86c63 0 122 -27 145 -86c39 53 86 86 162 86c109 0 173 -49 173 -174v-357h-114v302c0 83 -5 139 -94 139c-77 0 -110 -50 -110 -138v-303h-114v332c0 72 -22 109 -91 109c-59 0 -113 -49 -113 -134v-307h-114z" />
    <glyph glyph-name="n" unicode="n" 
d="M49 0v517h108v-76l2 -2c35 57 93 92 161 92c113 0 183 -59 183 -176v-355h-114v325c-3 81 -33 116 -101 116c-76 0 -125 -60 -125 -136v-305h-114z" />
    <glyph glyph-name="o" unicode="o" horiz-adv-x="578" 
d="M289 -14c-165 0 -261 114 -261 273c0 157 96 272 261 272s261 -115 261 -272c0 -159 -96 -273 -261 -273zM289 76c102 0 147 93 147 183c0 89 -45 182 -147 182s-147 -93 -147 -182c0 -90 45 -183 147 -183z" />
    <glyph glyph-name="p" unicode="p" horiz-adv-x="587" 
d="M49 -191v708h108v-70h2c32 60 93 84 160 84c163 0 242 -123 242 -275c0 -140 -71 -270 -223 -270c-66 0 -138 24 -173 81h-2v-258h-114zM447 258c0 93 -49 183 -143 183c-96 0 -145 -72 -145 -183c0 -104 53 -182 145 -182c104 0 143 92 143 182z" />
    <glyph glyph-name="q" unicode="q" horiz-adv-x="593" 
d="M545 517v-708h-114v258h-2c-38 -57 -105 -81 -173 -81c-152 0 -223 130 -223 270c0 152 79 275 242 275c67 0 128 -24 160 -84h2v70h108zM147 258c0 -90 39 -182 143 -182c99 0 145 74 145 182c0 113 -49 183 -145 183c-94 0 -143 -90 -143 -183z" />
    <glyph glyph-name="r" unicode="r" horiz-adv-x="347" 
d="M49 0v517h107v-100h2c13 55 82 114 151 114c27 0 32 -2 43 -3v-110c-16 3 -33 5 -49 5c-77 0 -140 -62 -140 -177v-246h-114z" />
    <glyph glyph-name="s" unicode="s" horiz-adv-x="512" 
d="M29 166h114c7 -67 56 -90 117 -90c44 0 118 9 115 68c-3 60 -86 67 -169 86c-84 18 -166 48 -166 153c0 113 122 148 216 148c106 0 203 -43 216 -159h-119c-11 55 -54 69 -105 69c-33 0 -94 -8 -94 -53c0 -56 84 -65 168 -83c83 -19 167 -49 167 -151
c0 -123 -124 -168 -231 -168c-131 0 -226 58 -229 180z" />
    <glyph glyph-name="t" unicode="t" horiz-adv-x="330" 
d="M0 432v85h86v155h114v-155h103v-85h-103v-276c0 -47 4 -71 55 -71c16 0 32 0 48 4v-88c-25 -3 -49 -6 -74 -6c-120 0 -140 46 -143 132v305h-86z" />
    <glyph glyph-name="u" unicode="u" 
d="M503 517v-517h-112v72h-2c-28 -52 -90 -86 -147 -86c-136 0 -193 67 -193 203v328h114v-317c0 -91 36 -124 99 -124c95 0 127 61 127 141v300h114z" />
    <glyph glyph-name="v" unicode="v" horiz-adv-x="507" 
d="M191 0l-188 517h124l131 -397h2l126 397h118l-185 -517h-128z" />
    <glyph glyph-name="w" unicode="w" horiz-adv-x="758" 
d="M163 0l-160 517h121l101 -386h2l97 386h115l93 -386h2l105 386h116l-162 -517h-117l-96 384h-2l-95 -384h-120z" />
    <glyph glyph-name="x" unicode="x" horiz-adv-x="515" 
d="M-7 0l195 272l-179 245h138l108 -159l113 159h132l-176 -239l198 -278h-137l-131 191l-127 -191h-134z" />
    <glyph glyph-name="y" unicode="y" horiz-adv-x="518" 
d="M199 2l-196 515h125l135 -386h2l131 386h119l-201 -545c-37 -93 -63 -177 -183 -177c-27 0 -53 2 -79 6v96c19 -3 35 -7 54 -7c52 0 67 28 80 72z" />
    <glyph glyph-name="z" unicode="z" horiz-adv-x="481" 
d="M34 427v90h420v-80l-296 -347h311v-90h-455v80l286 347h-266z" />
    <glyph glyph-name="braceleft" unicode="{" horiz-adv-x="336" 
d="M16 225v90c27 0 94 14 94 73v206c0 94 85 137 128 137h91v-90h-55c-51 0 -56 -40 -56 -70v-195c0 -80 -73 -102 -104 -105v-2c31 -3 104 -15 104 -111v-189c0 -30 5 -70 56 -70h55v-90h-91c-43 0 -128 43 -128 137v198c0 65 -67 81 -94 81z" />
    <glyph glyph-name="bar" unicode="|" horiz-adv-x="222" 
d="M60 -214v1000h102v-1000h-102z" />
    <glyph glyph-name="braceright" unicode="}" horiz-adv-x="337" 
d="M320 315v-90c-29 0 -94 -15 -94 -73v-206c0 -94 -85 -137 -128 -137h-91v90h55c51 0 56 40 56 70v195c0 82 73 100 104 105v2c-31 3 -104 15 -104 111v189c0 30 -5 70 -56 70h-55v90h91c43 0 128 -43 128 -137v-198c0 -65 65 -81 94 -81z" />
    <glyph glyph-name="asciitilde" unicode="~" horiz-adv-x="584" 
d="M487 338l36 -84c-29 -43 -63 -86 -125 -86c-37 0 -69 14 -102 33c-32 19 -68 35 -115 35c-44 0 -68 -37 -84 -68l-36 84c21 43 59 86 125 86c35 0 72 -15 111 -32c37 -16 75 -36 102 -36c40 0 65 37 88 68z" />
    <glyph glyph-name="uni00A0" unicode="&#xa0;" horiz-adv-x="278" 
 />
    <glyph glyph-name="exclamdown" unicode="&#xa1;" horiz-adv-x="254" 
d="M194 531v-125h-134v125h134zM190 21v-204h-125v204l33 311h59z" />
    <glyph glyph-name="cent" unicode="&#xa2;" horiz-adv-x="532" 
d="M256 -104v90c-145 0 -231 123 -231 267c0 168 96 278 231 278v90h43v-90c110 0 205 -71 213 -187h-114c-7 57 -46 97 -99 97v-365c61 11 95 51 103 118h114c-23 -127 -93 -208 -217 -208v-90h-43zM256 76v365c-88 -8 -117 -105 -117 -188c0 -80 33 -164 117 -177z" />
    <glyph glyph-name="sterling" unicode="&#xa3;" horiz-adv-x="536" 
d="M22 319v65h63c-31 37 -47 93 -47 141c0 125 117 206 234 206c153 0 250 -82 251 -247h-114c-5 86 -37 152 -135 152c-61 0 -111 -41 -111 -117c0 -47 25 -96 46 -135h147v-65h-123c11 -20 16 -42 16 -67c0 -73 -47 -124 -101 -164l2 -2c31 12 59 27 92 27
c35 0 58 -9 81 -17c23 -9 43 -18 74 -18c37 0 69 14 97 38l51 -77c-51 -43 -95 -56 -160 -56c-32 0 -64 10 -99 15c-33 11 -68 20 -105 20c-35 0 -76 -13 -101 -34l-53 81c49 33 108 101 108 162c0 35 -8 65 -21 92h-92z" />
    <glyph glyph-name="currency" unicode="&#xa4;" horiz-adv-x="549" 
d="M275 201c81 0 140 69 140 150c0 79 -59 148 -139 148c-83 0 -145 -67 -145 -150s63 -148 144 -148zM72 90l-56 56l57 61c-32 36 -50 86 -50 142s15 111 50 144l-57 61l57 57l57 -56c33 28 90 46 146 46c53 0 106 -18 137 -45l58 57l61 -61l-56 -58c31 -32 47 -87 47 -143
s-17 -109 -48 -146l55 -59l-55 -55l-57 58c-33 -32 -87 -50 -143 -50c-59 0 -112 17 -147 49z" />
    <glyph glyph-name="yen" unicode="&#xa5;" horiz-adv-x="539" 
d="M216 0v165h-137v65h137v68h-137v65h98l-187 351h127l156 -320l159 320h124l-188 -351h99v-65h-137v-68h137v-65h-137v-165h-114z" />
    <glyph glyph-name="brokenbar" unicode="&#xa6;" horiz-adv-x="223" 
d="M60 411v250h102v-250h-102zM60 -89v250h102v-250h-102z" />
    <glyph glyph-name="section" unicode="&#xa7;" horiz-adv-x="544" 
d="M478 542h-108c-3 56 -37 99 -94 99c-41 0 -82 -30 -82 -75c0 -126 334 -136 334 -328c0 -62 -47 -125 -106 -144c36 -31 55 -67 55 -128c0 -112 -95 -171 -198 -171c-122 0 -213 73 -216 205h108c5 -71 37 -115 105 -115c51 0 87 22 87 81c0 73 -87 109 -172 154
c-87 42 -176 98 -176 192c0 75 41 121 108 149c-29 31 -43 58 -43 101c0 107 101 169 197 169c114 0 201 -72 201 -189zM350 310l-166 95c-36 -11 -61 -41 -61 -80c0 -15 4 -49 55 -78l182 -102c35 15 60 41 60 82c0 29 -14 52 -70 83z" />
    <glyph glyph-name="dieresis" unicode="&#xa8;" horiz-adv-x="198" 
d="M70 602h-114v108h114v-108zM128 710h114v-108h-114v108z" />
    <glyph glyph-name="copyright" unicode="&#xa9;" horiz-adv-x="761" 
d="M501 285h69c-16 -96 -90 -154 -177 -154c-128 0 -212 97 -212 226c0 120 79 215 210 215c92 0 165 -52 178 -151h-68c-11 51 -53 86 -110 86c-84 0 -130 -67 -130 -150c0 -87 51 -161 132 -161c60 0 101 37 108 89zM667 357c0 182 -126 309 -286 309
c-163 0 -288 -127 -288 -309c0 -170 110 -309 288 -309c160 0 286 126 286 309zM747 357c0 -224 -170 -374 -366 -374c-215 0 -368 161 -368 374c0 224 170 374 368 374c196 0 366 -150 366 -374z" />
    <glyph glyph-name="ordfeminine" unicode="&#xaa;" horiz-adv-x="342" 
d="M313 621v-151c0 -15 2 -23 17 -22h7c3 0 6 0 9 1v-68c-11 -4 -35 -8 -47 -8c-35 0 -55 12 -62 49c-19 -29 -77 -49 -117 -49c-64 0 -122 32 -122 93c0 76 71 89 135 100c52 8 93 12 93 38c0 43 -33 45 -60 45c-39 0 -67 -9 -70 -42h-85c8 83 85 107 160 107
c69 0 142 -27 142 -93zM226 491v44c-38 -20 -141 -7 -141 -64c0 -28 25 -33 56 -33c39 0 85 9 85 53z" />
    <glyph glyph-name="guillemotleft" unicode="&#xab;" horiz-adv-x="440" 
d="M394 93l-155 123v112l155 123v-103l-95 -76l95 -76v-103zM196 93l-155 123v112l155 123v-103l-95 -76l95 -76v-103z" />
    <glyph glyph-name="logicalnot" unicode="&#xac;" horiz-adv-x="586" 
d="M443 108v195h-402v102h504v-297h-102z" />
    <glyph glyph-name="uni00AD" unicode="&#xad;" horiz-adv-x="388" 
d="M48 218v108h291v-108h-291z" />
    <glyph glyph-name="registered" unicode="&#xae;" horiz-adv-x="761" 
d="M667 357c0 182 -126 309 -286 309c-163 0 -288 -127 -288 -309c0 -170 110 -309 288 -309c160 0 286 126 286 309zM747 357c0 -224 -170 -374 -366 -374c-215 0 -368 161 -368 374c0 224 170 374 368 374c196 0 366 -150 366 -374zM307 378h76c51 0 96 5 96 65
c0 51 -50 56 -90 56h-82v-121zM307 320v-177h-68v414h157c100 0 151 -35 151 -119c0 -75 -47 -106 -108 -113l116 -182h-77l-107 177h-64z" />
    <glyph glyph-name="macron" unicode="&#xaf;" horiz-adv-x="150" 
d="M219 624h-288v65h288v-65z" />
    <glyph glyph-name="degree" unicode="&#xb0;" horiz-adv-x="392" 
d="M102 564c0 -52 42 -94 94 -94s94 42 94 94s-42 94 -94 94s-94 -42 -94 -94zM46 564c0 83 67 150 150 150s150 -67 150 -150s-67 -150 -150 -150s-150 67 -150 150z" />
    <glyph glyph-name="plusminus" unicode="&#xb1;" horiz-adv-x="586" 
d="M41 0v102h504v-102h-504zM242 381v125h102v-125h201v-102h-201v-125h-102v125h-201v102h201z" />
    <glyph glyph-name="twosuperior" unicode="&#xb2;" horiz-adv-x="355" 
d="M330 343v-70h-315c1 81 39 132 100 171c60 41 135 73 138 138c0 43 -34 62 -73 62c-54 0 -70 -46 -73 -93h-87c0 101 63 163 164 163c84 0 156 -38 156 -130c0 -66 -50 -108 -102 -141c-53 -35 -108 -60 -121 -100h213z" />
    <glyph glyph-name="threesuperior" unicode="&#xb3;" horiz-adv-x="349" 
d="M140 475v58c50 -3 101 14 101 61c0 35 -38 50 -69 50c-44 0 -76 -32 -73 -76h-80c4 92 62 146 154 146c75 0 148 -31 148 -116c0 -43 -21 -75 -64 -90v-2c51 -9 82 -49 82 -105c0 -88 -74 -137 -165 -137c-109 0 -161 58 -164 155h80c-3 -47 28 -85 84 -85
c47 0 85 27 85 71c0 63 -60 73 -119 70z" />
    <glyph glyph-name="acute" unicode="&#xb4;" horiz-adv-x="216" 
d="M40 589l90 143h135l-142 -143h-83z" />
    <glyph glyph-name="mu" unicode="&#xb5;" 
d="M503 517v-517h-112v72h-2c-29 -52 -90 -86 -136 -86c-31 0 -67 9 -90 36v-213h-114v708h114v-317c0 -91 36 -124 99 -124c95 0 127 61 127 141v300h114z" />
    <glyph glyph-name="paragraph" unicode="&#xb6;" horiz-adv-x="586" 
d="M232 -160v504c-130 0 -215 77 -215 182c0 134 94 188 233 188h259v-874h-80v809h-117v-809h-80z" />
    <glyph glyph-name="periodcentered" unicode="&#xb7;" horiz-adv-x="263" 
d="M57 302c0 39 35 74 75 74s75 -35 75 -74c0 -40 -34 -76 -75 -76s-75 36 -75 76z" />
    <glyph glyph-name="cedilla" unicode="&#xb8;" horiz-adv-x="216" 
d="M-1 -200l18 40c24 -11 42 -16 65 -16c28 0 61 6 61 41c0 25 -23 38 -46 38c-15 0 -28 -3 -39 -10l-22 19l66 88h48l-46 -59l1 -1c8 3 18 4 33 4c39 0 85 -24 85 -75c0 -67 -63 -92 -121 -92c-37 0 -74 7 -103 23z" />
    <glyph glyph-name="onesuperior" unicode="&#xb9;" horiz-adv-x="369" 
d="M55 577v58c67 0 125 20 138 70h70v-432h-87v304h-121z" />
    <glyph glyph-name="ordmasculine" unicode="&#xba;" horiz-adv-x="359" 
d="M358 543c0 -103 -61 -170 -178 -170s-178 67 -178 170s61 171 178 171s178 -68 178 -171zM271 543c0 51 -30 106 -91 106c-62 0 -91 -55 -91 -106c0 -50 29 -105 91 -105c64 0 88 55 91 105z" />
    <glyph glyph-name="guillemotright" unicode="&#xbb;" horiz-adv-x="440" 
d="M243 451l155 -123v-112l-155 -123v103l95 76l-95 76v103zM45 451l155 -123v-112l-155 -123v103l95 76l-95 76v103z" />
    <glyph glyph-name="onequarter" unicode="&#xbc;" horiz-adv-x="807" 
d="M129 -24l419 748h78l-418 -748h-79zM25 577v58c67 0 125 20 138 70h70v-432h-87v304h-121zM620 172v158h-2l-117 -158h119zM707 97v-97h-87v97h-195v81l185 250h97v-256h47v-75h-47z" />
    <glyph glyph-name="onehalf" unicode="&#xbd;" horiz-adv-x="826" 
d="M777 70v-70h-315c0 202 238 184 238 309c0 43 -32 67 -73 67c-57 0 -70 -50 -73 -98h-87c0 104 59 168 164 168c85 0 156 -43 156 -135c0 -68 -49 -106 -102 -141c-53 -32 -108 -60 -121 -100h213zM25 577v58c67 0 125 20 138 70h70v-432h-87v304h-121zM126 -24l419 748
h78l-418 -748h-79z" />
    <glyph glyph-name="threequarters" unicode="&#xbe;" horiz-adv-x="846" 
d="M151 474v58c50 -3 101 15 101 62c0 35 -38 50 -69 50c-44 0 -76 -32 -73 -76h-80c4 92 62 146 154 146c75 0 148 -31 148 -116c0 -43 -21 -75 -64 -90v-2c51 -9 82 -49 82 -105c0 -88 -74 -137 -165 -137c-109 0 -161 58 -164 155h80c-3 -47 28 -85 84 -85
c47 0 85 27 85 71c0 63 -60 72 -119 69zM201 -24l419 748h78l-418 -748h-79zM674 172v158h-2l-117 -158h119zM761 97v-97h-87v97h-195v81l183 250h99v-256h47v-75h-47z" />
    <glyph glyph-name="questiondown" unicode="&#xbf;" horiz-adv-x="524" 
d="M194 531h134v-125h-134v125zM377 39h114c0 -141 -92 -239 -240 -239c-122 0 -218 73 -218 197c0 94 43 129 88 166c51 43 88 73 88 169h108c0 -116 -25 -158 -78 -203c-43 -37 -81 -61 -81 -128c0 -76 61 -106 98 -106c83 0 121 59 121 144z" />
    <glyph glyph-name="Agrave" unicode="&#xc0;" horiz-adv-x="666" 
d="M-8 0l274 714h133l275 -714h-134l-67 189h-285l-67 -189h-129zM330 591l-108 -307h218l-107 307h-3zM170 926h134l91 -143h-83z" />
    <glyph glyph-name="Aacute" unicode="&#xc1;" horiz-adv-x="666" 
d="M-8 0l274 714h133l275 -714h-134l-67 189h-285l-67 -189h-129zM330 591l-108 -307h218l-107 307h-3zM273 783l90 143h135l-142 -143h-83z" />
    <glyph glyph-name="Acircumflex" unicode="&#xc2;" horiz-adv-x="666" 
d="M-8 0l274 714h133l275 -714h-134l-67 189h-285l-67 -189h-129zM330 591l-108 -307h218l-107 307h-3zM331 873l-70 -90h-92l107 143h111l108 -143h-93z" />
    <glyph glyph-name="Atilde" unicode="&#xc3;" horiz-adv-x="666" 
d="M-8 0l274 714h133l275 -714h-134l-67 189h-285l-67 -189h-129zM330 591l-108 -307h218l-107 307h-3zM454 914h56c-5 -32 -14 -61 -33 -81c-17 -21 -42 -34 -78 -34c-23 0 -49 8 -74 19c-31 13 -45 18 -68 18c-24 0 -38 -14 -43 -41h-57c8 51 43 113 104 113
c25 0 40 -3 81 -20c28 -12 43 -18 62 -18c29 0 43 17 50 44z" />
    <glyph glyph-name="Adieresis" unicode="&#xc4;" horiz-adv-x="666" 
d="M-8 0l274 714h133l275 -714h-134l-67 189h-285l-67 -189h-129zM330 591l-108 -307h218l-107 307h-3zM303 796h-114v108h114v-108zM361 904h114v-108h-114v108z" />
    <glyph glyph-name="Aring" unicode="&#xc5;" horiz-adv-x="666" 
d="M-8 0l274 714h133l275 -714h-134l-67 189h-285l-67 -189h-129zM330 591l-108 -307h218l-107 307h-3zM271 854c0 -35 27 -61 60 -61c35 0 60 26 60 61c0 36 -25 61 -60 61c-33 0 -60 -25 -60 -61zM331 751c-57 0 -104 42 -104 103c0 62 49 103 104 103
c56 0 104 -41 104 -103c0 -61 -48 -103 -104 -103z" />
    <glyph glyph-name="AE" unicode="&#xc6;" horiz-adv-x="958" 
d="M-8 0l355 714h576v-108h-348v-187h326v-102h-326v-209h354v-108h-473v183h-239l-86 -183h-139zM420 606l-157 -328h193v328h-36z" />
    <glyph glyph-name="Ccedilla" unicode="&#xc7;" horiz-adv-x="698" 
d="M553 272h122c-11 -170 -128 -285 -297 -288l-32 -42v-2c8 3 18 3 33 3c39 0 85 -23 85 -74c0 -68 -63 -90 -121 -90c-31 0 -76 6 -103 21l18 40c21 -7 42 -16 65 -16c28 0 61 6 61 41c0 25 -23 38 -46 38c-15 0 -28 -3 -39 -10l-22 19l55 73c-190 19 -303 181 -303 372
c0 203 129 374 342 374c162 0 287 -90 303 -244h-125c-21 83 -74 142 -178 142c-153 0 -217 -135 -217 -272s64 -272 217 -272c112 0 171 83 182 187z" />
    <glyph glyph-name="Egrave" unicode="&#xc8;" horiz-adv-x="619" 
d="M62 0v714h514v-108h-389v-187h360v-102h-360v-209h396v-108h-521zM175 926h134l91 -143h-83z" />
    <glyph glyph-name="Eacute" unicode="&#xc9;" horiz-adv-x="619" 
d="M62 0v714h514v-108h-389v-187h360v-102h-360v-209h396v-108h-521zM263 783l90 143h135l-142 -143h-83z" />
    <glyph glyph-name="Ecircumflex" unicode="&#xca;" horiz-adv-x="618" 
d="M61 0v714h514v-108h-389v-187h360v-102h-360v-209h396v-108h-521zM318 873l-70 -90h-92l107 143h111l108 -143h-93z" />
    <glyph glyph-name="Edieresis" unicode="&#xcb;" horiz-adv-x="618" 
d="M61 0v714h514v-108h-389v-187h360v-102h-360v-209h396v-108h-521zM292 796h-114v108h114v-108zM350 904h114v-108h-114v108z" />
    <glyph glyph-name="Igrave" unicode="&#xcc;" horiz-adv-x="250" 
d="M61 0v714h125v-714h-125zM-39 926h134l91 -143h-83z" />
    <glyph glyph-name="Iacute" unicode="&#xcd;" horiz-adv-x="251" 
d="M63 0v714h125v-714h-125zM64 783l90 143h135l-142 -143h-83z" />
    <glyph glyph-name="Icircumflex" unicode="&#xce;" horiz-adv-x="248" 
d="M61 0v714h125v-714h-125zM123 873l-70 -90h-92l107 143h111l108 -143h-93z" />
    <glyph glyph-name="Idieresis" unicode="&#xcf;" horiz-adv-x="233" 
d="M53 0v714h125v-714h-125zM87 796h-114v108h114v-108zM145 904h114v-108h-114v108z" />
    <glyph glyph-name="Eth" unicode="&#xd0;" horiz-adv-x="704" 
d="M186 612v-193h195v-102h-195v-215h123c196 0 238 111 238 255s-42 255 -238 255h-123zM61 0v317h-67v102h67v295h296c220 0 315 -160 315 -357s-95 -357 -315 -357h-296z" />
    <glyph glyph-name="Ntilde" unicode="&#xd1;" horiz-adv-x="701" 
d="M61 0v714h132l326 -526h2v526h119v-714h-132l-325 525h-3v-525h-119zM472 914h56c-5 -32 -14 -61 -33 -81c-17 -21 -42 -34 -78 -34c-23 0 -49 8 -74 19c-31 13 -45 18 -68 18c-24 0 -38 -14 -43 -41h-57c8 51 43 113 104 113c25 0 40 -3 81 -20c28 -12 43 -18 62 -18
c29 0 43 17 50 44z" />
    <glyph glyph-name="Ograve" unicode="&#xd2;" horiz-adv-x="740" 
d="M370 629c-153 0 -217 -135 -217 -272s64 -272 217 -272s217 135 217 272s-64 272 -217 272zM370 731c213 0 342 -171 342 -374c0 -205 -129 -374 -342 -374s-342 169 -342 374c0 203 129 374 342 374zM179 926h134l91 -143h-83z" />
    <glyph glyph-name="Oacute" unicode="&#xd3;" horiz-adv-x="740" 
d="M370 629c-153 0 -217 -135 -217 -272s64 -272 217 -272s217 135 217 272s-64 272 -217 272zM370 731c213 0 342 -171 342 -374c0 -205 -129 -374 -342 -374s-342 169 -342 374c0 203 129 374 342 374zM323 783l90 143h135l-142 -143h-83z" />
    <glyph glyph-name="Ocircumflex" unicode="&#xd4;" horiz-adv-x="740" 
d="M370 629c-153 0 -217 -135 -217 -272s64 -272 217 -272s217 135 217 272s-64 272 -217 272zM370 731c213 0 342 -171 342 -374c0 -205 -129 -374 -342 -374s-342 169 -342 374c0 203 129 374 342 374zM372 873l-70 -90h-92l107 143h111l108 -143h-93z" />
    <glyph glyph-name="Otilde" unicode="&#xd5;" horiz-adv-x="740" 
d="M370 629c-153 0 -217 -135 -217 -272s64 -272 217 -272s217 135 217 272s-64 272 -217 272zM370 731c213 0 342 -171 342 -374c0 -205 -129 -374 -342 -374s-342 169 -342 374c0 203 129 374 342 374zM495 914h56c-5 -32 -14 -61 -33 -81c-17 -21 -42 -34 -78 -34
c-23 0 -49 8 -74 19c-31 13 -45 18 -68 18c-24 0 -38 -14 -43 -41h-57c8 51 43 113 104 113c25 0 40 -3 81 -20c28 -12 43 -18 62 -18c29 0 43 17 50 44z" />
    <glyph glyph-name="Odieresis" unicode="&#xd6;" horiz-adv-x="740" 
d="M370 629c-153 0 -217 -135 -217 -272s64 -272 217 -272s217 135 217 272s-64 272 -217 272zM370 731c213 0 342 -171 342 -374c0 -205 -129 -374 -342 -374s-342 169 -342 374c0 203 129 374 342 374zM342 796h-114v108h114v-108zM400 904h114v-108h-114v108z" />
    <glyph glyph-name="multiply" unicode="&#xd7;" horiz-adv-x="610" 
d="M234 253l-174 174l86 56l158 -159l160 159l86 -56l-175 -174l175 -174l-86 -56l-160 160l-158 -160l-86 56z" />
    <glyph glyph-name="Oslash" unicode="&#xd8;" horiz-adv-x="738" 
d="M665 734l43 -36l-79 -89c52 -68 81 -155 81 -252c0 -205 -129 -374 -342 -374c-92 0 -166 31 -222 82l-76 -85l-42 36l79 90c-52 67 -81 154 -81 251c0 203 129 374 342 374c92 0 166 -30 222 -81zM548 518l-328 -370c36 -39 84 -63 148 -63c153 0 217 135 217 272
c0 57 -10 114 -37 161zM187 196l329 370c-33 39 -81 63 -148 63c-153 0 -217 -135 -217 -272c0 -59 11 -114 36 -161z" />
    <glyph glyph-name="Ugrave" unicode="&#xd9;" horiz-adv-x="701" 
d="M57 257v457h125v-416c0 -96 6 -207 168 -207s168 111 168 207v416h125v-457c0 -183 -117 -274 -293 -274s-293 91 -293 274zM179 926h134l91 -143h-83z" />
    <glyph glyph-name="Uacute" unicode="&#xda;" horiz-adv-x="701" 
d="M57 257v457h125v-416c0 -96 6 -207 168 -207s168 111 168 207v416h125v-457c0 -183 -117 -274 -293 -274s-293 91 -293 274zM297 783l90 143h135l-142 -143h-83z" />
    <glyph glyph-name="Ucircumflex" unicode="&#xdb;" horiz-adv-x="701" 
d="M57 257v457h125v-416c0 -96 6 -207 168 -207s168 111 168 207v416h125v-457c0 -183 -117 -274 -293 -274s-293 91 -293 274zM351 873l-70 -90h-92l107 143h111l108 -143h-93z" />
    <glyph glyph-name="Udieresis" unicode="&#xdc;" horiz-adv-x="701" 
d="M57 257v457h125v-416c0 -96 6 -207 168 -207s168 111 168 207v416h125v-457c0 -183 -117 -274 -293 -274s-293 91 -293 274zM320 796h-114v108h114v-108zM378 904h114v-108h-114v108z" />
    <glyph glyph-name="Yacute" unicode="&#xdd;" horiz-adv-x="625" 
d="M250 0v280l-268 434h145l189 -320l186 320h140l-267 -434v-280h-125zM271 783l90 143h135l-142 -143h-83z" />
    <glyph glyph-name="Thorn" unicode="&#xde;" horiz-adv-x="640" 
d="M187 504v-236h183c56 0 125 28 125 118c0 94 -57 118 -123 118h-185zM62 0v714h125v-108h190c204 0 243 -132 243 -221s-39 -219 -243 -219h-190v-166h-125z" />
    <glyph glyph-name="germandbls" unicode="&#xdf;" horiz-adv-x="560" 
d="M50 0v523c0 131 92 208 219 208c108 0 213 -65 213 -180c0 -68 -33 -130 -102 -151v-2c84 -11 134 -89 134 -171c0 -139 -88 -241 -229 -241c-19 0 -37 1 -56 3v90c11 -3 20 -3 39 -3c118 0 132 88 132 156c0 49 -22 79 -55 98c-31 20 -76 25 -115 25v75c40 0 78 7 99 26
c24 19 39 45 39 84c0 67 -34 101 -101 101c-46 0 -103 -24 -103 -130v-511h-114z" />
    <glyph glyph-name="agrave" unicode="&#xe0;" horiz-adv-x="552" 
d="M486 381v-266c0 -28 6 -39 27 -39h12c5 0 10 1 16 2v-79c-17 -6 -53 -13 -72 -13c-47 0 -79 16 -88 63c-45 -44 -118 -63 -179 -63c-93 0 -177 50 -177 151c0 129 103 150 199 161c83 16 155 5 155 73c0 60 -62 70 -107 70c-64 0 -109 -26 -114 -82h-114
c8 133 120 172 235 172c101 0 207 -41 207 -150zM372 174v85c-35 -23 -89 -22 -140 -31c-49 -8 -93 -26 -93 -86c0 -52 65 -66 105 -66c50 0 128 26 128 98zM122 732h134l91 -143h-83z" />
    <glyph glyph-name="aacute" unicode="&#xe1;" horiz-adv-x="552" 
d="M486 381v-266c0 -28 6 -39 27 -39h12c5 0 10 1 16 2v-79c-17 -6 -53 -13 -72 -13c-47 0 -79 16 -88 63c-45 -44 -118 -63 -179 -63c-93 0 -177 50 -177 151c0 129 103 150 199 161c83 16 155 5 155 73c0 60 -62 70 -107 70c-64 0 -109 -26 -114 -82h-114
c8 133 120 172 235 172c101 0 207 -41 207 -150zM372 174v85c-35 -23 -89 -22 -140 -31c-49 -8 -93 -26 -93 -86c0 -52 65 -66 105 -66c50 0 128 26 128 98zM217 589l90 143h135l-142 -143h-83z" />
    <glyph glyph-name="acircumflex" unicode="&#xe2;" horiz-adv-x="552" 
d="M486 381v-266c0 -28 6 -39 27 -39h12c5 0 10 1 16 2v-79c-17 -6 -53 -13 -72 -13c-47 0 -79 16 -88 63c-45 -44 -118 -63 -179 -63c-93 0 -177 50 -177 151c0 129 103 150 199 161c83 16 155 5 155 73c0 60 -62 70 -107 70c-64 0 -109 -26 -114 -82h-114
c8 133 120 172 235 172c101 0 207 -41 207 -150zM372 174v85c-35 -23 -89 -22 -140 -31c-49 -8 -93 -26 -93 -86c0 -52 65 -66 105 -66c50 0 128 26 128 98zM277 679l-70 -90h-92l107 143h111l108 -143h-93z" />
    <glyph glyph-name="atilde" unicode="&#xe3;" horiz-adv-x="552" 
d="M486 381v-266c0 -28 6 -39 27 -39h12c5 0 10 1 16 2v-79c-17 -6 -53 -13 -72 -13c-47 0 -79 16 -88 63c-45 -44 -118 -63 -179 -63c-93 0 -177 50 -177 151c0 129 103 150 199 161c83 16 155 5 155 73c0 60 -62 70 -107 70c-64 0 -109 -26 -114 -82h-114
c8 133 120 172 235 172c101 0 207 -41 207 -150zM372 174v85c-35 -23 -89 -22 -140 -31c-49 -8 -93 -26 -93 -86c0 -52 65 -66 105 -66c50 0 128 26 128 98zM398 720h56c-5 -32 -14 -61 -33 -81c-17 -21 -42 -34 -78 -34c-23 0 -49 8 -74 19c-31 13 -45 18 -68 18
c-24 0 -38 -14 -43 -41h-57c8 51 43 113 104 113c25 0 40 -3 81 -20c28 -12 43 -18 62 -18c29 0 43 17 50 44z" />
    <glyph glyph-name="adieresis" unicode="&#xe4;" horiz-adv-x="552" 
d="M486 381v-266c0 -28 6 -39 27 -39h12c5 0 10 1 16 2v-79c-17 -6 -53 -13 -72 -13c-47 0 -79 16 -88 63c-45 -44 -118 -63 -179 -63c-93 0 -177 50 -177 151c0 129 103 150 199 161c83 16 155 5 155 73c0 60 -62 70 -107 70c-64 0 -109 -26 -114 -82h-114
c8 133 120 172 235 172c101 0 207 -41 207 -150zM372 174v85c-35 -23 -89 -22 -140 -31c-49 -8 -93 -26 -93 -86c0 -52 65 -66 105 -66c50 0 128 26 128 98zM246 602h-114v108h114v-108zM304 710h114v-108h-114v108z" />
    <glyph glyph-name="aring" unicode="&#xe5;" horiz-adv-x="552" 
d="M486 381v-266c0 -28 6 -39 27 -39h12c5 0 10 1 16 2v-79c-17 -6 -53 -13 -72 -13c-47 0 -79 16 -88 63c-45 -44 -118 -63 -179 -63c-93 0 -177 50 -177 151c0 129 103 150 199 161c83 16 155 5 155 73c0 60 -62 70 -107 70c-64 0 -109 -26 -114 -82h-114
c8 133 120 172 235 172c101 0 207 -41 207 -150zM372 174v85c-35 -23 -89 -22 -140 -31c-49 -8 -93 -26 -93 -86c0 -52 65 -66 105 -66c50 0 128 26 128 98zM215 674c0 -35 27 -61 60 -61c35 0 60 26 60 61c0 36 -25 61 -60 61c-33 0 -60 -25 -60 -61zM275 571
c-57 0 -104 42 -104 103c0 62 49 103 104 103c56 0 104 -41 104 -103c0 -61 -48 -103 -104 -103z" />
    <glyph glyph-name="ae" unicode="&#xe6;" horiz-adv-x="886" 
d="M740 163h114c-29 -111 -119 -177 -234 -177c-77 0 -150 24 -190 95c-45 -68 -127 -95 -215 -95c-104 0 -187 50 -187 151c0 129 103 150 199 161c82 16 149 6 149 73c0 60 -56 70 -101 70c-64 0 -109 -26 -114 -82h-114c8 133 121 172 232 172c65 0 134 -11 175 -70
c39 51 101 70 164 70c177 0 251 -130 240 -302h-375c0 -79 40 -153 135 -153c61 0 103 32 122 87zM375 180v77c-23 -23 -86 -21 -139 -29c-51 -8 -94 -26 -94 -86c0 -52 56 -66 104 -66c63 0 129 36 129 104zM483 304h261c1 83 -47 137 -131 137c-81 0 -125 -63 -130 -137z
" />
    <glyph glyph-name="ccedilla" unicode="&#xe7;" horiz-adv-x="539" 
d="M167 -200l18 40c24 -11 42 -16 65 -16c28 0 61 6 61 41c0 25 -23 38 -46 38c-15 0 -28 -3 -39 -10l-22 19l56 75c-33 2 -62 8 -88 19c-92 42 -143 131 -143 247c0 156 85 278 255 278c120 0 222 -60 233 -187h-114c-9 64 -54 97 -118 97c-59 0 -142 -32 -142 -188
c0 -86 38 -177 137 -177c67 0 112 43 123 118h114c-11 -67 -36 -119 -77 -155c-34 -30 -78 -47 -132 -52l-36 -46l1 -1c8 3 18 4 33 4c39 0 85 -24 85 -75c0 -67 -63 -92 -121 -92c-37 0 -74 7 -103 23z" />
    <glyph glyph-name="egrave" unicode="&#xe8;" 
d="M140 304h266c-5 72 -52 137 -130 137c-79 0 -133 -60 -136 -137zM520 229h-380c0 -81 44 -153 139 -153c67 0 106 29 126 86h108c-24 -113 -122 -176 -234 -176c-163 0 -253 112 -253 272c0 147 96 273 250 273c163 0 263 -147 244 -302zM108 732h134l91 -143h-83z" />
    <glyph glyph-name="eacute" unicode="&#xe9;" 
d="M140 304h266c-5 72 -52 137 -130 137c-79 0 -133 -60 -136 -137zM520 229h-380c0 -81 44 -153 139 -153c67 0 106 29 126 86h108c-24 -113 -122 -176 -234 -176c-163 0 -253 112 -253 272c0 147 96 273 250 273c163 0 263 -147 244 -302zM230 589l90 143h135l-142 -143
h-83z" />
    <glyph glyph-name="ecircumflex" unicode="&#xea;" horiz-adv-x="550" 
d="M139 304h266c-5 72 -52 137 -130 137c-79 0 -133 -60 -136 -137zM519 229h-380c0 -81 44 -153 139 -153c67 0 106 29 126 86h108c-24 -113 -122 -176 -234 -176c-163 0 -253 112 -253 272c0 147 96 273 250 273c163 0 263 -147 244 -302zM276 679l-70 -90h-92l107 143
h111l108 -143h-93z" />
    <glyph glyph-name="edieresis" unicode="&#xeb;" horiz-adv-x="550" 
d="M139 304h266c-5 72 -52 137 -130 137c-79 0 -133 -60 -136 -137zM519 229h-380c0 -81 44 -153 139 -153c67 0 106 29 126 86h108c-24 -113 -122 -176 -234 -176c-163 0 -253 112 -253 272c0 147 96 273 250 273c163 0 263 -147 244 -302zM246 602h-114v108h114v-108z
M304 710h114v-108h-114v108z" />
    <glyph glyph-name="igrave" unicode="&#xec;" horiz-adv-x="216" 
d="M164 0h-114v517h114v-517zM-61 732h134l91 -143h-83z" />
    <glyph glyph-name="iacute" unicode="&#xed;" horiz-adv-x="215" 
d="M165 0h-114v517h114v-517zM51 589l90 143h135l-142 -143h-83z" />
    <glyph glyph-name="icircumflex" unicode="&#xee;" horiz-adv-x="213" 
d="M165 0h-114v517h114v-517zM108 679l-70 -90h-92l107 143h111l108 -143h-93z" />
    <glyph glyph-name="idieresis" unicode="&#xef;" horiz-adv-x="198" 
d="M156 0h-114v517h114v-517zM71 602h-114v108h114v-108zM129 710h114v-108h-114v108z" />
    <glyph glyph-name="eth" unicode="&#xf0;" horiz-adv-x="567" 
d="M180 541l-50 49l96 46c-31 13 -58 26 -85 34l76 61c37 -12 71 -29 104 -50l105 50l49 -49l-94 -45c100 -83 155 -199 155 -328c0 -177 -74 -323 -269 -323c-152 0 -239 110 -239 266c0 131 85 254 223 254c56 0 98 -12 143 -44h2c-23 52 -65 95 -108 131zM285 416
c-106 0 -143 -79 -143 -171c0 -91 40 -169 132 -169s148 84 148 169c0 86 -41 171 -137 171z" />
    <glyph glyph-name="ntilde" unicode="&#xf1;" 
d="M48 0v517h108v-76l2 -2c35 57 93 92 161 92c113 0 183 -59 183 -176v-355h-114v325c-3 81 -33 116 -101 116c-76 0 -125 -60 -125 -136v-305h-114zM395 720h56c-5 -32 -14 -61 -33 -81c-17 -21 -42 -34 -78 -34c-23 0 -49 8 -74 19c-31 13 -45 18 -68 18
c-24 0 -38 -14 -43 -41h-57c8 51 43 113 104 113c25 0 40 -3 81 -20c28 -12 43 -18 62 -18c29 0 43 17 50 44z" />
    <glyph glyph-name="ograve" unicode="&#xf2;" horiz-adv-x="578" 
d="M289 -14c-165 0 -261 114 -261 273c0 157 96 272 261 272s261 -115 261 -272c0 -159 -96 -273 -261 -273zM289 76c102 0 147 93 147 183c0 89 -45 182 -147 182s-147 -93 -147 -182c0 -90 45 -183 147 -183zM116 732h134l91 -143h-83z" />
    <glyph glyph-name="oacute" unicode="&#xf3;" horiz-adv-x="578" 
d="M289 -14c-165 0 -261 114 -261 273c0 157 96 272 261 272s261 -115 261 -272c0 -159 -96 -273 -261 -273zM289 76c102 0 147 93 147 183c0 89 -45 182 -147 182s-147 -93 -147 -182c0 -90 45 -183 147 -183zM232 589l90 143h135l-142 -143h-83z" />
    <glyph glyph-name="ocircumflex" unicode="&#xf4;" horiz-adv-x="577" 
d="M288 -14c-165 0 -261 114 -261 273c0 157 96 272 261 272s261 -115 261 -272c0 -159 -96 -273 -261 -273zM288 76c102 0 147 93 147 183c0 89 -45 182 -147 182s-147 -93 -147 -182c0 -90 45 -183 147 -183zM289 679l-70 -90h-92l107 143h111l108 -143h-93z" />
    <glyph glyph-name="otilde" unicode="&#xf5;" horiz-adv-x="577" 
d="M288 -14c-165 0 -261 114 -261 273c0 157 96 272 261 272s261 -115 261 -272c0 -159 -96 -273 -261 -273zM288 76c102 0 147 93 147 183c0 89 -45 182 -147 182s-147 -93 -147 -182c0 -90 45 -183 147 -183zM411 720h56c-5 -32 -14 -61 -33 -81c-17 -21 -42 -34 -78 -34
c-23 0 -49 8 -74 19c-31 13 -45 18 -68 18c-24 0 -38 -14 -43 -41h-57c8 51 43 113 104 113c25 0 40 -3 81 -20c28 -12 43 -18 62 -18c29 0 43 17 50 44z" />
    <glyph glyph-name="odieresis" unicode="&#xf6;" horiz-adv-x="577" 
d="M288 -14c-165 0 -261 114 -261 273c0 157 96 272 261 272s261 -115 261 -272c0 -159 -96 -273 -261 -273zM288 76c102 0 147 93 147 183c0 89 -45 182 -147 182s-147 -93 -147 -182c0 -90 45 -183 147 -183zM261 602h-114v108h114v-108zM319 710h114v-108h-114v108z" />
    <glyph glyph-name="divide" unicode="&#xf7;" horiz-adv-x="586" 
d="M294 -25c-39 0 -73 33 -73 72c0 40 33 72 72 72s72 -33 72 -72c0 -36 -34 -72 -71 -72zM294 387c-39 0 -73 33 -73 72c0 40 33 72 72 72s72 -33 72 -72c0 -36 -34 -72 -71 -72zM545 202h-504v102h504v-102z" />
    <glyph glyph-name="oslash" unicode="&#xf8;" horiz-adv-x="585" 
d="M168 155l223 244c-24 27 -56 42 -99 42c-102 0 -147 -93 -147 -182c0 -36 7 -73 23 -104zM59 -28l-32 28l65 72c-41 49 -61 111 -61 187c0 157 96 272 261 272c71 0 127 -20 170 -55l63 69l32 -28l-65 -71c41 -50 61 -112 61 -187c0 -159 -96 -273 -261 -273
c-69 0 -126 20 -169 56zM416 362l-223 -244c24 -27 56 -42 99 -42c102 0 147 93 147 183c0 36 -7 72 -23 103z" />
    <glyph glyph-name="ugrave" unicode="&#xf9;" 
d="M503 517v-517h-112v72h-2c-28 -52 -90 -86 -147 -86c-136 0 -193 67 -193 203v328h114v-317c0 -91 36 -124 99 -124c95 0 127 61 127 141v300h114zM102 732h134l91 -143h-83z" />
    <glyph glyph-name="uacute" unicode="&#xfa;" 
d="M503 517v-517h-112v72h-2c-28 -52 -90 -86 -147 -86c-136 0 -193 67 -193 203v328h114v-317c0 -91 36 -124 99 -124c95 0 127 61 127 141v300h114zM230 589l90 143h135l-142 -143h-83z" />
    <glyph glyph-name="ucircumflex" unicode="&#xfb;" 
d="M502 517v-517h-112v72h-2c-28 -52 -90 -86 -147 -86c-136 0 -193 67 -193 203v328h114v-317c0 -91 36 -124 99 -124c95 0 127 61 127 141v300h114zM275 679l-70 -90h-92l107 143h111l108 -143h-93z" />
    <glyph glyph-name="udieresis" unicode="&#xfc;" 
d="M502 517v-517h-112v72h-2c-28 -52 -90 -86 -147 -86c-136 0 -193 67 -193 203v328h114v-317c0 -91 36 -124 99 -124c95 0 127 61 127 141v300h114zM245 602h-114v108h114v-108zM303 710h114v-108h-114v108z" />
    <glyph glyph-name="yacute" unicode="&#xfd;" horiz-adv-x="518" 
d="M199 2l-196 515h125l135 -386h2l131 386h119l-201 -545c-37 -93 -63 -177 -183 -177c-27 0 -53 2 -79 6v96c19 -3 35 -7 54 -7c52 0 67 28 80 72zM221 589l90 143h135l-142 -143h-83z" />
    <glyph glyph-name="thorn" unicode="&#xfe;" horiz-adv-x="590" 
d="M447 258c0 93 -49 183 -143 183c-96 0 -145 -72 -145 -183c0 -104 53 -182 145 -182c104 0 143 92 143 182zM49 -191v905h114v-264h2c32 50 95 81 154 81c163 0 242 -123 242 -275c0 -140 -71 -270 -223 -270c-63 0 -138 22 -173 81h-2v-258h-114z" />
    <glyph glyph-name="ydieresis" unicode="&#xff;" horiz-adv-x="518" 
d="M199 2l-196 515h125l135 -386h2l131 386h119l-201 -545c-37 -93 -63 -177 -183 -177c-27 0 -53 2 -79 6v96c19 -3 35 -7 54 -7c52 0 67 28 80 72zM236 602h-114v108h114v-108zM294 710h114v-108h-114v108z" />
    <glyph glyph-name="Amacron" unicode="&#x100;" horiz-adv-x="666" 
d="M-8 0l274 714h133l275 -714h-134l-67 189h-285l-67 -189h-129zM330 591l-108 -307h218l-107 307h-3zM476 818h-288v65h288v-65z" />
    <glyph glyph-name="amacron" unicode="&#x101;" horiz-adv-x="552" 
d="M486 381v-266c0 -28 6 -39 27 -39h12c5 0 10 1 16 2v-79c-17 -6 -53 -13 -72 -13c-47 0 -79 16 -88 63c-45 -44 -118 -63 -179 -63c-93 0 -177 50 -177 151c0 129 103 150 199 161c83 16 155 5 155 73c0 60 -62 70 -107 70c-64 0 -109 -26 -114 -82h-114
c8 133 120 172 235 172c101 0 207 -41 207 -150zM372 174v85c-35 -23 -89 -22 -140 -31c-49 -8 -93 -26 -93 -86c0 -52 65 -66 105 -66c50 0 128 26 128 98zM418 624h-288v65h288v-65z" />
    <glyph glyph-name="Abreve" unicode="&#x102;" horiz-adv-x="666" 
d="M-8 0l274 714h133l275 -714h-134l-67 189h-285l-67 -189h-129zM330 591l-108 -307h218l-107 307h-3zM171 925h58c11 -56 54 -76 107 -76c51 0 90 25 101 76h57c-11 -95 -74 -141 -166 -141s-149 49 -157 141z" />
    <glyph glyph-name="abreve" unicode="&#x103;" horiz-adv-x="552" 
d="M486 381v-266c0 -28 6 -39 27 -39h12c5 0 10 1 16 2v-79c-17 -6 -53 -13 -72 -13c-47 0 -79 16 -88 63c-45 -44 -118 -63 -179 -63c-93 0 -177 50 -177 151c0 129 103 150 199 161c83 16 155 5 155 73c0 60 -62 70 -107 70c-64 0 -109 -26 -114 -82h-114
c8 133 120 172 235 172c101 0 207 -41 207 -150zM372 174v85c-35 -23 -89 -22 -140 -31c-49 -8 -93 -26 -93 -86c0 -52 65 -66 105 -66c50 0 128 26 128 98zM112 731h58c11 -56 54 -76 107 -76c51 0 90 25 101 76h57c-11 -95 -74 -141 -166 -141s-149 49 -157 141z" />
    <glyph glyph-name="Aogonek" unicode="&#x104;" horiz-adv-x="666" 
d="M674 0h-80c-75 -59 -94 -91 -94 -129c0 -27 19 -44 39 -44s35 7 52 34l41 -9c-16 -59 -65 -75 -105 -75c-19 0 -101 5 -101 90c0 20 2 66 114 133l-67 189h-285l-67 -189h-129l274 714h133zM330 591l-108 -307h218l-107 307h-3z" />
    <glyph glyph-name="aogonek" unicode="&#x105;" horiz-adv-x="552" 
d="M486 381v-266c0 -28 6 -39 27 -39h12c5 0 10 1 16 2v-79c-17 -6 -53 -13 -72 -13h-1c-11 -9 -20 -18 -29 -25c-37 -37 -47 -62 -47 -90c0 -27 19 -44 39 -44s35 7 52 34l41 -9c-16 -59 -65 -75 -105 -75c-19 0 -101 5 -101 90c0 16 1 44 49 87c13 13 32 26 55 40
c-4 2 -8 4 -11 6c-15 9 -25 26 -30 49c-45 -44 -118 -63 -179 -63c-93 0 -177 50 -177 151c0 129 103 150 199 161c83 16 155 5 155 73c0 60 -62 70 -107 70c-64 0 -109 -26 -114 -82h-114c8 133 120 172 235 172c101 0 207 -41 207 -150zM372 174v85
c-35 -23 -89 -22 -140 -31c-49 -8 -93 -26 -93 -86c0 -52 65 -66 105 -66c50 0 128 26 128 98z" />
    <glyph glyph-name="Cacute" unicode="&#x106;" horiz-adv-x="698" 
d="M675 487h-125c-21 83 -74 142 -178 142c-153 0 -217 -135 -217 -272s64 -272 217 -272c112 0 171 83 182 187h122c-11 -171 -131 -289 -304 -289c-213 0 -342 169 -342 374c0 203 129 374 342 374c162 0 287 -90 303 -244zM321 783l90 143h135l-142 -143h-83z" />
    <glyph glyph-name="cacute" unicode="&#x107;" horiz-adv-x="540" 
d="M518 344h-114c-9 64 -54 97 -118 97c-59 0 -142 -32 -142 -188c0 -86 38 -177 137 -177c67 0 112 43 123 118h114c-21 -135 -104 -208 -237 -208c-162 0 -251 115 -251 267c0 156 85 278 255 278c120 0 222 -60 233 -187zM236 589l90 143h135l-142 -143h-83z" />
    <glyph glyph-name="Ccircumflex" unicode="&#x108;" horiz-adv-x="698" 
d="M674 487h-125c-21 83 -74 142 -178 142c-153 0 -217 -135 -217 -272s64 -272 217 -272c112 0 171 83 182 187h122c-11 -171 -131 -289 -304 -289c-213 0 -342 169 -342 374c0 203 129 374 342 374c162 0 287 -90 303 -244zM372 873l-70 -90h-92l107 143h111l108 -143h-93
z" />
    <glyph glyph-name="ccircumflex" unicode="&#x109;" horiz-adv-x="539" 
d="M517 344h-114c-9 64 -54 97 -118 97c-59 0 -142 -32 -142 -188c0 -86 38 -177 137 -177c67 0 112 43 123 118h114c-21 -135 -104 -208 -237 -208c-162 0 -251 115 -251 267c0 156 85 278 255 278c120 0 222 -60 233 -187zM285 679l-70 -90h-92l107 143h111l108 -143h-93z
" />
    <glyph glyph-name="Cdotaccent" unicode="&#x10a;" horiz-adv-x="698" 
d="M674 487h-125c-21 83 -74 142 -178 142c-153 0 -217 -135 -217 -272s64 -272 217 -272c112 0 171 83 182 187h122c-11 -171 -131 -289 -304 -289c-213 0 -342 169 -342 374c0 203 129 374 342 374c162 0 287 -90 303 -244zM427 796h-114v108h114v-108z" />
    <glyph glyph-name="cdotaccent" unicode="&#x10b;" horiz-adv-x="539" 
d="M517 344h-114c-9 64 -54 97 -118 97c-59 0 -142 -32 -142 -188c0 -86 38 -177 137 -177c67 0 112 43 123 118h114c-21 -135 -104 -208 -237 -208c-162 0 -251 115 -251 267c0 156 85 278 255 278c120 0 222 -60 233 -187zM339 602h-114v108h114v-108z" />
    <glyph glyph-name="Ccaron" unicode="&#x10c;" horiz-adv-x="698" 
d="M674 487h-125c-21 83 -74 142 -178 142c-153 0 -217 -135 -217 -272s64 -272 217 -272c112 0 171 83 182 187h122c-11 -171 -131 -289 -304 -289c-213 0 -342 169 -342 374c0 203 129 374 342 374c162 0 287 -90 303 -244zM532 926l-108 -143h-111l-107 143h92l70 -89
l71 89h93z" />
    <glyph glyph-name="ccaron" unicode="&#x10d;" horiz-adv-x="539" 
d="M517 344h-114c-9 64 -54 97 -118 97c-59 0 -142 -32 -142 -188c0 -86 38 -177 137 -177c67 0 112 43 123 118h114c-21 -135 -104 -208 -237 -208c-162 0 -251 115 -251 267c0 156 85 278 255 278c120 0 222 -60 233 -187zM447 732l-108 -143h-111l-107 143h92l70 -89
l71 89h93z" />
    <glyph glyph-name="Dcaron" unicode="&#x10e;" horiz-adv-x="704" 
d="M61 0v714h296c220 0 315 -160 315 -357s-95 -357 -315 -357h-296zM186 612v-510h123c196 0 238 111 238 255s-42 255 -238 255h-123zM475 926l-108 -143h-111l-107 143h92l70 -89l71 89h93z" />
    <glyph glyph-name="dcaron" unicode="&#x10f;" horiz-adv-x="684" 
d="M545 714v-714h-108v70h-2c-31 -60 -95 -84 -160 -84c-163 0 -242 121 -242 276c0 188 111 269 224 269c64 0 137 -24 172 -81h2v264h114zM147 253c0 -89 44 -177 143 -177c101 0 145 93 145 183c0 115 -55 182 -143 182c-107 0 -145 -96 -145 -188zM594 571l32 143h125
l-81 -143h-76z" />
    <glyph glyph-name="Dcroat" unicode="&#x110;" horiz-adv-x="704" 
d="M186 612v-193h195v-102h-195v-215h123c196 0 238 111 238 255s-42 255 -238 255h-123zM61 0v317h-67v102h67v295h296c220 0 315 -160 315 -357s-95 -357 -315 -357h-296z" />
    <glyph glyph-name="dcroat" unicode="&#x111;" horiz-adv-x="617" 
d="M545 584v-584h-108v70h-2c-31 -60 -95 -84 -160 -84c-163 0 -242 121 -242 276c0 188 111 269 224 269c64 0 137 -24 172 -81h2v134h-153v65h153v65h114v-65h79v-65h-79zM147 253c0 -89 44 -177 143 -177c101 0 145 93 145 183c0 115 -55 182 -143 182
c-107 0 -145 -96 -145 -188z" />
    <glyph glyph-name="Emacron" unicode="&#x112;" horiz-adv-x="619" 
d="M62 0v714h514v-108h-389v-187h360v-102h-360v-209h396v-108h-521zM464 818h-288v65h288v-65z" />
    <glyph glyph-name="emacron" unicode="&#x113;" horiz-adv-x="550" 
d="M139 304h266c-5 72 -52 137 -130 137c-79 0 -133 -60 -136 -137zM519 229h-380c0 -81 44 -153 139 -153c67 0 106 29 126 86h108c-24 -113 -122 -176 -234 -176c-163 0 -253 112 -253 272c0 147 96 273 250 273c163 0 263 -147 244 -302zM419 624h-288v65h288v-65z" />
    <glyph glyph-name="Ebreve" unicode="&#x114;" horiz-adv-x="619" 
d="M62 0v714h514v-108h-389v-187h360v-102h-360v-209h396v-108h-521zM155 925h58c11 -56 54 -76 107 -76c51 0 90 25 101 76h57c-11 -95 -74 -141 -166 -141s-149 49 -157 141z" />
    <glyph glyph-name="ebreve" unicode="&#x115;" 
d="M140 304h266c-5 72 -52 137 -130 137c-79 0 -133 -60 -136 -137zM520 229h-380c0 -81 44 -153 139 -153c67 0 106 29 126 86h108c-24 -113 -122 -176 -234 -176c-163 0 -253 112 -253 272c0 147 96 273 250 273c163 0 263 -147 244 -302zM113 731h58
c11 -56 54 -76 107 -76c51 0 90 25 101 76h57c-11 -95 -74 -141 -166 -141s-149 49 -157 141z" />
    <glyph glyph-name="Edotaccent" unicode="&#x116;" horiz-adv-x="618" 
d="M61 0v714h514v-108h-389v-187h360v-102h-360v-209h396v-108h-521zM375 796h-114v108h114v-108z" />
    <glyph glyph-name="edotaccent" unicode="&#x117;" horiz-adv-x="550" 
d="M139 304h266c-5 72 -52 137 -130 137c-79 0 -133 -60 -136 -137zM519 229h-380c0 -81 44 -153 139 -153c67 0 106 29 126 86h108c-24 -113 -122 -176 -234 -176c-163 0 -253 112 -253 272c0 147 96 273 250 273c163 0 263 -147 244 -302zM334 602h-114v108h114v-108z" />
    <glyph glyph-name="Eogonek" unicode="&#x118;" horiz-adv-x="618" 
d="M582 0h-38c-75 -59 -94 -91 -94 -129c0 -27 19 -44 39 -44s35 7 52 34l41 -9c-16 -59 -65 -75 -105 -75c-19 0 -101 5 -101 90c0 20 2 66 114 133h-429v714h514v-108h-389v-187h360v-102h-360v-209h396v-108z" />
    <glyph glyph-name="eogonek" unicode="&#x119;" horiz-adv-x="550" 
d="M519 229h-380c0 -81 44 -153 139 -153c67 0 106 29 126 86h108c-18 -84 -77 -142 -154 -164c-11 -3 -23 -6 -35 -8c-13 -11 -24 -20 -33 -29c-37 -37 -47 -62 -47 -90c0 -27 19 -44 39 -44s35 7 52 34l41 -9c-16 -59 -65 -75 -105 -75c-19 0 -101 5 -101 90
c0 16 1 44 49 87c11 10 25 21 42 33c-33 1 -63 8 -90 19c-94 40 -145 131 -145 252c0 147 96 273 250 273c163 0 263 -147 244 -302zM139 304h266c-5 72 -52 137 -130 137c-79 0 -133 -60 -136 -137z" />
    <glyph glyph-name="Ecaron" unicode="&#x11a;" horiz-adv-x="618" 
d="M61 0v714h514v-108h-389v-187h360v-102h-360v-209h396v-108h-521zM480 926l-108 -143h-111l-107 143h92l70 -89l71 89h93z" />
    <glyph glyph-name="ecaron" unicode="&#x11b;" horiz-adv-x="550" 
d="M139 304h266c-5 72 -52 137 -130 137c-79 0 -133 -60 -136 -137zM519 229h-380c0 -81 44 -153 139 -153c67 0 106 29 126 86h108c-24 -113 -122 -176 -234 -176c-163 0 -253 112 -253 272c0 147 96 273 250 273c163 0 263 -147 244 -302zM436 732l-108 -143h-111
l-107 143h92l70 -89l71 89h93z" />
    <glyph glyph-name="Gcircumflex" unicode="&#x11c;" horiz-adv-x="731" 
d="M685 376v-376h-80l-19 84c-67 -76 -128 -101 -215 -101c-213 0 -342 169 -342 374c0 203 129 374 342 374c155 0 287 -83 306 -244h-122c-13 93 -93 142 -184 142c-153 0 -217 -135 -217 -272s64 -272 217 -272c129 -3 197 75 200 196h-190v95h304zM374 873l-70 -90h-92
l107 143h111l108 -143h-93z" />
    <glyph glyph-name="gcircumflex" unicode="&#x11d;" horiz-adv-x="580" 
d="M530 517v-490c0 -156 -90 -232 -254 -232c-104 0 -220 40 -231 161h114c14 -65 66 -76 124 -76c92 0 133 47 133 132v79h-2c-32 -57 -91 -91 -155 -91c-164 0 -232 124 -232 272c0 139 87 259 234 259c65 0 124 -26 153 -85h2v71h114zM277 90c101 0 139 91 139 180
s-40 171 -139 171c-101 0 -136 -94 -136 -180c0 -84 41 -171 136 -171zM295 679l-70 -90h-92l107 143h111l108 -143h-93z" />
    <glyph glyph-name="Gbreve" unicode="&#x11e;" horiz-adv-x="731" 
d="M685 376v-376h-80l-19 84c-67 -76 -128 -101 -215 -101c-213 0 -342 169 -342 374c0 203 129 374 342 374c155 0 287 -83 306 -244h-122c-13 93 -93 142 -184 142c-153 0 -217 -135 -217 -272s64 -272 217 -272c129 -3 197 75 200 196h-190v95h304zM214 925h58
c11 -56 54 -76 107 -76c51 0 90 25 101 76h57c-11 -95 -74 -141 -166 -141s-149 49 -157 141z" />
    <glyph glyph-name="gbreve" unicode="&#x11f;" horiz-adv-x="580" 
d="M531 517v-490c0 -156 -90 -232 -254 -232c-104 0 -220 40 -231 161h114c14 -65 66 -76 124 -76c92 0 133 47 133 132v79h-2c-32 -57 -91 -91 -155 -91c-164 0 -232 124 -232 272c0 139 87 259 234 259c65 0 124 -26 153 -85h2v71h114zM278 90c101 0 139 91 139 180
s-40 171 -139 171c-101 0 -136 -94 -136 -180c0 -84 41 -171 136 -171zM125 731h58c11 -56 54 -76 107 -76c51 0 90 25 101 76h57c-11 -95 -74 -141 -166 -141s-149 49 -157 141z" />
    <glyph glyph-name="Gdotaccent" unicode="&#x120;" horiz-adv-x="731" 
d="M685 376v-376h-80l-19 84c-67 -76 -128 -101 -215 -101c-213 0 -342 169 -342 374c0 203 129 374 342 374c155 0 287 -83 306 -244h-122c-13 93 -93 142 -184 142c-153 0 -217 -135 -217 -272s64 -272 217 -272c129 -3 197 75 200 196h-190v95h304zM429 796h-114v108h114
v-108z" />
    <glyph glyph-name="gdotaccent" unicode="&#x121;" horiz-adv-x="580" 
d="M530 517v-490c0 -156 -90 -232 -254 -232c-104 0 -220 40 -231 161h114c14 -65 66 -76 124 -76c92 0 133 47 133 132v79h-2c-32 -57 -91 -91 -155 -91c-164 0 -232 124 -232 272c0 139 87 259 234 259c65 0 124 -26 153 -85h2v71h114zM277 90c101 0 139 91 139 180
s-40 171 -139 171c-101 0 -136 -94 -136 -180c0 -84 41 -171 136 -171zM343 602h-114v108h114v-108z" />
    <glyph glyph-name="Gcommaaccent" unicode="&#x122;" horiz-adv-x="731" 
d="M685 376v-376h-80l-19 84c-67 -76 -128 -101 -215 -101c-213 0 -342 169 -342 374c0 203 129 374 342 374c155 0 287 -83 306 -244h-122c-13 93 -93 142 -184 142c-153 0 -217 -135 -217 -272s64 -272 217 -272c129 -3 197 75 200 196h-190v95h304zM306 -149v99h131v-89
c0 -42 -22 -80 -116 -84v38c28 4 41 13 45 36h-60z" />
    <glyph glyph-name="gcommaaccent" unicode="&#x123;" horiz-adv-x="580" 
d="M530 517v-490c0 -156 -90 -232 -254 -232c-104 0 -220 40 -231 161h114c14 -65 66 -76 124 -76c92 0 133 47 133 132v79h-2c-32 -57 -91 -91 -155 -91c-164 0 -232 124 -232 272c0 139 87 259 234 259c65 0 124 -26 153 -85h2v71h114zM277 90c101 0 139 91 139 180
s-40 171 -139 171c-101 0 -136 -94 -136 -180c0 -84 41 -171 136 -171zM353 714v-99h-131v89c0 42 22 80 116 84v-38c-28 -4 -41 -13 -45 -36h60z" />
    <glyph glyph-name="Hcircumflex" unicode="&#x124;" horiz-adv-x="698" 
d="M61 0v714h125v-284h325v284h125v-714h-125v322h-325v-322h-125zM350 873l-70 -90h-92l107 143h111l108 -143h-93z" />
    <glyph glyph-name="hcircumflex" unicode="&#x125;" 
d="M48 0v714h114v-265h2c28 47 87 82 155 82c113 0 183 -59 183 -176v-355h-114v325c-3 81 -33 116 -101 116c-76 0 -125 -60 -125 -136v-305h-114zM274 873l-70 -90h-92l107 143h111l108 -143h-93z" />
    <glyph glyph-name="Hbar" unicode="&#x126;" horiz-adv-x="698" 
d="M61 0v714h125v-172h325v172h125v-714h-125v297h-325v-297h-125zM186 405h325v72h-325v-72z" />
    <glyph glyph-name="hbar" unicode="&#x127;" horiz-adv-x="569" 
d="M66 649v65h114v-65h126v-65h-126v-135h2c28 47 87 82 155 82c113 0 183 -59 183 -176v-355h-114v325c-3 81 -33 116 -101 116c-76 0 -125 -60 -125 -136v-305h-114v584h-76v65h76z" />
    <glyph glyph-name="Itilde" unicode="&#x128;" horiz-adv-x="258" 
d="M68 0v714h125v-714h-125zM252 914h56c-5 -32 -14 -61 -33 -81c-17 -21 -42 -34 -78 -34c-23 0 -49 8 -74 19c-31 13 -45 18 -68 18c-24 0 -38 -14 -43 -41h-57c8 51 43 113 104 113c25 0 40 -3 81 -20c28 -12 43 -18 62 -18c29 0 43 17 50 44z" />
    <glyph glyph-name="itilde" unicode="&#x129;" horiz-adv-x="224" 
d="M168 0h-114v517h114v-517zM233 720h56c-5 -32 -14 -61 -33 -81c-17 -21 -42 -34 -78 -34c-23 0 -49 8 -74 19c-31 13 -45 18 -68 18c-24 0 -38 -14 -43 -41h-57c8 51 43 113 104 113c25 0 40 -3 81 -20c28 -12 43 -18 62 -18c29 0 43 17 50 44z" />
    <glyph glyph-name="Imacron" unicode="&#x12a;" horiz-adv-x="185" 
d="M32 0v714h125v-714h-125zM238 818h-288v65h288v-65z" />
    <glyph glyph-name="imacron" unicode="&#x12b;" horiz-adv-x="149" 
d="M134 0h-114v517h114v-517zM220 624h-288v65h288v-65z" />
    <glyph glyph-name="Iogonek" unicode="&#x12e;" horiz-adv-x="239" 
d="M173 714v-714c-67 -59 -84 -91 -84 -129c0 -27 16 -44 35 -44c17 0 31 7 47 34l37 -9c-16 -59 -59 -75 -95 -75c-16 0 -91 5 -91 90c0 20 3 67 103 133h-77v714h125z" />
    <glyph glyph-name="iogonek" unicode="&#x12f;" horiz-adv-x="205" 
d="M156 0h-1c-68 -60 -85 -91 -85 -129c0 -27 18 -44 35 -44c19 0 32 7 47 34l37 -9c-13 -59 -59 -75 -94 -75c-18 0 -92 5 -92 90c0 20 3 67 103 133h-64v517h114v-517zM42 606v108h114v-108h-114z" />
    <glyph glyph-name="Idotaccent" unicode="&#x130;" horiz-adv-x="252" 
d="M63 0v714h125v-714h-125zM183 796h-114v108h114v-108z" />
    <glyph glyph-name="dotlessi" unicode="&#x131;" horiz-adv-x="218" 
d="M166 0h-114v517h114v-517z" />
    <glyph glyph-name="Jcircumflex" unicode="&#x134;" horiz-adv-x="517" 
d="M462 714v-484c0 -124 -30 -247 -235 -247c-151 0 -213 98 -213 229v38h125v-37c0 -81 22 -128 98 -128c81 0 100 49 100 138v491h125zM394 873l-70 -90h-92l107 143h111l108 -143h-93z" />
    <glyph glyph-name="jcircumflex" unicode="&#x135;" horiz-adv-x="226" 
d="M53 -39v556h114v-561c0 -103 -41 -161 -148 -161c-23 0 -36 1 -51 4v90c15 -3 28 -4 39 -4c41 0 46 25 46 76zM109 679l-70 -90h-92l107 143h111l108 -143h-93z" />
    <glyph glyph-name="Kcommaaccent" unicode="&#x136;" horiz-adv-x="672" 
d="M61 0v714h125v-325l318 325h154l-285 -285l305 -429h-156l-234 341l-102 -101v-240h-125zM261 -149v99h131v-89c0 -42 -22 -80 -116 -84v38c28 4 41 13 45 36h-60z" />
    <glyph glyph-name="kcommaaccent" unicode="&#x137;" horiz-adv-x="527" 
d="M57 0v714h114v-406l206 209h140l-198 -190l217 -327h-139l-158 251l-68 -66v-185h-114zM208 -149v99h131v-89c0 -42 -22 -80 -116 -84v38c28 4 41 13 45 36h-60z" />
    <glyph glyph-name="Lacute" unicode="&#x139;" horiz-adv-x="573" 
d="M62 0v714h125v-606h363v-108h-488zM82 783l90 143h135l-142 -143h-83z" />
    <glyph glyph-name="lacute" unicode="&#x13a;" horiz-adv-x="214" 
d="M52 0v714h114v-714h-114zM52 783l90 143h135l-142 -143h-83z" />
    <glyph glyph-name="Lcommaaccent" unicode="&#x13b;" horiz-adv-x="572" 
d="M61 0v714h125v-606h363v-108h-488zM241 -149v99h131v-89c0 -42 -22 -80 -116 -84v38c28 4 41 13 45 36h-60z" />
    <glyph glyph-name="lcommaaccent" unicode="&#x13c;" horiz-adv-x="224" 
d="M55 0v714h114v-714h-114zM46 -149v99h131v-89c0 -42 -22 -80 -116 -84v38c28 4 41 13 45 36h-60z" />
    <glyph glyph-name="Lcaron" unicode="&#x13d;" horiz-adv-x="573" 
d="M62 0v714h125v-606h363v-108h-488zM282 571l32 143h125l-81 -143h-76z" />
    <glyph glyph-name="lcaron" unicode="&#x13e;" horiz-adv-x="306" 
d="M52 0v714h114v-714h-114zM217 571l32 143h125l-81 -143h-76z" />
    <glyph glyph-name="Ldot" unicode="&#x13f;" horiz-adv-x="572" 
d="M61 0v714h125v-606h363v-108h-488zM421 409h-114v108h114v-108z" />
    <glyph glyph-name="ldot" unicode="&#x140;" horiz-adv-x="364" 
d="M52 0v714h114v-714h-114zM334 409h-114v108h114v-108z" />
    <glyph glyph-name="Lslash" unicode="&#x141;" horiz-adv-x="569" 
d="M58 317v397h125v-306l200 142v-93l-200 -142v-207h363v-108h-488v227l-76 -54v90z" />
    <glyph glyph-name="lslash" unicode="&#x142;" horiz-adv-x="221" 
d="M54 0v319l-68 -53v71l68 53v324h114v-235l68 54v-72l-68 -54v-407h-114z" />
    <glyph glyph-name="Nacute" unicode="&#x143;" horiz-adv-x="701" 
d="M61 0v714h132l326 -526h2v526h119v-714h-132l-325 525h-3v-525h-119zM299 783l90 143h135l-142 -143h-83z" />
    <glyph glyph-name="nacute" unicode="&#x144;" 
d="M49 0v517h108v-76l2 -2c35 57 93 92 161 92c113 0 183 -59 183 -176v-355h-114v325c-3 81 -33 116 -101 116c-76 0 -125 -60 -125 -136v-305h-114zM219 589l90 143h135l-142 -143h-83z" />
    <glyph glyph-name="Ncommaaccent" unicode="&#x145;" horiz-adv-x="701" 
d="M61 0v714h132l326 -526h2v526h119v-714h-132l-325 525h-3v-525h-119zM275 -149v99h131v-89c0 -42 -22 -80 -116 -84v38c28 4 41 13 45 36h-60z" />
    <glyph glyph-name="ncommaaccent" unicode="&#x146;" 
d="M48 0v517h108v-76l2 -2c35 57 93 92 161 92c113 0 183 -59 183 -176v-355h-114v325c-3 81 -33 116 -101 116c-76 0 -125 -60 -125 -136v-305h-114zM208 -149v99h131v-89c0 -42 -22 -80 -116 -84v38c28 4 41 13 45 36h-60z" />
    <glyph glyph-name="Ncaron" unicode="&#x147;" horiz-adv-x="701" 
d="M61 0v714h132l326 -526h2v526h119v-714h-132l-325 525h-3v-525h-119zM511 926l-108 -143h-111l-107 143h92l70 -89l71 89h93z" />
    <glyph glyph-name="ncaron" unicode="&#x148;" 
d="M48 0v517h108v-76l2 -2c35 57 93 92 161 92c113 0 183 -59 183 -176v-355h-114v325c-3 81 -33 116 -101 116c-76 0 -125 -60 -125 -136v-305h-114zM440 732l-108 -143h-111l-107 143h92l70 -89l71 89h93z" />
    <glyph glyph-name="Omacron" unicode="&#x14c;" horiz-adv-x="740" 
d="M370 629c-153 0 -217 -135 -217 -272s64 -272 217 -272s217 135 217 272s-64 272 -217 272zM370 731c213 0 342 -171 342 -374c0 -205 -129 -374 -342 -374s-342 169 -342 374c0 203 129 374 342 374zM517 818h-288v65h288v-65z" />
    <glyph glyph-name="omacron" unicode="&#x14d;" horiz-adv-x="577" 
d="M288 -14c-165 0 -261 114 -261 273c0 157 96 272 261 272s261 -115 261 -272c0 -159 -96 -273 -261 -273zM288 76c102 0 147 93 147 183c0 89 -45 182 -147 182s-147 -93 -147 -182c0 -90 45 -183 147 -183zM435 624h-288v65h288v-65z" />
    <glyph glyph-name="Obreve" unicode="&#x14e;" horiz-adv-x="740" 
d="M370 629c-153 0 -217 -135 -217 -272s64 -272 217 -272s217 135 217 272s-64 272 -217 272zM370 731c213 0 342 -171 342 -374c0 -205 -129 -374 -342 -374s-342 169 -342 374c0 203 129 374 342 374zM207 925h58c11 -56 54 -76 107 -76c51 0 90 25 101 76h57
c-11 -95 -74 -141 -166 -141s-149 49 -157 141z" />
    <glyph glyph-name="obreve" unicode="&#x14f;" horiz-adv-x="578" 
d="M289 -14c-165 0 -261 114 -261 273c0 157 96 272 261 272s261 -115 261 -272c0 -159 -96 -273 -261 -273zM289 76c102 0 147 93 147 183c0 89 -45 182 -147 182s-147 -93 -147 -182c0 -90 45 -183 147 -183zM129 731h58c11 -56 54 -76 107 -76c51 0 90 25 101 76h57
c-11 -95 -74 -141 -166 -141s-149 49 -157 141z" />
    <glyph glyph-name="Ohungarumlaut" unicode="&#x150;" horiz-adv-x="740" 
d="M370 629c-153 0 -217 -135 -217 -272s64 -272 217 -272s217 135 217 272s-64 272 -217 272zM370 731c213 0 342 -171 342 -374c0 -205 -129 -374 -342 -374s-342 169 -342 374c0 203 129 374 342 374zM425 783l90 143h136l-144 -143h-82zM226 783l90 143h136l-144 -143
h-82z" />
    <glyph glyph-name="ohungarumlaut" unicode="&#x151;" horiz-adv-x="578" 
d="M288 -14c-165 0 -261 114 -261 273c0 157 96 272 261 272s261 -115 261 -272c0 -159 -96 -273 -261 -273zM288 76c102 0 147 93 147 183c0 89 -45 182 -147 182s-147 -93 -147 -182c0 -90 45 -183 147 -183zM339 589l90 143h136l-144 -143h-82zM140 589l90 143h136
l-144 -143h-82z" />
    <glyph glyph-name="OE" unicode="&#x152;" horiz-adv-x="1070" 
d="M659 606v-187h343v-102h-343v-209h381v-108h-495v64c-48 -56 -116 -81 -188 -81c-212 0 -328 173 -328 371c0 201 123 377 336 377c72 0 131 -18 180 -74v57h488v-108h-374zM540 219v266c0 75 -56 144 -171 144c-151 0 -215 -140 -215 -273s64 -271 215 -271
c109 0 171 74 171 134z" />
    <glyph glyph-name="oe" unicode="&#x153;" horiz-adv-x="901" 
d="M274 441c-97 0 -132 -96 -132 -179c0 -90 28 -186 132 -186s132 96 132 186c0 83 -35 179 -132 179zM628 441c-77 0 -127 -64 -130 -137h264c-5 84 -46 137 -134 137zM876 229h-378c0 -85 44 -153 135 -153c56 0 112 29 123 88h114c-28 -117 -116 -178 -235 -178
c-77 0 -148 21 -185 95c-39 -73 -105 -95 -184 -95c-160 0 -238 126 -238 274s90 271 247 271c72 0 144 -21 181 -87c39 61 110 87 181 87c180 0 239 -141 239 -302z" />
    <glyph glyph-name="Racute" unicode="&#x154;" horiz-adv-x="687" 
d="M62 0v714h341c157 0 236 -72 236 -193c0 -137 -94 -172 -118 -180v-2c43 -5 106 -39 106 -151c0 -84 12 -159 39 -188h-134c-19 31 -19 70 -19 105c0 131 -27 189 -142 189h-184v-294h-125zM187 612v-223h205c80 0 122 38 122 114c0 92 -59 109 -124 109h-203zM272 783
l90 143h135l-142 -143h-83z" />
    <glyph glyph-name="racute" unicode="&#x155;" horiz-adv-x="347" 
d="M49 0v517h107v-100h2c13 55 82 114 151 114c27 0 32 -2 43 -3v-110c-16 3 -33 5 -49 5c-77 0 -140 -62 -140 -177v-246h-114zM71 589l90 143h135l-142 -143h-83z" />
    <glyph glyph-name="Rcommaaccent" unicode="&#x156;" horiz-adv-x="687" 
d="M61 0v714h341c157 0 236 -72 236 -193c0 -137 -94 -172 -118 -180v-2c43 -5 106 -39 106 -151c0 -84 12 -159 39 -188h-134c-19 31 -19 70 -19 105c0 131 -27 189 -142 189h-184v-294h-125zM186 612v-223h205c80 0 122 38 122 114c0 92 -59 109 -124 109h-203zM274 -149
v99h131v-89c0 -42 -22 -80 -116 -84v38c28 4 41 13 45 36h-60z" />
    <glyph glyph-name="rcommaaccent" unicode="&#x157;" horiz-adv-x="353" 
d="M55 0v517h107v-100h2c13 55 82 114 151 114c27 0 32 -2 43 -3v-110c-16 3 -33 5 -49 5c-77 0 -140 -62 -140 -177v-246h-114zM46 -149v99h131v-89c0 -42 -22 -80 -116 -84v38c28 4 41 13 45 36h-60z" />
    <glyph glyph-name="Rcaron" unicode="&#x158;" horiz-adv-x="687" 
d="M61 0v714h341c157 0 236 -72 236 -193c0 -137 -94 -172 -118 -180v-2c43 -5 106 -39 106 -151c0 -84 12 -159 39 -188h-134c-19 31 -19 70 -19 105c0 131 -27 189 -142 189h-184v-294h-125zM186 612v-223h205c80 0 122 38 122 114c0 92 -59 109 -124 109h-203zM484 926
l-108 -143h-111l-107 143h92l70 -89l71 89h93z" />
    <glyph glyph-name="rcaron" unicode="&#x159;" horiz-adv-x="344" 
d="M41 0v517h107v-100h2c13 55 82 114 151 114c27 0 32 -2 43 -3v-110c-16 3 -33 5 -49 5c-77 0 -140 -62 -140 -177v-246h-114zM355 732l-108 -143h-111l-107 143h92l70 -89l71 89h93z" />
    <glyph glyph-name="Sacute" unicode="&#x15a;" horiz-adv-x="622" 
d="M19 238h125c0 -109 81 -153 181 -153c110 0 151 55 151 108c0 55 -30 77 -59 88c-51 19 -114 32 -213 59c-123 32 -158 107 -158 181c0 144 132 210 261 210c148 0 274 -79 274 -228h-125c-7 92 -67 126 -154 126c-58 0 -131 -21 -131 -93c0 -51 34 -77 85 -92
c11 -3 169 -44 206 -55c93 -29 139 -106 139 -182c0 -160 -143 -224 -284 -224c-163 0 -295 78 -298 255zM262 783l90 143h135l-142 -143h-83z" />
    <glyph glyph-name="sacute" unicode="&#x15b;" horiz-adv-x="505" 
d="M22 166h114c7 -67 56 -90 117 -90c44 0 118 9 115 68c-3 60 -86 67 -169 86c-84 18 -166 48 -166 153c0 113 122 148 216 148c106 0 203 -43 216 -159h-119c-11 55 -54 69 -105 69c-33 0 -94 -8 -94 -53c0 -56 84 -65 168 -83c83 -19 167 -49 167 -151
c0 -123 -124 -168 -231 -168c-131 0 -226 58 -229 180zM182 589l90 143h135l-142 -143h-83z" />
    <glyph glyph-name="Scircumflex" unicode="&#x15c;" horiz-adv-x="622" 
d="M19 238h125c0 -109 81 -153 181 -153c110 0 151 55 151 108c0 55 -30 77 -59 88c-51 19 -114 32 -213 59c-123 32 -158 107 -158 181c0 144 132 210 261 210c148 0 274 -79 274 -228h-125c-7 92 -67 126 -154 126c-58 0 -131 -21 -131 -93c0 -51 34 -77 85 -92
c11 -3 169 -44 206 -55c93 -29 139 -106 139 -182c0 -160 -143 -224 -284 -224c-163 0 -295 78 -298 255zM316 873l-70 -90h-92l107 143h111l108 -143h-93z" />
    <glyph glyph-name="scircumflex" unicode="&#x15d;" horiz-adv-x="505" 
d="M22 166h114c7 -67 56 -90 117 -90c44 0 118 9 115 68c-3 60 -86 67 -169 86c-84 18 -166 48 -166 153c0 113 122 148 216 148c106 0 203 -43 216 -159h-119c-11 55 -54 69 -105 69c-33 0 -94 -8 -94 -53c0 -56 84 -65 168 -83c83 -19 167 -49 167 -151
c0 -123 -124 -168 -231 -168c-131 0 -226 58 -229 180zM256 679l-70 -90h-92l107 143h111l108 -143h-93z" />
    <glyph glyph-name="Scedilla" unicode="&#x15e;" horiz-adv-x="622" 
d="M186 -200l18 40c24 -11 42 -16 65 -16c28 0 61 6 61 41c0 25 -23 38 -46 38c-15 0 -28 -3 -39 -10l-22 19l54 73c-26 2 -51 6 -75 13c-106 29 -181 108 -183 240h125c0 -109 81 -153 181 -153c110 0 151 55 151 108c0 55 -30 77 -59 88c-51 19 -114 32 -213 59
c-123 32 -158 107 -158 181c0 144 132 210 261 210c148 0 274 -79 274 -228h-125c-7 92 -67 126 -154 126c-58 0 -131 -21 -131 -93c0 -51 34 -77 85 -92c11 -3 169 -44 206 -55c93 -29 139 -106 139 -182c0 -119 -80 -188 -180 -211c-32 -8 -65 -12 -98 -13l-32 -42l1 -1
c8 3 18 4 33 4c39 0 85 -24 85 -75c0 -67 -63 -92 -121 -92c-37 0 -74 7 -103 23z" />
    <glyph glyph-name="scedilla" unicode="&#x15f;" horiz-adv-x="505" 
d="M128 -200l18 40c24 -11 42 -16 65 -16c28 0 61 6 61 41c0 25 -23 38 -46 38c-15 0 -28 -3 -39 -10l-22 19l56 75c-21 2 -42 5 -61 10c-82 22 -136 78 -138 169h114c7 -67 56 -90 117 -90c44 0 118 9 115 68c-3 60 -86 67 -169 86c-84 18 -166 48 -166 153
c0 113 122 148 216 148c106 0 203 -43 216 -159h-119c-11 55 -54 69 -105 69c-33 0 -94 -8 -94 -53c0 -56 84 -65 168 -83c83 -19 167 -49 167 -151c0 -91 -70 -141 -150 -159c-21 -5 -43 -7 -64 -8l-35 -46l1 -1c8 3 18 4 33 4c39 0 85 -24 85 -75c0 -67 -63 -92 -121 -92
c-37 0 -74 7 -103 23z" />
    <glyph glyph-name="Scaron" unicode="&#x160;" horiz-adv-x="622" 
d="M19 238h125c0 -109 81 -153 181 -153c110 0 151 55 151 108c0 55 -30 77 -59 88c-51 19 -114 32 -213 59c-123 32 -158 107 -158 181c0 144 132 210 261 210c148 0 274 -79 274 -228h-125c-7 92 -67 126 -154 126c-58 0 -131 -21 -131 -93c0 -51 34 -77 85 -92
c11 -3 169 -44 206 -55c93 -29 139 -106 139 -182c0 -160 -143 -224 -284 -224c-163 0 -295 78 -298 255zM477 926l-108 -143h-111l-107 143h92l70 -89l71 89h93z" />
    <glyph glyph-name="scaron" unicode="&#x161;" horiz-adv-x="505" 
d="M22 166h114c7 -67 56 -90 117 -90c44 0 118 9 115 68c-3 60 -86 67 -169 86c-84 18 -166 48 -166 153c0 113 122 148 216 148c106 0 203 -43 216 -159h-119c-11 55 -54 69 -105 69c-33 0 -94 -8 -94 -53c0 -56 84 -65 168 -83c83 -19 167 -49 167 -151
c0 -123 -124 -168 -231 -168c-131 0 -226 58 -229 180zM417 732l-108 -143h-111l-107 143h92l70 -89l71 89h93z" />
    <glyph glyph-name="Tcommaaccent" unicode="&#x162;" horiz-adv-x="611" 
d="M16 606v108h578v-108h-227v-606h-125v606h-226zM238 -149v99h131v-89c0 -42 -22 -80 -116 -84v38c28 4 41 13 45 36h-60z" />
    <glyph glyph-name="tcommaaccent" unicode="&#x163;" horiz-adv-x="316" 
d="M0 432v85h86v155h114v-155h103v-85h-103v-276c0 -47 4 -71 55 -71c16 0 32 0 48 4v-88c-25 -3 -49 -6 -74 -6c-120 0 -140 46 -143 132v305h-86zM131 -149v99h131v-89c0 -42 -22 -80 -116 -84v38c28 4 41 13 45 36h-60z" />
    <glyph glyph-name="Tcaron" unicode="&#x164;" horiz-adv-x="611" 
d="M16 606v108h578v-108h-227v-606h-125v606h-226zM469 926l-108 -143h-111l-107 143h92l70 -89l71 89h93z" />
    <glyph glyph-name="tcaron" unicode="&#x165;" horiz-adv-x="382" 
d="M292 571l32 143h125l-81 -143h-76zM0 432v85h86v155h114v-155h103v-85h-103v-276c0 -47 4 -71 55 -71c16 0 32 0 48 4v-88c-25 -3 -49 -6 -74 -6c-120 0 -140 46 -143 132v305h-86z" />
    <glyph glyph-name="Tbar" unicode="&#x166;" horiz-adv-x="611" 
d="M16 606v108h578v-108h-227v-138h164v-65h-164v-403h-125v403h-159v65h159v138h-226z" />
    <glyph glyph-name="tbar" unicode="&#x167;" horiz-adv-x="311" 
d="M-5 432v85h86v155h114v-155h103v-85h-103v-86h112v-65h-112v-125c0 -47 4 -71 55 -71c16 0 32 0 48 4v-88c-25 -3 -49 -6 -74 -6c-120 0 -140 46 -143 132v154h-94v65h94v86h-86z" />
    <glyph glyph-name="Utilde" unicode="&#x168;" horiz-adv-x="701" 
d="M57 257v457h125v-416c0 -96 6 -207 168 -207s168 111 168 207v416h125v-457c0 -183 -117 -274 -293 -274s-293 91 -293 274zM473 914h56c-5 -32 -14 -61 -33 -81c-17 -21 -42 -34 -78 -34c-23 0 -49 8 -74 19c-31 13 -45 18 -68 18c-24 0 -38 -14 -43 -41h-57
c8 51 43 113 104 113c25 0 40 -3 81 -20c28 -12 43 -18 62 -18c29 0 43 17 50 44z" />
    <glyph glyph-name="utilde" unicode="&#x169;" 
d="M502 517v-517h-112v72h-2c-28 -52 -90 -86 -147 -86c-136 0 -193 67 -193 203v328h114v-317c0 -91 36 -124 99 -124c95 0 127 61 127 141v300h114zM397 720h56c-5 -32 -14 -61 -33 -81c-17 -21 -42 -34 -78 -34c-23 0 -49 8 -74 19c-31 13 -45 18 -68 18
c-24 0 -38 -14 -43 -41h-57c8 51 43 113 104 113c25 0 40 -3 81 -20c28 -12 43 -18 62 -18c29 0 43 17 50 44z" />
    <glyph glyph-name="Umacron" unicode="&#x16a;" horiz-adv-x="701" 
d="M57 257v457h125v-416c0 -96 6 -207 168 -207s168 111 168 207v416h125v-457c0 -183 -117 -274 -293 -274s-293 91 -293 274zM495 818h-288v65h288v-65z" />
    <glyph glyph-name="umacron" unicode="&#x16b;" 
d="M502 517v-517h-112v72h-2c-28 -52 -90 -86 -147 -86c-136 0 -193 67 -193 203v328h114v-317c0 -91 36 -124 99 -124c95 0 127 61 127 141v300h114zM424 624h-288v65h288v-65z" />
    <glyph glyph-name="Ubreve" unicode="&#x16c;" horiz-adv-x="701" 
d="M57 257v457h125v-416c0 -96 6 -207 168 -207s168 111 168 207v416h125v-457c0 -183 -117 -274 -293 -274s-293 91 -293 274zM190 925h58c11 -56 54 -76 107 -76c51 0 90 25 101 76h57c-11 -95 -74 -141 -166 -141s-149 49 -157 141z" />
    <glyph glyph-name="ubreve" unicode="&#x16d;" 
d="M503 517v-517h-112v72h-2c-28 -52 -90 -86 -147 -86c-136 0 -193 67 -193 203v328h114v-317c0 -91 36 -124 99 -124c95 0 127 61 127 141v300h114zM120 731h58c11 -56 54 -76 107 -76c51 0 90 25 101 76h57c-11 -95 -74 -141 -166 -141s-149 49 -157 141z" />
    <glyph glyph-name="Uring" unicode="&#x16e;" horiz-adv-x="701" 
d="M57 257v457h125v-416c0 -96 6 -207 168 -207s168 111 168 207v416h125v-457c0 -183 -117 -274 -293 -274s-293 91 -293 274zM292 854c0 -35 27 -61 60 -61c35 0 60 26 60 61c0 36 -25 61 -60 61c-33 0 -60 -25 -60 -61zM352 751c-57 0 -104 42 -104 103
c0 62 49 103 104 103c56 0 104 -41 104 -103c0 -61 -48 -103 -104 -103z" />
    <glyph glyph-name="uring" unicode="&#x16f;" 
d="M503 517v-517h-112v72h-2c-28 -52 -90 -86 -147 -86c-136 0 -193 67 -193 203v328h114v-317c0 -91 36 -124 99 -124c95 0 127 61 127 141v300h114zM221 674c0 -35 27 -61 60 -61c35 0 60 26 60 61c0 36 -25 61 -60 61c-33 0 -60 -25 -60 -61zM281 571
c-57 0 -104 42 -104 103c0 62 49 103 104 103c56 0 104 -41 104 -103c0 -61 -48 -103 -104 -103z" />
    <glyph glyph-name="Uhungarumlaut" unicode="&#x170;" horiz-adv-x="701" 
d="M57 257v457h125v-416c0 -96 6 -207 168 -207s168 111 168 207v416h125v-457c0 -183 -117 -274 -293 -274s-293 91 -293 274zM408 783l90 143h136l-144 -143h-82zM209 783l90 143h136l-144 -143h-82z" />
    <glyph glyph-name="uhungarumlaut" unicode="&#x171;" horiz-adv-x="564" 
d="M502 517v-517h-112v72h-2c-28 -52 -90 -86 -147 -86c-136 0 -193 67 -193 203v328h114v-317c0 -91 36 -124 99 -124c95 0 127 61 127 141v300h114zM332 589l90 143h136l-144 -143h-82zM133 589l90 143h136l-144 -143h-82z" />
    <glyph glyph-name="Uogonek" unicode="&#x172;" horiz-adv-x="701" 
d="M57 257v457h125v-416c0 -96 6 -207 168 -207s168 111 168 207v416h125v-457c0 -137 -66 -223 -173 -257c-25 -8 -52 -13 -81 -15c-10 -9 -19 -17 -27 -24c-37 -37 -47 -62 -47 -90c0 -27 19 -44 39 -44s35 7 52 34l41 -9c-16 -59 -65 -75 -105 -75c-19 0 -101 5 -101 90
c0 16 1 44 49 87c10 9 23 19 38 30c-35 1 -68 7 -98 16c-107 34 -173 120 -173 257z" />
    <glyph glyph-name="uogonek" unicode="&#x173;" 
d="M502 0h-61c-71 -60 -89 -90 -89 -129c0 -27 18 -44 37 -44s33 7 49 34l39 -9c-13 -59 -63 -75 -99 -75c-18 0 -96 5 -96 90c0 21 1 66 108 133v72h-2c-28 -52 -90 -86 -147 -86c-136 0 -193 67 -193 203v328h114v-317c0 -91 36 -124 99 -124c95 0 127 61 127 141v300h114
v-517z" />
    <glyph glyph-name="Wcircumflex" unicode="&#x174;" horiz-adv-x="921" 
d="M182 0l-188 714h127l129 -546h2l144 546h128l140 -546h2l133 546h127l-197 -714h-127l-143 546h-2l-146 -546h-129zM460 873l-70 -90h-92l107 143h111l108 -143h-93z" />
    <glyph glyph-name="wcircumflex" unicode="&#x175;" horiz-adv-x="758" 
d="M163 0l-160 517h121l101 -386h2l97 386h115l93 -386h2l105 386h116l-162 -517h-117l-96 384h-2l-95 -384h-120zM384 679l-70 -90h-92l107 143h111l108 -143h-93z" />
    <glyph glyph-name="Ycircumflex" unicode="&#x176;" horiz-adv-x="626" 
d="M251 0v280l-268 434h145l189 -320l186 320h140l-267 -434v-280h-125zM319 873l-70 -90h-92l107 143h111l108 -143h-93z" />
    <glyph glyph-name="ycircumflex" unicode="&#x177;" horiz-adv-x="518" 
d="M199 2l-196 515h125l135 -386h2l131 386h119l-201 -545c-37 -93 -63 -177 -183 -177c-27 0 -53 2 -79 6v96c19 -3 35 -7 54 -7c52 0 67 28 80 72zM263 679l-70 -90h-92l107 143h111l108 -143h-93z" />
    <glyph glyph-name="Ydieresis" unicode="&#x178;" horiz-adv-x="626" 
d="M251 0v280l-268 434h145l189 -320l186 320h140l-267 -434v-280h-125zM289 796h-114v108h114v-108zM347 904h114v-108h-114v108z" />
    <glyph glyph-name="Zacute" unicode="&#x179;" horiz-adv-x="629" 
d="M54 606v108h543v-95l-416 -511h426v-108h-585v102l416 504h-384zM269 783l90 143h135l-142 -143h-83z" />
    <glyph glyph-name="zacute" unicode="&#x17a;" horiz-adv-x="481" 
d="M34 427v90h420v-80l-296 -347h311v-90h-455v80l286 347h-266zM197 589l90 143h135l-142 -143h-83z" />
    <glyph glyph-name="Zdotaccent" unicode="&#x17b;" horiz-adv-x="629" 
d="M54 606v108h543v-95l-416 -511h426v-108h-585v102l416 504h-384zM379 796h-114v108h114v-108z" />
    <glyph glyph-name="zdotaccent" unicode="&#x17c;" horiz-adv-x="481" 
d="M34 427v90h420v-80l-296 -347h311v-90h-455v80l286 347h-266zM301 602h-114v108h114v-108z" />
    <glyph glyph-name="Zcaron" unicode="&#x17d;" horiz-adv-x="629" 
d="M54 606v108h543v-95l-416 -511h426v-108h-585v102l416 504h-384zM485 926l-108 -143h-111l-107 143h92l70 -89l71 89h93z" />
    <glyph glyph-name="zcaron" unicode="&#x17e;" horiz-adv-x="481" 
d="M34 427v90h420v-80l-296 -347h311v-90h-455v80l286 347h-266zM408 732l-108 -143h-111l-107 143h92l70 -89l71 89h93z" />
    <glyph glyph-name="florin" unicode="&#x192;" horiz-adv-x="541" 
d="M108 353l15 85h92l32 168c23 89 87 125 176 125c24 0 49 -2 73 -5l-17 -90c-15 3 -26 5 -41 5c-56 0 -72 -21 -83 -73l-25 -130h102l-15 -85h-102l-73 -381c-16 -76 -86 -142 -171 -142c-27 0 -52 2 -79 5l15 90c16 -3 32 -5 48 -5c36 0 60 11 69 56l75 377h-91z" />
    <glyph glyph-name="Scommaaccent" unicode="&#x218;" horiz-adv-x="622" 
d="M19 238h125c0 -109 81 -153 181 -153c110 0 151 55 151 108c0 55 -30 77 -59 88c-51 19 -114 32 -213 59c-123 32 -158 107 -158 181c0 144 132 210 261 210c148 0 274 -79 274 -228h-125c-7 92 -67 126 -154 126c-58 0 -131 -21 -131 -93c0 -51 34 -77 85 -92
c11 -3 169 -44 206 -55c93 -29 139 -106 139 -182c0 -160 -143 -224 -284 -224c-163 0 -295 78 -298 255zM244 -149v99h131v-89c0 -42 -22 -80 -116 -84v38c28 4 41 13 45 36h-60z" />
    <glyph glyph-name="scommaaccent" unicode="&#x219;" horiz-adv-x="505" 
d="M22 166h114c7 -67 56 -90 117 -90c44 0 118 9 115 68c-3 60 -86 67 -169 86c-84 18 -166 48 -166 153c0 113 122 148 216 148c106 0 203 -43 216 -159h-119c-11 55 -54 69 -105 69c-33 0 -94 -8 -94 -53c0 -56 84 -65 168 -83c83 -19 167 -49 167 -151
c0 -123 -124 -168 -231 -168c-131 0 -226 58 -229 180zM181 -149v99h131v-89c0 -42 -22 -80 -116 -84v38c28 4 41 13 45 36h-60z" />
    <glyph glyph-name="uni021A" unicode="&#x21a;" horiz-adv-x="576" 
d="M-1 606v108h578v-108h-227v-606h-125v606h-226zM221 -149v99h131v-89c0 -42 -22 -80 -116 -84v38c28 4 41 13 45 36h-60z" />
    <glyph glyph-name="uni021B" unicode="&#x21b;" horiz-adv-x="316" 
d="M0 432v85h86v155h114v-155h103v-85h-103v-276c0 -47 4 -71 55 -71c16 0 32 0 48 4v-88c-25 -3 -49 -6 -74 -6c-120 0 -140 46 -143 132v305h-86zM131 -149v99h131v-89c0 -42 -22 -80 -116 -84v38c28 4 41 13 45 36h-60z" />
    <glyph glyph-name="circumflex" unicode="&#x2c6;" horiz-adv-x="214" 
d="M107 679l-70 -90h-92l107 143h111l108 -143h-93z" />
    <glyph glyph-name="caron" unicode="&#x2c7;" horiz-adv-x="214" 
d="M269 732l-108 -143h-111l-107 143h92l70 -89l71 89h93z" />
    <glyph glyph-name="uni02C9" unicode="&#x2c9;" horiz-adv-x="150" 
d="M219 624h-288v65h288v-65z" />
    <glyph glyph-name="breve" unicode="&#x2d8;" horiz-adv-x="223" 
d="M-50 731h58c11 -56 54 -76 107 -76c51 0 90 25 101 76h57c-11 -95 -74 -141 -166 -141s-149 49 -157 141z" />
    <glyph glyph-name="dotaccent" unicode="&#x2d9;" horiz-adv-x="221" 
d="M167 602h-114v108h114v-108z" />
    <glyph glyph-name="ring" unicode="&#x2da;" horiz-adv-x="193" 
d="M37 674c0 -35 27 -61 60 -61c35 0 60 26 60 61c0 36 -25 61 -60 61c-33 0 -60 -25 -60 -61zM97 571c-57 0 -104 42 -104 103c0 62 49 103 104 103c56 0 104 -41 104 -103c0 -61 -48 -103 -104 -103z" />
    <glyph glyph-name="ogonek" unicode="&#x2db;" horiz-adv-x="202" 
d="M128 0h54c-75 -59 -94 -91 -94 -129c0 -27 19 -44 39 -44s35 7 52 34l41 -9c-16 -59 -65 -75 -105 -75c-19 0 -101 5 -101 90c0 20 2 66 114 133z" />
    <glyph glyph-name="tilde" unicode="&#x2dc;" horiz-adv-x="225" 
d="M233 720h56c-5 -32 -14 -61 -33 -81c-17 -21 -42 -34 -78 -34c-23 0 -49 8 -74 19c-31 13 -45 18 -68 18c-24 0 -38 -14 -43 -41h-57c8 51 43 113 104 113c25 0 40 -3 81 -20c28 -12 43 -18 62 -18c29 0 43 17 50 44z" />
    <glyph glyph-name="hungarumlaut" unicode="&#x2dd;" horiz-adv-x="233" 
d="M145 589l90 143h136l-144 -143h-82zM-54 589l90 143h136l-144 -143h-82z" />
    <glyph glyph-name="uni0394" unicode="&#x394;" horiz-adv-x="674" 
d="M519 98l-190 490l-180 -490h370zM670 0h-666l272 712h110z" />
    <glyph glyph-name="uni03A9" unicode="&#x3a9;" horiz-adv-x="743" 
d="M693 0h-272v188c104 21 160 108 160 212c0 123 -87 222 -213 222c-127 0 -214 -100 -214 -224c0 -108 53 -185 158 -210v-188h-271v91h183v47c-122 40 -183 143 -183 268c0 184 146 315 326 315c181 0 326 -125 326 -312c0 -125 -59 -234 -184 -271v-47h184v-91z" />
    <glyph glyph-name="uni03BC" unicode="&#x3bc;" 
d="M503 517v-517h-112v72h-2c-29 -52 -90 -86 -136 -86c-31 0 -67 9 -90 36v-213h-114v708h114v-317c0 -91 36 -124 99 -124c95 0 127 61 127 141v300h114z" />
    <glyph glyph-name="pi" unicode="&#x3c0;" horiz-adv-x="575" 
d="M559 89v-76c-28 -13 -52 -20 -83 -20c-89 0 -100 57 -100 130v264h-211v-387h-101v387h-70v96h562v-96h-79v-249c0 -29 1 -59 38 -59c14 0 29 3 44 10z" />
    <glyph glyph-name="endash" unicode="&#x2013;" horiz-adv-x="486" 
d="M-7 218v108h500v-108h-500z" />
    <glyph glyph-name="emdash" unicode="&#x2014;" horiz-adv-x="986" 
d="M123 218v108h740v-108h-740z" />
    <glyph glyph-name="quoteleft" unicode="&#x2018;" horiz-adv-x="315" 
d="M220 714v-58c-40 -15 -61 -46 -61 -89h61v-135h-125v135c0 76 57 126 125 147z" />
    <glyph glyph-name="quoteright" unicode="&#x2019;" horiz-adv-x="315" 
d="M95 432v58c48 7 61 45 61 89h-61v135h125v-135c0 -77 -48 -136 -125 -147z" />
    <glyph glyph-name="quotesinglbase" unicode="&#x201a;" horiz-adv-x="315" 
d="M95 -147v58c41 15 61 46 61 89h-61v135h125v-135c0 -75 -57 -129 -125 -147z" />
    <glyph glyph-name="quotedblleft" unicode="&#x201c;" horiz-adv-x="514" 
d="M419 714v-58c-40 -15 -61 -46 -61 -89h61v-135h-125v135c0 76 57 126 125 147zM220 714v-58c-40 -15 -61 -46 -61 -89h61v-135h-125v135c0 76 57 126 125 147z" />
    <glyph glyph-name="quotedblright" unicode="&#x201d;" horiz-adv-x="514" 
d="M294 432v58c41 15 61 46 61 89h-61v135h125v-135c0 -75 -57 -129 -125 -147zM95 432v58c41 15 61 46 61 89h-61v135h125v-135c0 -75 -57 -129 -125 -147z" />
    <glyph glyph-name="quotedblbase" unicode="&#x201e;" horiz-adv-x="514" 
d="M294 -147v58c41 15 61 46 61 89h-61v135h125v-135c0 -75 -57 -129 -125 -147zM95 -147v58c41 15 61 46 61 89h-61v135h125v-135c0 -75 -57 -129 -125 -147z" />
    <glyph glyph-name="dagger" unicode="&#x2020;" horiz-adv-x="547" 
d="M216 -160v582h-191v95h191v197h114v-197h191v-95h-191v-582h-114z" />
    <glyph glyph-name="daggerdbl" unicode="&#x2021;" horiz-adv-x="547" 
d="M216 -160v197h-191v95h191v290h-191v95h191v197h114v-197h191v-95h-191v-290h191v-95h-191v-197h-114z" />
    <glyph glyph-name="bullet" unicode="&#x2022;" horiz-adv-x="487" 
d="M65 357c0 99 79 178 178 178s179 -79 179 -178s-80 -179 -179 -179s-178 80 -178 179z" />
    <glyph glyph-name="ellipsis" unicode="&#x2026;" horiz-adv-x="993" 
d="M759 0v135h139v-135h-139zM426 0v135h139v-135h-139zM93 0v135h139v-135h-139z" />
    <glyph glyph-name="perthousand" unicode="&#x2030;" horiz-adv-x="1104" 
d="M896 46c56 0 64 61 64 105c0 43 -4 118 -64 118s-64 -75 -64 -118c0 -44 8 -105 64 -105zM896 -14c-112 0 -149 91 -149 168c0 96 45 175 149 175s149 -79 149 -175c0 -77 -37 -168 -149 -168zM555 46c56 0 64 62 64 105s-4 118 -64 118s-64 -75 -64 -118s8 -105 64 -105
zM555 -14c-99 0 -149 75 -149 168c0 95 45 175 149 175s149 -80 149 -175c0 -93 -50 -168 -149 -168zM144 -24l398 748h73l-400 -748h-71zM210 654c-60 0 -64 -79 -64 -122c0 -44 8 -101 64 -101s64 57 64 101c0 43 -4 122 -64 122zM210 714c104 0 149 -83 149 -179
c0 -76 -37 -164 -149 -164s-149 88 -149 164c0 96 45 179 149 179z" />
    <glyph glyph-name="guilsinglleft" unicode="&#x2039;" horiz-adv-x="240" 
d="M194 93l-155 123v112l155 123v-103l-95 -76l95 -76v-103z" />
    <glyph glyph-name="guilsinglright" unicode="&#x203a;" horiz-adv-x="239" 
d="M45 451l155 -123v-112l-155 -123v103l95 76l-95 76v103z" />
    <glyph glyph-name="fraction" unicode="&#x2044;" horiz-adv-x="151" 
d="M-173 -24l419 748h78l-418 -748h-79z" />
    <glyph glyph-name="Euro" unicode="&#x20ac;" horiz-adv-x="533" 
d="M553 652l-46 -91c-43 43 -89 64 -140 64c-45 0 -82 -18 -112 -53c-25 -31 -42 -70 -51 -117h264l-26 -64h-245c-1 -3 -1 -8 -1 -14v-23c0 -17 0 -28 1 -31h231l-25 -63h-201c8 -54 25 -96 51 -127c30 -38 71 -57 122 -57c33 0 61 5 83 16c20 10 43 27 68 50v-111
c-45 -29 -96 -44 -151 -44c-89 0 -159 27 -209 82c-43 47 -70 111 -81 191h-77l27 63h45c-1 9 -2 20 -2 32c0 9 1 21 2 36h-72l26 64h53c17 77 47 137 91 182c51 51 117 77 197 77c58 0 117 -21 178 -62z" />
    <glyph glyph-name="afii61289" unicode="&#x2113;" horiz-adv-x="490" 
d="M435 48c-48 -42 -98 -62 -155 -62c-93 0 -150 54 -150 139v70l-57 -53h-2l-39 60l97 85v246c0 111 69 188 161 188c81 0 134 -56 134 -142c0 -101 -61 -199 -183 -310v-126c0 -58 35 -75 66 -75c26 0 56 12 88 38h2zM333 572c0 42 -18 74 -44 74s-48 -32 -48 -92v-190
c63 69 92 143 92 208z" />
    <glyph glyph-name="trademark" unicode="&#x2122;" horiz-adv-x="1002" 
d="M594 714l113 -292l112 292h115v-412h-75v322h-2l-123 -322h-56l-123 322h-2v-322h-75v412h116zM394 714v-65h-126v-347h-80v347h-126v65h332z" />
    <glyph glyph-name="Omega" unicode="&#x2126;" horiz-adv-x="743" 
d="M693 0h-272v188c104 21 160 108 160 212c0 123 -87 222 -213 222c-127 0 -214 -100 -214 -224c0 -108 53 -185 158 -210v-188h-271v91h183v47c-122 40 -183 143 -183 268c0 184 146 315 326 315c181 0 326 -125 326 -312c0 -125 -59 -234 -184 -271v-47h184v-91z" />
    <glyph glyph-name="estimated" unicode="&#x212e;" horiz-adv-x="586" 
d="M554 259h-404v-181c39 -39 87 -59 145 -59c83 0 143 36 193 120l35 -21c-61 -95 -123 -135 -228 -135c-157 0 -258 122 -258 276c0 155 101 276 258 276c154 0 258 -114 259 -276zM150 295h291v145c-42 40 -91 60 -147 60c-57 0 -105 -21 -144 -60v-145z" />
    <glyph glyph-name="partialdiff" unicode="&#x2202;" horiz-adv-x="536" 
d="M390 264l-1 23c-35 41 -73 67 -129 67c-84 0 -125 -69 -125 -145c0 -72 36 -141 117 -141c96 0 141 115 138 196zM500 359c0 -168 -44 -371 -252 -371c-131 0 -216 99 -216 227c0 125 84 219 212 219c57 0 104 -21 147 -58l1 30c3 98 -37 232 -157 232
c-45 0 -83 -21 -118 -48l-57 66c55 43 100 65 171 65c205 0 269 -189 269 -362z" />
    <glyph glyph-name="Delta" unicode="&#x2206;" horiz-adv-x="674" 
d="M519 98l-190 490l-180 -490h370zM670 0h-666l272 712h110z" />
    <glyph glyph-name="product" unicode="&#x220f;" horiz-adv-x="717" 
d="M664 -214h-108v902h-396v-902h-107v1000h611v-1000z" />
    <glyph glyph-name="summation" unicode="&#x2211;" horiz-adv-x="632" 
d="M612 -214h-593v86l306 419l-293 411v84h567v-98h-424l279 -396l-297 -409h455v-97z" />
    <glyph glyph-name="minus" unicode="&#x2212;" horiz-adv-x="586" 
d="M545 202h-504v102h504v-102z" />
    <glyph glyph-name="uni2215" unicode="&#x2215;" horiz-adv-x="151" 
d="M-173 -24l419 748h78l-418 -748h-79z" />
    <glyph glyph-name="uni2219" unicode="&#x2219;" horiz-adv-x="263" 
d="M57 302c0 39 35 74 75 74s75 -35 75 -74c0 -40 -34 -76 -75 -76s-75 36 -75 76z" />
    <glyph glyph-name="radical" unicode="&#x221a;" horiz-adv-x="522" 
d="M539 786l-211 -1000h-101l-153 319l-50 -23l-40 85l143 65l133 -281l170 835h109z" />
    <glyph glyph-name="infinity" unicode="&#x221e;" horiz-adv-x="791" 
d="M341 258c-34 34 -87 86 -140 86c-48 0 -78 -40 -78 -85c0 -49 30 -83 81 -83s105 44 137 82zM668 259c0 49 -29 86 -80 86c-54 0 -102 -53 -137 -88c35 -38 85 -82 140 -82c49 0 77 37 77 84zM754 262c0 -100 -61 -179 -165 -179c-81 0 -142 56 -193 112
c-56 -56 -105 -110 -192 -110c-102 0 -167 75 -167 175c0 99 63 176 164 176c87 0 143 -58 195 -118c51 59 111 119 194 119c101 0 164 -76 164 -175z" />
    <glyph glyph-name="integral" unicode="&#x222b;" horiz-adv-x="569" 
d="M458 713c0 -28 -23 -49 -51 -49c-58 0 -46 65 -71 65c-17 0 -19 -19 -19 -32c0 -44 2 -89 2 -133l1 -524c0 -104 4 -254 -141 -254c-43 0 -102 21 -102 72c0 28 19 49 48 49c57 0 46 -67 70 -67s19 35 19 49c0 32 -3 65 -3 97v535c0 107 -11 265 142 265
c43 0 105 -21 105 -73z" />
    <glyph glyph-name="approxequal" unicode="&#x2248;" horiz-adv-x="572" 
d="M485 241h67c-8 -85 -47 -167 -145 -167c-81 0 -199 69 -257 69c-39 0 -60 -34 -65 -69h-68c8 83 48 168 143 168c85 0 181 -67 261 -67c39 0 57 31 64 66zM486 444h68c-8 -85 -47 -167 -145 -167c-81 0 -199 69 -257 69c-39 0 -58 -34 -65 -69h-68c8 83 47 168 143 168
c83 0 183 -67 261 -67c39 0 56 31 63 66z" />
    <glyph glyph-name="notequal" unicode="&#x2260;" horiz-adv-x="575" 
d="M547 99h-285l-78 -152l-89 46l55 106h-122v102h173l61 117h-234v101h285l77 152l89 -45l-54 -107h122v-101h-174l-60 -117h234v-102z" />
    <glyph glyph-name="lessequal" unicode="&#x2264;" horiz-adv-x="575" 
d="M547 -35h-519v101h519v-101zM547 100l-519 172v103l519 179v-107l-381 -123l381 -117v-107z" />
    <glyph glyph-name="greaterequal" unicode="&#x2265;" horiz-adv-x="575" 
d="M547 -35h-519v101h519v-101zM547 272l-519 -172v107l380 117l-380 123v107l519 -179v-103z" />
    <glyph glyph-name="lozenge" unicode="&#x25ca;" horiz-adv-x="564" 
d="M403 356l-122 290l-119 -290l119 -291zM506 356l-177 -391h-95l-176 391l176 391h95z" />
    <glyph glyph-name="dotlessj" unicode="&#xe0d6;" horiz-adv-x="229" 
d="M56 -39v556h114v-561c0 -103 -41 -161 -148 -161c-23 0 -36 1 -51 4v90c15 -3 28 -4 39 -4c41 0 46 25 46 76z" />
    <glyph glyph-name="grave.cap" unicode="&#xe300;" horiz-adv-x="216" 
d="M-49 926h134l91 -143h-83z" />
    <glyph glyph-name="acute.cap" unicode="&#xe301;" horiz-adv-x="215" 
d="M40 783l90 143h135l-142 -143h-83z" />
    <glyph glyph-name="circumflex.cap" unicode="&#xe302;" horiz-adv-x="214" 
d="M107 873l-70 -90h-92l107 143h111l108 -143h-93z" />
    <glyph glyph-name="caron.cap" unicode="&#xe303;" horiz-adv-x="214" 
d="M269 926l-108 -143h-111l-107 143h92l70 -89l71 89h93z" />
    <glyph glyph-name="tilde.cap" unicode="&#xe304;" horiz-adv-x="225" 
d="M233 914h56c-5 -32 -14 -61 -33 -81c-17 -21 -42 -34 -78 -34c-23 0 -49 8 -74 19c-31 13 -45 18 -68 18c-24 0 -38 -14 -43 -41h-57c8 51 43 113 104 113c25 0 40 -3 81 -20c28 -12 43 -18 62 -18c29 0 43 17 50 44z" />
    <glyph glyph-name="dieresis.cap" unicode="&#xe305;" horiz-adv-x="198" 
d="M70 796h-114v108h114v-108zM128 904h114v-108h-114v108z" />
    <glyph glyph-name="macron.cap" unicode="&#xe306;" horiz-adv-x="150" 
d="M219 818h-288v65h288v-65z" />
    <glyph glyph-name="breve.cap" unicode="&#xe307;" horiz-adv-x="223" 
d="M-50 925h58c11 -56 54 -76 107 -76c51 0 90 25 101 76h57c-11 -95 -74 -141 -166 -141s-149 49 -157 141z" />
    <glyph glyph-name="ring.cap" unicode="&#xe308;" horiz-adv-x="193" 
d="M37 854c0 -35 27 -61 60 -61c35 0 60 26 60 61c0 36 -25 61 -60 61c-33 0 -60 -25 -60 -61zM97 751c-57 0 -104 42 -104 103c0 62 49 103 104 103c56 0 104 -41 104 -103c0 -61 -48 -103 -104 -103z" />
    <glyph glyph-name="hungarumlaut.cap" unicode="&#xe309;" horiz-adv-x="233" 
d="M145 783l90 143h136l-144 -143h-82zM-54 783l90 143h136l-144 -143h-82z" />
    <glyph glyph-name="dotaccent.cap" unicode="&#xe30a;" horiz-adv-x="221" 
d="M167 796h-114v108h114v-108z" />
    <glyph glyph-name="caron.alt" unicode="&#xe30b;" horiz-adv-x="210" 
d="M79 571l32 143h125l-81 -143h-76z" />
    <glyph glyph-name="commaaccent" unicode="&#xe30c;" horiz-adv-x="270" 
d="M75 -149v99h131v-89c0 -42 -22 -80 -116 -84v38c28 4 41 13 45 36h-60z" />
    <glyph glyph-name="commaaccent.alt" unicode="&#xe30d;" horiz-adv-x="270" 
d="M201 714v-99h-131v89c0 42 22 80 116 84v-38c-28 -4 -41 -13 -45 -36h60z" />
    <glyph glyph-name="uniF8FF" unicode="&#xf8ff;" horiz-adv-x="498" 
d="M271 117h-56v67h56v-67zM264 234h-46l-2 17c0 37 4 64 13 81s24 37 46 59c43 41 50 58 50 83c0 48 -35 85 -76 85s-74 -27 -82 -95l-50 8c9 95 63 137 135 137c71 0 124 -52 124 -131c0 -43 -12 -73 -63 -120c-25 -22 -39 -39 -43 -52s-6 -37 -6 -72zM43 50h412v617h-412
v-617zM-7 718h512v-718h-512v718z" />
    </font>
</defs>
</svg>
