<?xml version="1.0" encoding="utf-8"?>
<!-- Generator: Adobe Illustrator 19.2.1, SVG Export Plug-In . SVG Version: 6.00 Build 0)  -->
<svg version="1.1" id="Layer_1" xmlns="http://www.w3.org/2000/svg" xmlns:xlink="http://www.w3.org/1999/xlink" x="0px" y="0px"
	 viewBox="0 0 64 64" style="enable-background:new 0 0 64 64;" xml:space="preserve">
<style type="text/css">
	.st0{fill:#FFFFFF;}
</style>
<g id="Layer_2">
</g>
<g id="Layer_1_1_">
	<g>
		<path d="M53.1,11.1H15.9c-0.5,0-1-0.4-1-1V2.9c0-0.5,0.4-1,1-1h37.3c0.5,0,1,0.4,1,1v7.3C54.1,10.7,53.7,11.1,53.1,11.1z
			 M16.9,9.2h35.3V3.8H16.9V9.2z"/>
		<path d="M53.6,64.2H15.9c-0.5,0-1-0.4-1-1v-7.3c0-0.5,0.4-1,1-1h37.6c0.5,0,1,0.4,1,1v7.3C54.5,63.8,54.1,64.2,53.6,64.2z
			 M16.9,62.3h35.8V57H16.9V62.3z"/>
		<path d="M20.3,56.2c-0.5,0-0.9-0.3-1-0.8s-2.2-12.3,10.9-22.5C17.1,22.8,19.2,11,19.3,10.6c0.1-0.6,0.7-0.9,1.2-0.8
			c0.5,0.1,0.9,0.6,0.8,1.2c-0.1,0.4-2.1,11.7,11.2,21.2c0.3,0.2,0.4,0.5,0.4,0.8s-0.2,0.6-0.4,0.8C19.1,43.3,21.1,54.5,21.2,55
			s-0.2,1-0.8,1.2C20.4,56.2,20.4,56.2,20.3,56.2z"/>
		<path d="M48.1,56.2c-0.1,0-0.1,0-0.2,0c-0.5-0.1-0.9-0.6-0.8-1.2l0,0c0.1-0.5,2.1-11.7-11.2-21.3c-0.3-0.2-0.4-0.5-0.4-0.8
			s0.2-0.6,0.4-0.8C49.4,22.5,47.1,11,47.1,10.8c-0.1-0.5,0.2-1,0.8-1.2c0.5-0.1,1,0.2,1.2,0.8c0.1,0.5,2.3,12.3-10.9,22.5
			c13.1,10.2,10.9,22,10.8,22.5C48.9,55.9,48.5,56.2,48.1,56.2z"/>
	</g>
	<g>
		<path class="st0" d="M51.2,9.1H13.9c-0.5,0-1-0.4-1-1V0.8c0-0.5,0.4-1,1-1h37.3c0.5,0,1,0.4,1,1v7.3C52.2,8.6,51.8,9.1,51.2,9.1z
			 M14.9,7.1h35.3V1.8H14.9V7.1z"/>
		<path class="st0" d="M51.7,62.1H13.9c-0.5,0-1-0.4-1-1v-7.3c0-0.5,0.4-1,1-1h37.6c0.5,0,1,0.4,1,1v7.3
			C52.6,61.7,52.2,62.1,51.7,62.1z M14.9,60.3h35.8V55H14.9V60.3z"/>
		<path class="st0" d="M18.3,54.1c-0.5,0-0.9-0.3-1-0.8S15.1,41,28.2,30.8C15.1,20.8,17.3,9,17.4,8.5c0.1-0.6,0.7-0.9,1.2-0.8
			s0.9,0.6,0.8,1.2c-0.1,0.4-2.1,11.7,11.2,21.2c0.3,0.2,0.4,0.5,0.4,0.8s-0.2,0.6-0.4,0.8C17.2,41.3,19.2,52.5,19.3,53
			c0.1,0.5-0.2,1-0.8,1.2C18.4,54.1,18.4,54.1,18.3,54.1z"/>
		<path class="st0" d="M46.1,54.1c-0.1,0-0.1,0-0.2,0c-0.5-0.1-0.9-0.6-0.8-1.2l0,0c0.1-0.5,2.1-11.7-11.2-21.3
			c-0.3-0.2-0.4-0.5-0.4-0.8s0.2-0.6,0.4-0.8C47.4,20.5,45.2,9,45.2,8.8c-0.1-0.5,0.2-1,0.8-1.2c0.5-0.1,1,0.2,1.2,0.8
			c0.1,0.5,2.3,12.3-10.9,22.5c13.1,10.2,10.9,22,10.8,22.5C46.9,53.8,46.5,54.1,46.1,54.1z"/>
	</g>
</g>
</svg>
