<?xml version="1.0" encoding="utf-8"?>
<!-- Generator: Adobe Illustrator 19.2.1, SVG Export Plug-In . SVG Version: 6.00 Build 0)  -->
<svg version="1.1" id="Layer_1" xmlns="http://www.w3.org/2000/svg" xmlns:xlink="http://www.w3.org/1999/xlink" x="0px" y="0px"
	 viewBox="0 0 42 64" style="enable-background:new 0 0 42 64;" xml:space="preserve">
<style type="text/css">
	.st0{fill:#FFFFFF;}
</style>
<g>
	<path class="st0" d="M39.9,9.4H1.6c-0.5,0-1-0.4-1-1V0.9c0-0.5,0.4-1,1-1h38.3c0.5,0,1,0.4,1,1v7.5C40.9,8.9,40.5,9.4,39.9,9.4z
		 M2.6,7.4h36.3V1.9H2.6V7.4z"/>
	<path class="st0" d="M40.4,63.9H1.6c-0.5,0-1-0.4-1-1v-7.5c0-0.5,0.4-1,1-1h38.7c0.5,0,1,0.4,1,1v7.5
		C41.3,63.5,40.9,63.9,40.4,63.9z M2.6,62h36.8v-5.5H2.6V62z"/>
	<path class="st0" d="M6.1,55.7c-0.5,0-0.9-0.3-1-0.8S2.8,42.3,16.3,31.8C2.8,21.4,5,9.3,5.1,8.8C5.2,8.2,5.8,7.9,6.3,8
		c0.5,0.1,0.9,0.6,0.8,1.2C7,9.6,4.9,21.2,18.6,31c0.3,0.2,0.4,0.5,0.4,0.8s-0.2,0.6-0.4,0.8C4.9,42.5,7,54,7.1,54.5s-0.2,1-0.8,1.2
		C6.2,55.7,6.2,55.7,6.1,55.7z"/>
	<path class="st0" d="M34.7,55.7c-0.1,0-0.1,0-0.2,0c-0.5-0.1-0.9-0.6-0.8-1.2l0,0c0.1-0.5,2.2-12-11.5-21.9
		c-0.3-0.2-0.4-0.5-0.4-0.8s0.2-0.6,0.4-0.8C36,21.1,33.7,9.3,33.7,9.1c-0.1-0.5,0.2-1,0.8-1.2c0.5-0.1,1,0.2,1.2,0.8
		c0.1,0.5,2.4,12.6-11.2,23.1C38,42.3,35.7,54.4,35.6,54.9C35.5,55.4,35.1,55.7,34.7,55.7z"/>
</g>
</svg>
