<?xml version="1.0" encoding="utf-8"?>
<!-- Generator: Adobe Illustrator 19.2.1, SVG Export Plug-In . SVG Version: 6.00 Build 0)  -->
<svg version="1.1" id="Layer_1" xmlns="http://www.w3.org/2000/svg" xmlns:xlink="http://www.w3.org/1999/xlink" x="0px" y="0px"
	 viewBox="0 0 32 32" style="enable-background:new 0 0 32 32;" xml:space="preserve">
<style type="text/css">
	.st0{fill:#A4A4A4;}
</style>
<g>
	<rect x="4.2" y="11.8" class="st0" width="1" height="8.4"/>
	<rect x="15.5" y="4.6" class="st0" width="1" height="6.7"/>
	<rect x="8.7" y="8.8" transform="matrix(0.4509 -0.8926 0.8926 0.4509 -5.5684 14.7489)" class="st0" width="1" height="6.2"/>
	<rect x="8.6" y="17.1" transform="matrix(-0.4783 -0.8782 0.8782 -0.4783 -4.273 37.8203)" class="st0" width="1" height="6.2"/>
	<rect x="22.4" y="8.8" transform="matrix(-0.4783 -0.8782 0.8782 -0.4783 23.3622 37.6777)" class="st0" width="1" height="6.2"/>
	<rect x="22.6" y="17.1" transform="matrix(0.4509 -0.8926 0.8926 0.4509 -5.319 31.7129)" class="st0" width="1" height="6.2"/>
	<rect x="15.5" y="21" class="st0" width="1" height="6.2"/>
	<rect x="9.6" y="21.8" transform="matrix(0.5185 -0.8551 0.8551 0.5185 -17.7435 21.3392)" class="st0" width="1" height="9.3"/>
	<rect x="21.6" y="1" transform="matrix(0.5185 -0.8551 0.8551 0.5185 5.7609 21.5898)" class="st0" width="1" height="9.3"/>
	<rect x="26.7" y="11.8" class="st0" width="1" height="8.4"/>
	<rect x="9.3" y="0.8" transform="matrix(0.5407 0.8412 -0.8412 0.5407 9.2032 -5.6823)" class="st0" width="1" height="9.6"/>
	<rect x="21.6" y="21.8" transform="matrix(0.5407 0.8412 -0.8412 0.5407 32.5073 -6.3992)" class="st0" width="1" height="9.6"/>
	<path class="st0" d="M4.6,7.2c-1.4,0-2.5,1.1-2.5,2.5c0,1.4,1.1,2.5,2.5,2.5c1.4,0,2.5-1.1,2.5-2.5C7.1,8.4,6,7.2,4.6,7.2z
		 M4.6,11.3C3.7,11.3,3,10.6,3,9.7c0-0.9,0.7-1.6,1.6-1.6c0.9,0,1.6,0.7,1.6,1.6C6.2,10.6,5.5,11.3,4.6,11.3z"/>
	<path class="st0" d="M16.1,10.7c-3,0-5.4,2.4-5.4,5.4c0,3,2.4,5.4,5.4,5.4c3,0,5.4-2.4,5.4-5.4C21.5,13.1,19.1,10.7,16.1,10.7z
		 M16.1,20.7c-2.5,0-4.6-2.1-4.6-4.6c0-2.5,2.1-4.6,4.6-4.6c2.5,0,4.6,2.1,4.6,4.6C20.6,18.6,18.6,20.7,16.1,20.7z"/>
	<path class="st0" d="M15.9,0.2c-1.4,0-2.5,1.1-2.5,2.5c0,1.4,1.1,2.5,2.5,2.5c1.4,0,2.5-1.1,2.5-2.5C18.4,1.3,17.3,0.2,15.9,0.2z
		 M15.9,4.3c-0.9,0-1.6-0.7-1.6-1.6c0-0.9,0.7-1.6,1.6-1.6c0.9,0,1.6,0.7,1.6,1.6C17.5,3.6,16.8,4.3,15.9,4.3z"/>
	<path class="st0" d="M27.4,7c-1.4,0-2.5,1.1-2.5,2.5c0,1.4,1.1,2.5,2.5,2.5c1.4,0,2.5-1.1,2.5-2.5C29.9,8.1,28.8,7,27.4,7z
		 M27.4,11.1c-0.9,0-1.6-0.7-1.6-1.6c0-0.9,0.7-1.6,1.6-1.6c0.9,0,1.6,0.7,1.6,1.6C29,10.4,28.3,11.1,27.4,11.1z"/>
	<path class="st0" d="M27.4,19.7c-1.4,0-2.5,1.1-2.5,2.5c0,1.4,1.1,2.5,2.5,2.5c1.4,0,2.5-1.1,2.5-2.5c0-1-0.6-1.9-1.5-2.3
		C28.1,19.8,27.8,19.7,27.4,19.7z M27.4,23.8c-0.9,0-1.6-0.7-1.6-1.6c0-0.9,0.7-1.6,1.6-1.6c0.9,0,1.6,0.7,1.6,1.6
		C29,23.1,28.3,23.8,27.4,23.8z"/>
	<path class="st0" d="M16.1,26.8c-1.4,0-2.5,1.1-2.5,2.5c0,1.4,1.1,2.5,2.5,2.5c1.4,0,2.5-1.1,2.5-2.5
		C18.6,27.9,17.5,26.8,16.1,26.8z M16.1,30.9c-0.9,0-1.6-0.7-1.6-1.6c0-0.9,0.7-1.6,1.6-1.6c0.9,0,1.6,0.7,1.6,1.6
		C17.6,30.2,16.9,30.9,16.1,30.9z"/>
	<path class="st0" d="M4.6,19.9c-1.4,0-2.5,1.1-2.5,2.5c0,1.4,1.1,2.5,2.5,2.5c1.4,0,2.5-1.1,2.5-2.5C7.1,21.1,6,19.9,4.6,19.9z
		 M4.6,24C3.7,24,3,23.3,3,22.4c0-0.9,0.7-1.6,1.6-1.6c0.9,0,1.6,0.7,1.6,1.6C6.2,23.3,5.5,24,4.6,24z"/>
</g>
</svg>
