<?xml version="1.0" encoding="utf-8"?>
<!-- Generator: Adobe Illustrator 21.0.0, SVG Export Plug-In . SVG Version: 6.00 Build 0)  -->
<svg version="1.1" id="Layer_1" xmlns="http://www.w3.org/2000/svg" xmlns:xlink="http://www.w3.org/1999/xlink" x="0px" y="0px"
	 viewBox="0 0 16 16" style="enable-background:new 0 0 16 16;" xml:space="preserve">
<style type="text/css">
	.st0{fill:#26262F;}
</style>
<g>
	<path class="st0" d="M8,0.5C3.7,0.5,0.3,3.9,0.3,8s3.5,7.5,7.7,7.5s7.7-3.4,7.7-7.5S12.3,0.5,8,0.5z M8,15.1c-4,0-7.3-3.2-7.3-7.1
		S4,0.9,8,0.9s7.3,3.2,7.3,7.1S12,15.1,8,15.1z"/>
	<polygon class="st0" points="11.6,4.2 8,7.7 4.4,4.2 4.1,4.5 7.7,8 4.1,11.5 4.4,11.8 8,8.3 11.6,11.8 11.9,11.5 8.3,8 11.9,4.5 	
		"/>
</g>
</svg>
