<?xml version="1.0" encoding="utf-8"?>
<!-- Generator: Adobe Illustrator 19.2.1, SVG Export Plug-In . SVG Version: 6.00 Build 0)  -->
<svg version="1.1" id="Layer_1" xmlns="http://www.w3.org/2000/svg" xmlns:xlink="http://www.w3.org/1999/xlink" x="0px" y="0px"
	 viewBox="0 0 12 20" style="enable-background:new 0 0 12 20;" xml:space="preserve">
<style type="text/css">
	.st0{fill:#262626;stroke:#26262F;stroke-width:0.25;stroke-miterlimit:10;}
	.st1{fill:none;}
</style>
<path class="st0" d="M6,4.2c-3.2,0-5.8,2.6-5.8,5.8s2.6,5.8,5.8,5.8s5.8-2.6,5.8-5.8S9.2,4.2,6,4.2z M6,15.4c-3,0-5.4-2.4-5.4-5.4
	S3,4.6,6,4.6S11.4,7,11.4,10S9,15.4,6,15.4z"/>
<polygon class="st0" points="8.8,7 6,9.8 3.2,7 3,7.2 5.8,10 3,12.8 3.2,13 6,10.2 8.8,13 9,12.8 6.2,10 9,7.2 "/>
<rect y="0" class="st1" width="12" height="20"/>
</svg>
