<?xml version="1.0" encoding="utf-8"?>
<!-- Generator: Adobe Illustrator 19.2.1, SVG Export Plug-In . SVG Version: 6.00 Build 0)  -->
<svg version="1.1" id="Layer_1" xmlns="http://www.w3.org/2000/svg" xmlns:xlink="http://www.w3.org/1999/xlink" x="0px" y="0px"
	 viewBox="0 0 26 40" style="enable-background:new 0 0 26 40;" xml:space="preserve">
<style type="text/css">
	.st0{fill:none;}
	.st1{fill:#FFFFFF;}
</style>
<rect x="5" y="0" class="st0" width="16" height="40"/>
<g>
	<path class="st1" d="M12.9,7.1c-7,0-12.8,5.8-12.8,12.9S5.9,32.9,13,32.9S26,27.1,26,20S20.2,7.1,12.9,7.1z M12.9,32.2
		C6.2,32.2,0.8,26.7,0.8,20S6.2,7.8,12.9,7.8S25.2,13.3,25.2,20S19.8,32.2,12.9,32.2z"/>
	<polygon class="st1" points="19,13.5 12.9,19.5 7,13.5 6.5,14 12.4,20 6.5,26 7,26.5 12.9,20.5 19,26.5 19.5,26 13.6,20 19.5,14 	
		"/>
</g>
</svg>
