<?xml version="1.0" encoding="utf-8"?>
<!-- Generator: Adobe Illustrator 19.2.1, SVG Export Plug-In . SVG Version: 6.00 Build 0)  -->
<svg version="1.1" id="Layer_1" xmlns="http://www.w3.org/2000/svg" xmlns:xlink="http://www.w3.org/1999/xlink" x="0px" y="0px"
	 viewBox="0 0 18 40" style="enable-background:new 0 0 18 40;" xml:space="preserve">
<style type="text/css">
	.st0{fill:none;}
	.st1{fill:#262626;}
	.st2{enable-background:new    ;}
</style>
<rect y="0" class="st0" width="18" height="40"/>
<g>
	<path class="st1" d="M5.5,10.4l3.1-3.1v12.6c0,0.2,0.2,0.4,0.4,0.4s0.4-0.2,0.4-0.4V7.3l3.1,3.1c0.1,0.1,0.2,0.1,0.3,0.1
		s0.2,0,0.3-0.1c0.2-0.2,0.2-0.4,0-0.6L9.3,5.9c-0.2-0.2-0.4-0.2-0.6,0L4.9,9.8c-0.2,0.2-0.2,0.4,0,0.6C5,10.5,5.3,10.5,5.5,10.4z"
		/>
	<path class="st1" d="M12.4,13.5c-0.2,0-0.4,0.2-0.4,0.4s0.2,0.4,0.4,0.4h4.7v15.3H0.9V14.3h4.7c0.2,0,0.4-0.2,0.4-0.4
		s-0.2-0.4-0.4-0.4H0v17.1h18V13.5H12.4z"/>
</g>
<g class="st2">
	<path d="M2.8,22.6h2c0.9,0,1.4,0.5,1.4,1.4s-0.5,1.4-1.4,1.4H3.5v1.9H2.8V22.6z M3.5,24.9h1.2c0.7,0,1-0.3,1-0.9s-0.3-0.9-1-0.9
		H3.5V24.9z"/>
	<path d="M7.3,22.6h1.6c1.4,0,2.2,0.7,2.2,2.2c0,1.6-0.7,2.4-2.2,2.4H7.3V22.6z M7.9,26.8h1c0.4,0,1.6-0.1,1.6-1.8
		c0-1.1-0.4-1.8-1.5-1.8h-1V26.8z"/>
	<path d="M12.1,22.6h3v0.5h-2.4v1.5h2.1v0.5h-2.1v2.1h-0.6V22.6z"/>
</g>
</svg>
