<?xml version="1.0" encoding="utf-8"?>
<!-- Generator: Adobe Illustrator 19.2.1, SVG Export Plug-In . SVG Version: 6.00 Build 0)  -->
<svg version="1.1" id="Layer_1" xmlns="http://www.w3.org/2000/svg" xmlns:xlink="http://www.w3.org/1999/xlink" x="0px" y="0px"
	 viewBox="0 0 40 34" style="enable-background:new 0 0 40 34;" xml:space="preserve">
<style type="text/css">
	.st0{fill:#262626;}
</style>
<g>
	<polygon class="st0" points="10.5,8.6 10.5,25.9 33,25.9 33,27 29.9,27 29.9,29.4 28.7,29.4 28.7,27 24.8,27 24.8,29.4 23.6,29.4 
		23.6,27 19.7,27 19.7,29.4 18.5,29.4 18.5,27 14.6,27 14.6,29.4 13.4,29.4 13.4,27 9.9,27 9.4,27 9.4,26.5 9.4,23.1 7,23.1 7,21.9 
		9.4,21.9 9.4,18 7,18 7,16.8 9.4,16.8 9.4,12.8 7,12.8 7,11.7 9.4,11.7 9.4,8.6 	"/>
	<g>
		<path d="M15.8,13.7c0-1.5,0.7-2.8,2.4-2.8s2.4,1.3,2.4,2.8s-0.7,2.8-2.4,2.8S15.8,15.2,15.8,13.7z M18.2,15.6
			c0.8,0,1.1-0.8,1.1-1.9c0-1-0.2-1.9-1.1-1.9c-0.9,0-1.1,1-1.1,1.9C17.1,14.7,17.4,15.6,18.2,15.6z M23.9,10.7H25l-5.5,10.7h-1.1
			L23.9,10.7z M23,18.4c0-1.5,0.7-2.8,2.4-2.8c1.7,0,2.4,1.3,2.4,2.8s-0.7,2.8-2.4,2.8C23.6,21.2,23,19.9,23,18.4z M25.3,20.3
			c0.8,0,1.1-0.8,1.1-1.9c0-1-0.2-1.9-1.1-1.9s-1.1,1-1.1,1.9C24.3,19.4,24.6,20.3,25.3,20.3z"/>
	</g>
</g>
</svg>
