<?xml version="1.0" encoding="utf-8"?>
<!-- Generator: Adobe Illustrator 19.2.1, SVG Export Plug-In . SVG Version: 6.00 Build 0)  -->
<svg version="1.1" id="Layer_1" xmlns="http://www.w3.org/2000/svg" xmlns:xlink="http://www.w3.org/1999/xlink" x="0px" y="0px"
	 viewBox="0 0 40 34" style="enable-background:new 0 0 40 34;" xml:space="preserve">
<style type="text/css">
	.st0{fill:#262626;}
</style>
<g>
	<path class="st0" d="M10.6,8.6v17.3H33v1.2h-3.2v2.4h-1.2v-2.4h-4v2.4h-1.2v-2.4h-4v2.4h-1.2v-2.4h-4v2.4h-1v-2.4H10H9.4v-0.6v-3.4
		H7v-1.2h2.4v-4H7v-1.2h2.4v-4H7v-1.2h2.4V8.6H10.6L10.6,8.6z M13,22.5l0.9,0.7l5.5-7.7l4.6,3.4l0.5,0.3l0.3-0.5l4.8-6.6l0.2,3.3
		l1.2-0.1l-0.3-4.8V9.8L30,10l-4.7,1.3l0.3,1.1l3.2-0.8l-4.5,6.2l-4.6-3.4L19.2,14l-0.3,0.5L13,22.5z"/>
</g>
</svg>
