<?xml version="1.0" encoding="utf-8"?>
<!-- Generator: Adobe Illustrator 19.2.1, SVG Export Plug-In . SVG Version: 6.00 Build 0)  -->
<svg version="1.1" id="Layer_1" xmlns="http://www.w3.org/2000/svg" xmlns:xlink="http://www.w3.org/1999/xlink" x="0px" y="0px"
	 viewBox="0 0 110 50" enable-background="new 0 0 110 50" xml:space="preserve">
<g>
	<path fill="#FDFDFF" d="M64.2,16.1c0.1,0.9,1.4,2,1.8,2c0.2,0,0.3-1.1,0.3-2c0-0.5,0-0.9-0.2-1C65.6,15.9,64.5,16.1,64.2,16.1
		L64.2,16.1z M64.2,15.7c0.9,0,1.8-0.7,1.8-1.4c0-0.3-0.1-0.6-0.5-0.6c0.1,0.1,0.1,0.1,0.1,0.3c0,0.5-0.8,1-1.6,1
		c-0.3,0-0.4,0.2-0.4,0.3C63.7,15.6,63.9,15.7,64.2,15.7L64.2,15.7z M64.1,14.7c-0.1,0-0.3,0-0.4-0.2c-0.1-0.2-0.1-0.4-0.2-0.5
		c0.2,0,0.3,0,0.4,0c0.4,0,0.8-0.3,1.1-0.3c0.2,0,0.3,0.1,0.3,0.3C65.2,14.3,64.4,14.7,64.1,14.7L64.1,14.7z M44,21.7
		c0.3,0,0.2-1.9,0.7-1.9c0.1,0,0.2,0.1,0.2,0.3c0,0.4-0.2,1-0.2,1.4c0,0.2,0,0.2,0.1,0.2c0.2,0,0.6-2.1,1-2.1c0.1,0,0.2,0.1,0.2,0.2
		c0,0.4-0.5,1.7-0.5,2c0,0.1,0,0.1,0.1,0.1c0.2,0,0.7-1,0.8-1.5c0.1-0.3,0.2-0.4,0.3-0.4s0.2,0.1,0.2,0.3c0,0.5-0.4,1.6-0.8,2.4
		c-0.3,0.6-0.8,1.4-0.8,1.9c0,0.2,0,0.5,0.4,0.8c-0.6,0-0.8-0.1-1-0.5c-1,1.9,1.8,1.7,0.8,3.4C45.3,28,44,27.7,44,25.9
		c0-1.5,1.3-2.4,1.3-3.1c0-0.1,0-0.2-0.2-0.3c-0.3-0.3-0.3-0.5-0.5-0.5s-0.4,0.4-0.2,0.7c0.1,0.1,0.1,0.2,0.1,0.3
		c0,0.3-0.4,0.9-0.7,0.9s-0.5-0.7-0.5-1.8c0-1,0.2-2,0.5-2c0.1,0,0.1,0.1,0.1,0.1c0,0.1,0,0.3,0,0.7C43.8,21.7,43.9,21.7,44,21.7
		L44,21.7z M57.7,12.9c0.1,0,0.2,0.4,0.2,0.6c0,0.1,0,0.1,0.1,0.1s0.3-0.4,0.4-0.4c0.2,0,0.6,0.5,1.4,0.5c1.1,0,2.1-0.8,2.1-2.1
		S61,9.5,59.7,9.5c-0.6,0-1,0.3-1.3,0.3c-0.1,0-0.4-0.3-0.5-0.3c0,0-0.1,0.1-0.1,0.2c0,0.1,0,0.4-0.1,0.4c-0.2,0-1-0.6-1-0.4
		c0,0.2,0.6,0.8,0.6,1s-0.5,0.3-0.5,0.4c0,0.2,0.6,0.2,0.6,0.5s-0.6,0.4-0.6,0.6c0,0.2,0.6,0,0.6,0.2s-0.4,0.8-0.4,1l0,0
		C57.1,13.5,57.6,12.9,57.7,12.9L57.7,12.9z M46.2,26.1c0-0.2,0.1-0.3,0.3-0.4c0.2,0,0.4,0.1,0.4,0.3c0,0.2-0.1,0.4-0.3,0.4
		C46.4,26.5,46.2,26.3,46.2,26.1L46.2,26.1z M45.2,26.4c0,0.3,0.3,0.5,0.6,0.5c0.1,0,0.2,0,0.3-0.1c0.1,0.3,0.3,0.5,0.6,0.4
		c0.3,0,0.6-0.3,0.5-0.6c0-0.1,0-0.1-0.1-0.2h0.1c0.3,0,0.6-0.3,0.5-0.6c0-0.3-0.3-0.6-0.6-0.5c-0.1,0-0.2,0.1-0.3,0.1
		c-0.1-0.3-0.3-0.5-0.6-0.4c-0.3,0-0.6,0.3-0.5,0.7c0,0,0,0.1,0,0.2h-0.1C45.4,25.8,45.2,26.1,45.2,26.4L45.2,26.4z M65.2,10
		c0,0.1,0.1,0.2,0.2,0.2s0.2-0.1,0.2-0.2c0-0.1-0.1-0.2-0.2-0.2C65.3,9.7,65.2,9.8,65.2,10L65.2,10z M60.2,18.5
		c0,0.2,0.2,0.4,0.4,0.4s0.4-0.2,0.4-0.4c0-0.2-0.2-0.4-0.4-0.4S60.2,18.3,60.2,18.5L60.2,18.5z M60.2,19.6c0,0.2,0.2,0.4,0.4,0.4
		s0.4-0.2,0.4-0.4c0-0.2-0.2-0.4-0.4-0.4S60.2,19.4,60.2,19.6L60.2,19.6z M58.9,20.4c0,0.3,0.3,0.6,0.6,0.6s0.6-0.3,0.6-0.6
		s-0.3-0.6-0.6-0.6C59.2,19.7,58.9,20,58.9,20.4L58.9,20.4z M59.3,19.1c0,0.2,0.2,0.4,0.4,0.4s0.4-0.2,0.4-0.4
		c0-0.2-0.2-0.4-0.4-0.4C59.4,18.7,59.3,18.9,59.3,19.1L59.3,19.1z M58.1,19.8c0,0.2,0.2,0.4,0.4,0.4s0.4-0.2,0.4-0.4
		c0-0.2-0.2-0.4-0.4-0.4C58.3,19.5,58.1,19.6,58.1,19.8L58.1,19.8z M59,17.7c0,0.3,0.3,0.6,0.6,0.6s0.6-0.3,0.6-0.6
		c0-0.3-0.3-0.6-0.6-0.6S59,17.4,59,17.7L59,17.7z M59.7,16.6c0,0.2,0.2,0.3,0.3,0.3c0.2,0,0.3-0.2,0.3-0.3c0-0.2-0.2-0.3-0.3-0.3
		C59.8,16.3,59.7,16.4,59.7,16.6L59.7,16.6z M58.1,17.5c0,0.2,0.2,0.3,0.3,0.3c0.2,0,0.3-0.2,0.3-0.3c0-0.2-0.2-0.3-0.3-0.3
		C58.2,17.1,58.1,17.3,58.1,17.5L58.1,17.5z M58,18.6c0,0.3,0.2,0.5,0.5,0.5s0.5-0.2,0.5-0.5s-0.2-0.5-0.5-0.5
		C58.3,18.1,58,18.3,58,18.6L58,18.6z M56.9,19.2c0,0.3,0.2,0.5,0.5,0.5s0.5-0.2,0.5-0.5s-0.2-0.5-0.5-0.5
		C57.1,18.7,56.9,18.9,56.9,19.2L56.9,19.2z M57.2,17.9c0,0.2,0.2,0.4,0.4,0.4s0.4-0.2,0.4-0.4s-0.2-0.4-0.4-0.4
		C57.4,17.6,57.2,17.7,57.2,17.9L57.2,17.9z M56,31.2c0,0.2,0.2,0.4,0.4,0.4s0.4-0.2,0.4-0.4c0-0.2-0.2-0.4-0.4-0.4
		C56.2,30.8,56,31,56,31.2L56,31.2z M46.4,16.3c0,0.2,0.2,0.4,0.4,0.4s0.4-0.2,0.4-0.4c0-0.2-0.2-0.4-0.4-0.4
		C46.5,15.9,46.4,16.1,46.4,16.3L46.4,16.3z M45.9,15.5c0,0.2,0.2,0.4,0.4,0.4s0.4-0.2,0.4-0.4s-0.2-0.4-0.4-0.4
		C46.1,15.1,45.9,15.3,45.9,15.5L45.9,15.5z M46.3,24.3c0.4,0,0.7-0.3,0.7-0.9v-0.9c0-0.3,0-0.7,0.3-1c0,0.1,0,0.2,0,0.4
		c0,0.8,0.4,1.3,0.4,2c0,0.3-0.1,0.4-0.3,0.4s-0.2-0.2-0.2-0.2s-0.1,0.1-0.1,0.2c0,0.2,0.1,0.5,0.5,0.5c0.3,0,0.6-0.3,0.6-0.6
		c0-0.8-0.6-1.7-0.6-2.6c0-0.4,0.1-0.6,0.2-0.8c0,1.8,1.5,3.1,1.5,3.8c0,0.2-0.1,0.3-0.3,0.3s-0.3-0.2-0.3-0.3c0-0.1,0-0.1,0-0.1
		c-0.1,0-0.2,0.2-0.2,0.4c0,0.3,0.2,0.7,0.7,0.7s0.8-0.4,0.8-0.8c0-0.9-1.8-2.4-1.8-3.9c0-0.3,0-0.7,0.2-1c-1.2,0.8-1.6,1.8-1.6,2.7
		c0,0.8,0,1.2-0.4,1.2c-0.2,0-0.3-0.2-0.3-0.2c-0.1,0-0.1,0.2-0.1,0.2C45.8,24.1,46,24.3,46.3,24.3L46.3,24.3z M61.8,15.4
		c0.4,0,0.7-0.2,0.7-0.3c0,0-0.1-0.1-0.2-0.1c-0.1,0-0.4,0-0.8-0.1c-0.4-0.1-0.7-0.2-0.8-0.2h-0.1C60.7,15,61.2,15.4,61.8,15.4
		L61.8,15.4z M59.9,14.2c0.1-0.1,0.6,0,1.3-0.3c0.1,0,0.2-0.1,0.2-0.1c0.3,0,0.2,0.4,0.5,0.4c0.2,0,0.5-0.2,0.7-0.2
		c0.3,0,0.7,0.8,0.7,1.2c0,0.5-0.7,0.7-1.5,0.7C60.5,16,59.8,15,59.9,14.2C59.8,14.3,59.8,14.2,59.9,14.2L59.9,14.2z M46.5,27.7
		c-0.3,0.1-0.8,0.5-0.8,1.3c0,0.9,0.9,2.2,2.5,2.2c1.3,0,1.6-0.9,1.6-1.5c0-1.4-0.8-2.3-1.9-2.3c-0.6,0-1.1,0.4-1.1,1.1
		c0,0.6,0.4,1.5,1.5,1.5c0.5,0,0.8-0.4,0.8-0.8s-0.4-1-0.9-1c-0.2,0-0.3,0.1-0.3,0.3c0,0.2,0.3,0.4,0.7,0.4c0.1,0,0.2,0,0.2,0V29
		c0,0.2-0.2,0.3-0.5,0.3c-0.5,0-0.9-0.3-0.9-0.9c0-0.3,0.3-0.6,0.7-0.6c0.8,0,1.3,0.7,1.3,1.4c0,0.6-0.3,1-1.1,1
		C46.9,30.3,46.2,29,46.5,27.7L46.5,27.7z M45.6,18c-0.2,0.1-0.6,0.3-0.6,0.8c0,0.3,0.3,0.5,0.6,0.5c0.2,0,0.3,0,0.3-0.1
		c-0.3-0.2-0.3-0.5-0.3-0.8C45.5,18.2,45.5,18.1,45.6,18L45.6,18z M43.4,18.1v0.1c0,0.4,0.2,0.7,0.5,0.7c0.2,0,0.5-0.1,0.7-0.4
		c-0.1,0-0.2,0-0.3,0C44,18.5,43.6,18.4,43.4,18.1L43.4,18.1z M43.1,18.9c0,0.7,0.2,1,0.6,1c0.3,0,0.7-0.2,1.1-0.6
		c-0.3,0.1-0.6,0.1-0.9,0.1C43.6,19.4,43.3,19.3,43.1,18.9L43.1,18.9z M56.7,33c0.4,0,0.4,0,0.5,0s0.1,0.1,0.1,0.1
		c0,0.2-0.4,0.4-1.2,0.4c-0.5,0-0.7-0.2-0.8-0.5c-0.4,0.3-1.1,0.5-1.8,0.5c-1.8,0-2.3-0.8-2.9-1.1c-0.4-0.2-1.1,0.2-2.1-0.9
		c0.1,0,0.3,0,0.4,0c0.8,0,1.3-0.4,1.3-1c0-0.1,0-0.2,0-0.3c0.3,0.1,0.8,0.5,1,1.3c0,0.1,0.4,0.2,0.6,0.2c0.3,0,0.7-0.1,0.8-0.7
		c1.1-0.1,1.8-0.7,2-1.5c0.4,0.1,0.8,0.5,0.9,0.7c0.2-0.1,0.3-0.1,0.5-0.1c0.3,0,0.6,0.1,1,0.2c0-0.1,0-0.3,0.2-0.3
		c0.3,0,0.2,0.3,0.3,0.5c0,0.1,0.3,0.1,0.3,0.3c0,0.2-0.1,0.2-0.2,0.2h-0.1c-0.2,0.1-0.2,1.4-0.9,1.4c-0.6,0-1.1-0.5-1.3-1
		c-0.1-0.2-0.2-0.3-0.3-0.3s-0.2,0-0.4,0.2c-0.5,0.5-1.3,1-2.3,1c-0.3,0-0.5,0-0.6,0l0,0c0,0.1,0.3,0.3,1,0.3c1.6,0,2-0.9,2.2-0.9
		c0,0,0.1,0,0.2,0.1C55.4,32.8,56.2,33,56.7,33L56.7,33L56.7,33z M51.6,14.9c0.6,0,0.9,0.5,0.9,1.1c0,0.3-0.1,0.6-0.2,0.6
		c-0.1,0-0.1-0.2-0.1-0.4c0-0.2-0.1-0.3-0.1-0.3c-0.2,0-0.3,0.4-0.3,0.7c0,0.2,0,0.4,0.2,0.4c0.1,0,0.2,0,0.2-0.1
		c0,0.4-0.3,0.8-0.8,0.8c-0.8,0-1.1-0.9-1.2-1.5c-0.5,0.5-0.9,0.9-1.7,0.9c-0.7,0-1.1-0.5-1.1-1c0-0.2,0.1-0.5,0.2-0.5
		c0.2,0,0,0.7,0.5,0.7c0.1,0,0.3-0.1,0.4-0.4c0.1-0.2,0.1-0.4,0.1-0.5c0-0.2-0.1-0.4-0.2-0.4c-0.2,0-0.3,0.1-0.4,0.2
		c0.2-0.6,0.7-1,1.3-1c0.7,0,1.1,0.6,1.1,1.3c0,0.1,0,0.2,0,0.3C50.7,15.3,51.2,14.9,51.6,14.9L51.6,14.9z M49.4,9.6
		c0-0.1-0.3-0.1-0.6-0.1c-0.6,0-0.5,0.5-0.9,0.5c-0.5,0-0.3-0.5-0.9-0.5c-0.4,0-0.7,0.1-0.7,0.1c0,0.1,0.4,0.1,0.4,0.4
		c0,0.3-0.9,0.4-0.9,0.6c0,0.1,0.1,0.1,0.2,0.1c0.2,0,0.5-0.1,0.7-0.1c0.1,0,0.2,0,0.2,0.1c0,0.2-0.5,0.6-0.5,0.8
		c0,0.1,0,0.1,0.1,0.1c0.2,0,0.5-0.5,0.8-0.5c0.5,0,0.2,1,0.4,1c0.3,0,0.2-1,0.5-1s0.5,0.7,0.8,0.7c0.1,0,0.1,0,0.1-0.1
		c0-0.2-0.3-0.6-0.3-0.8s0.1-0.2,0.3-0.2s0.5,0.1,0.6,0.1s0.1,0,0.1-0.1c0-0.2-0.8-0.4-0.8-0.7C48.9,9.7,49.4,9.7,49.4,9.6L49.4,9.6
		z M62.1,27.2c-0.2,0-1.2,1.4-1.9,1.4c-0.2,0-0.3-0.3-0.3-0.5c0-0.1,0.1-0.2,0.4-0.3c1.5-0.3,1.2-1.5,2.5-1.5c0.7,0,1.5,0.5,1.5,1.6
		c0,1.2-1.7,2.7-1.9,2.7S62,30.3,62,30.1c0-0.1,0-0.1,0.2-0.2c0.9-0.3,1.4-1.1,1.4-1.5c0-0.1,0-0.2-0.2-0.2s-0.8,1.5-1.5,1.5
		c-0.5,0-1-0.5-1-0.7c0-0.4,1.5-1,1.5-1.5C62.3,27.3,62.2,27.2,62.1,27.2L62.1,27.2z M63.1,26.7c-0.1,0-0.3,0.1-0.3,0.3
		c0,0.3,0.2,0.4,0.3,0.5c0.1,0,0.2,0.1,0.3,0.1c0.3,0,0.5-0.1,0.5-0.3C63.9,27,63.5,26.7,63.1,26.7L63.1,26.7z M51.5,10.5
		c0,0.2,0.6,0.5,0.8,0.5s0.2-0.2,0.2-0.4c0-0.3-0.1-0.3-0.3-0.3C51.9,10.3,51.5,10.4,51.5,10.5L51.5,10.5z M52.4,12.3
		c0-0.5-1.5-1.5-1.5-1.9l0,0c0.1-0.3,1.3-0.5,1.3-0.7c0-0.1-0.2-0.1-0.3-0.1c-0.8,0-2.1,0.3-2.1,0.6s1.1,1,1.1,1.4
		c0,0.1-0.1,0.1-0.2,0.1c-0.3,0-1-0.4-1.3-0.4c-0.1,0-0.2,0.1-0.2,0.2c0,0.4,0.5,1.2,0.5,1.5v0.1c-0.2,0-0.9-0.9-1.2-0.9
		c-0.1,0-0.1,0.1-0.1,0.3v0.3c0,0.2,0,0.3-0.1,0.3c-0.2,0-0.3-0.7-0.6-0.7c-0.2,0-0.3,1.2-0.5,1.2c-0.3,0,0-1.3-0.3-1.3
		s-0.6,0.9-0.8,0.9c-0.1,0-0.1-0.1-0.1-0.1c0-0.3,0.2-0.7,0.2-0.9c0-0.1,0-0.2-0.1-0.2c-0.3,0-0.9,0.4-1.1,0.4c0,0-0.1,0-0.1-0.1
		c0-0.2,1-0.9,1-1.2s-1.3-0.1-1.3-0.4c0-0.3,1-0.6,1-0.9c0-0.3-1.1-0.4-1.6-0.4s-0.8,0.1-0.8,0.2c0,0.2,1.2,0.3,1.2,0.5
		s-1.2,0.7-1.2,1s1.8,0,1.8,0.3s-1.5,1.6-1.5,2.1c0,0.1,0.1,0.1,0.2,0.1c0.5,0,1.7-0.9,2-0.9c0.1,0,0.1,0.1,0.1,0.3
		s-0.1,0.6-0.1,0.9c0,0.2,0.1,0.3,0.2,0.3c0.3,0,0.6-0.6,0.9-0.6c0.3,0,0.1,1.7,0.5,1.7s0.5-1.8,0.8-1.8c0.2,0,0.4,0.5,0.6,0.5
		c0.3,0,0.1-0.9,0.4-0.9c0.3,0,1.2,1.1,1.6,1.1c0.1,0,0.2-0.1,0.2-0.2c0-0.5-0.7-1.6-0.7-1.9c0-0.1,0-0.1,0.1-0.1
		c0.3,0,1.4,0.5,1.9,0.5C52.3,12.5,52.4,12.4,52.4,12.3L52.4,12.3z M64.6,22.6c0.1-0.4,0.3-0.8,0.6-1.2c-0.3-0.2-1.1-0.5-1.1-1
		c0-0.6,0.8-1.1,0.9-1.1c0.1,0,0.1,0.1,0.1,0.2c0,0.3-0.2,0.8-0.2,1.1c0,0.3,0.2,0.5,0.3,0.5c0.2,0,0.6-0.5,0.6-1.1
		c0-1-0.8-1.2-1.1-1.2c-0.2,0-0.7,0.4-1.7,0.4c-1.9,0-2.4-1.9-2.4-2.7l0,0c0,0,0.2,0.2,0.8,0.2c0.3,0,0.6-0.1,1.1-0.1
		c1.1,0,1.6,0.7,2.2,1.7c0.4,0.3,1.4,0.7,1.4,1.8c0,1-1.1,1.6-1.3,2.6c0.4,0,0.7-0.8,1.1-0.8c0.2,0,0.3,0.2,0.3,0.4
		c0,0.4-0.2,1-0.7,1.4v-0.1c0-0.3-0.1-0.6-0.4-0.6c-0.4,0-0.6,0.5-0.8,0.9c-0.3-0.9-0.6-1.7-1.2-2.2c-0.6-0.5-1.7-0.2-1.7-1.2
		c0-0.3,0.2-0.6,0.2-0.9c0-0.1,0-0.2-0.1-0.3c0.9,0.3,0.6,0.9,1.1,1.5c0.3,0.4,1.2,0.7,1.8,2.3v-0.2c0-1.3-1.8-2.6-1.9-3.2
		c1,0.1,1.2,0.4,1.7,1.7C64.3,21.6,64.6,22.3,64.6,22.6L64.6,22.6z M45.4,15.3c0-0.1,0.1-0.3,0.1-0.5c0-0.4-0.2-1.1-0.8-1.1
		c-0.3,0-0.6,0.3-0.6,0.6C44.1,15,44.8,15.3,45.4,15.3L45.4,15.3z M44.6,17.6c-0.3,0-0.6-0.4-0.6-0.7c0-0.2,0.1-0.4,0.2-0.4
		c0,0,0.1,0,0.1,0.1c0.1,0.4,0.3,0.7,0.6,0.8l0,0C45,17.5,44.8,17.6,44.6,17.6L44.6,17.6z M45.7,16.7c0,0.1-0.1,0.3-0.2,0.3
		c-0.3,0-0.6-0.5-0.6-0.7s0.1-0.2,0.2-0.2c0.1,0,0.1,0,0.1,0c0.1,0,0.1,0.2,0.2,0.4C45.5,16.5,45.7,16.6,45.7,16.7L45.7,16.7z
		 M45.4,15.8c-0.1,0-0.1,0-0.2,0c-0.3,0-0.7,0.1-1,0.3c-0.8,0.5-0.7,1.3-0.8,1.5v0.1c0,0.1,0.1,0.2,0.2,0.2c0.1,0,0.1,0,0.2,0
		c0.2,0,0.5,0.2,0.8,0.2c0.2,0,0.4-0.1,0.8-0.2c0.6-0.3,0.9-1.1,0.9-1.3c0-0.2-0.1-0.1-0.3-0.3c-0.1-0.2-0.1-0.3-0.1-0.4
		C45.6,15.8,45.5,15.8,45.4,15.8L45.4,15.8z M46.3,17.2c-0.2,0.2-0.4,0.6-0.4,1c0,0.5,0.3,0.9,0.8,0.9c0.4,0,0.6-0.4,0.6-0.8
		C47.3,17.8,46.8,17.3,46.3,17.2L46.3,17.2z M44.4,15.5c0,0-0.3,0.2-0.6,0.2c-0.4,0-0.7-0.3-0.7-0.7c0-0.3,0.1-0.6,0.5-0.7
		c0,0.1,0,0.1,0,0.2C43.6,15,43.9,15.3,44.4,15.5L44.4,15.5z M60.3,20.7c0-0.2,0.2-0.3,0.3-0.3c0.2,0,0.3,0.2,0.3,0.3
		c0,0.2-0.2,0.3-0.3,0.3C60.5,21.1,60.3,20.9,60.3,20.7L60.3,20.7z M60.6,31c0,0,0.1,0,0.1,0.2s-0.1,0.5-0.4,0.7
		c-0.2,0.2-0.5,0.3-1,0.3c0.1-0.2,0.1-0.4,0.1-0.7c0-0.1,0-0.1,0-0.2h0.1C60.2,31.3,60.5,31,60.6,31L60.6,31z M60.7,30.1
		c0.1-0.1,0.1-0.2,0.1-0.3v-0.2c0-0.3-0.4-0.4-0.9-0.4c-0.7,0-1,0.3-1,0.4V30c0,0.2,0.4,0.3,0.9,0.3C60.1,30.4,60.4,30.3,60.7,30.1
		L60.7,30.1z M61.1,30.2c-0.2,0.2-0.8,0.6-1.7,0.6c-0.5,0-0.7-0.2-0.8-0.2s-0.2,0.1-0.3,0.2c-0.2,0.3-0.5,0.7-0.5,1.2
		c0,0.4,0.3,0.7,0.8,0.7c1.7,0,2.9-1,2.9-1.9C61.6,30.4,61.3,30.2,61.1,30.2L61.1,30.2z M61.4,22.7c0,0.2,0.1,0.5,0.3,0.5
		s0.4-0.3,0.4-0.6c0-0.4-0.1-0.6-0.1-0.8c0-0.1,0-0.1,0.1-0.1s0.3,0.4,0.4,0.4c0.2,0,0.4-0.3,0.5-0.3l0,0c0,0.1-0.2,0.4-0.2,0.5
		s0.5,0.1,0.5,0.2s-0.5,0.1-0.8,0.3c-0.3,0.1-0.4,0.2-0.4,0.4s0.2,0.2,0.4,0.2c0.6,0,1-0.3,1.2-0.3l0,0c0,0.1-0.3,0.4-0.3,0.5
		c0,0.2,0.6,0.3,0.5,0.4c0,0,0,0-0.1,0s-0.3,0-0.4,0c-0.1,0-0.1,0-0.2,0c-0.1,0.1,0,0.5-0.1,0.5s-0.4-1.1-1.1-1.1
		c-0.1,0-0.2,0.1-0.2,0.2c0,0.4,0.3,0.8,0.7,1c0.2,0.1,0.4,0.2,0.4,0.3c0,0.1-0.6,0-0.6,0.2s0.1,0.4,0.1,0.5c0,0,0,0.1-0.1,0.1
		s-0.4-0.5-0.5-0.5s-0.3,0.3-0.4,0.3c0,0,0,0,0-0.1c0-0.2,0.3-0.7,0.3-1.1c0-0.2,0-0.7-0.3-0.7c-0.2,0-0.5,0.3-0.6,0.7
		c-0.1,0.2,0,1-0.2,1c-0.1,0-0.1-0.5-0.3-0.5c-0.1,0-0.4,0.2-0.5,0.2l0,0c0-0.1,0.3-0.5,0.3-0.5c0-0.1-0.6-0.2-0.6-0.3
		c0-0.1,0.2-0.1,0.4-0.1c0.5-0.1,1.1-0.4,1.1-0.9s-0.5-0.7-0.8-1c-0.2-0.1-0.4-0.2-0.4-0.3s0.2-0.1,0.3-0.1s0.3,0,0.3-0.1
		s0-0.2,0-0.4c0-0.1,0-0.2,0-0.2c0.1,0,0.3,0.4,0.4,0.4c0.1,0,0.3-0.4,0.5-0.4c0,0,0.1,0,0.1,0.1C61.6,22,61.4,22.4,61.4,22.7
		L61.4,22.7z M57.2,20.1c0.1,0.8,1.1,0.4,1.1,1.3c0,0.1,0,0.3,0,0.5s0,0.4,0.2,0.4s0.2-0.1,0.2-0.3c0-0.1,0-0.3,0-0.4
		c0-0.3,0.2-0.4,0.4-0.4c0.3,0,0.6,0.3,1.1,0.3c-0.1,0.6-1.3,0.4-1.3,1c0,0.3,0.3,0.4,0.5,0.4s0.3,0,0.3-0.2c0-0.1,0-0.2,0-0.3
		c0,0,0-0.1,0.1-0.1c0.2,0,1.2,0.7,1.2,1c0,0.2-1,0.4-1.3,0.4c-0.1,0-0.1-0.1-0.1-0.1c0-0.1,0.2-0.3,0.2-0.4s-0.1-0.1-0.5-0.1
		c-0.2,0-0.3,0-0.3,0.2s0.4,0.5,0.4,0.8c0,0.2-0.1,0.3-0.4,0.3c-0.2,0-0.6-0.2-0.6-0.5s0.3-0.5,0.3-0.7c0,0,0-0.1-0.1-0.1
		c-0.3,0-0.4,0.9-1.6,1c0.2-0.2,0.4-0.4,0.4-0.7c0-0.2,0-0.3,0-0.5c0-0.3,0.1-0.4,0.3-0.4c0.3,0,0.5,0.5,0.7,0.5
		c0.1,0,0.2-0.1,0.2-0.3c0-0.7-1.3-0.6-1.3-1.5C56.8,20.8,56.9,20.5,57.2,20.1L57.2,20.1z M58.9,25.9c0,0.1,0.1,0.2,0.2,0.2
		c0.1,0,0.2-0.1,0.2-0.3c0-0.2-0.2-0.4-0.3-0.4s0,0.1-0.1,0.2C58.9,25.7,58.9,25.8,58.9,25.9L58.9,25.9z M58.4,24.7
		c0.9,0.2,1.5,0.9,1.5,1.6c0,0.5-0.3,0.9-0.8,0.9s-0.8-0.3-0.8-0.8c0-0.4,0.3-0.8,0.3-1.2C58.6,25,58.5,24.8,58.4,24.7L58.4,24.7z
		 M57.2,26.2c0.1,0.1,0.1,0.2,0.1,0.3c0,0.1-0.1,0.3-0.1,0.4c0,0.2,0.2,0.4,0.4,0.4c0.3,0,0.4-0.2,0.4-0.4
		C58.1,26.6,57.7,26.2,57.2,26.2L57.2,26.2z M60.2,25.6c0.1,0.1,0.1,0.2,0.1,0.3c0,0.3-0.2,0.5-0.2,0.7c0,0.3,0.2,0.5,0.6,0.5
		c0.4,0,0.6-0.3,0.6-0.6C61.3,26.1,60.8,25.7,60.2,25.6L60.2,25.6z M57.4,25.2c0.4,0.1,0.5,0.2,0.5,0.3c0,0.2-0.2,0.3-0.3,0.3
		s-0.3,0-0.4,0c-0.2,0-0.4,0-0.6,0.2c0.1,0,0.3,0.1,0.3,0.3c0,0.5-1.4,0.1-1.4,1.4c0,0.7,0.7,1.5,1.8,1.5c0.6,0,0.9-0.2,0.9-0.4
		c0-0.2-0.3-0.1-0.3-0.2s0.1-0.2,0.1-0.3c0,0,0-0.1-0.1-0.1c-0.2,0-0.5,0.3-1.1,0.3c-0.5,0-1-0.3-1-0.7c0-0.1,0-0.1,0.1-0.1
		s0.1,0,0.2,0c0.1,0,0.1,0,0.1-0.1s0-0.4,0.2-0.4s0.5,0.6,1.7,0.6c0.4,0,1.2-0.1,1.5-0.3c0,1-0.8,2.3-2.4,2.3
		c-1.7,0-2.6-1.3-2.6-2.6c0-1.4,1.1-2.6,2.7-2.6c0.4,0,0.7,0.1,0.7,0.3C58,25,57.5,24.9,57.4,25.2L57.4,25.2z M50.9,16
		c0-0.2,0-0.2-0.1-0.2s-0.2,0.1-0.3,0.3c0,0.3,0.1,0.5,0.2,0.5C50.8,16.6,50.9,16.3,50.9,16L50.9,16z M49.7,16.4
		c0.1,0,0.2-0.1,0.5-0.4c0-0.1,0-0.2,0-0.4s-0.1-0.4-0.2-0.4c-0.3,0-0.4,0.7-0.4,0.9S49.6,16.4,49.7,16.4L49.7,16.4z M51.2,17.2
		c0.2,0,0.5-0.9,0.5-1.4c0-0.1,0-0.2-0.1-0.2c-0.2,0-0.5,0.9-0.5,1.4C51.1,17.1,51.1,17.2,51.2,17.2L51.2,17.2z M49,16.7
		c0.3,0,0.7-1.6,0.7-1.9c0-0.1,0-0.1-0.1-0.1c-0.3,0-0.7,1.6-0.7,1.9C48.9,16.6,48.9,16.7,49,16.7L49,16.7z M49.9,17.3
		c-0.4,0-0.4,0.5-0.4,1.4c-0.3-0.6-0.8-1.3-1.3-1.3c-0.4,0-0.5,0.3-0.5,0.7c0,0.1,0,0.2,0,0.3c0-0.2,0.2-0.2,0.4-0.2
		c0.4,0,0.9,0.3,1.2,0.7c-0.3-0.1-0.7-0.1-1-0.1c-0.2,0-0.3,0-0.5,0.1c-0.3,0.1-0.6,0.5-0.6,1.1c0,0.1,0,0.2,0,0.3
		c0.3-0.7,1.1-1,1.7-1c0.1,0,0.2,0,0.3,0c-0.3,0.3-0.3,0.7-0.4,1c0,0.1-0.1,0.2-0.2,0.2c0,0.3,0.2,0.7,0.2,1c0,0.1,0,0.2-0.1,0.2
		c0,0.4,0.4,0.7,0.4,0.9c0,0.1,0,0.1,0,0.1c0,0.2,0.5,0.4,0.5,0.6c0.1,0.2,0.2,0.2,0.2,0.2c0.2,0,0.4-0.2,0.4-0.3
		c0-0.1,0-0.1-0.1-0.1c-0.2-0.1-0.3-0.4-0.3-0.6c-0.1,0-0.1,0-0.2-0.1c0-0.1-0.1-0.5-0.1-0.7c-0.1,0-0.2-0.1-0.2-0.3
		c0-0.1,0.1-0.6,0.1-0.7c-0.1,0-0.1,0-0.1-0.1c0-0.3,0.3-0.5,0.4-0.9c0.5,0.4,0.6,0.8,0.6,1.1c0,0.2,0,0.3-0.1,0.5
		c0.4-0.2,0.9-0.5,0.9-1c0-0.3-0.2-0.7-1.2-0.8c0.3-0.1,0.7-0.2,1-0.2c0.6,0,0.9,0.2,1,0.6c0.1-0.2,0.2-0.4,0.2-0.6
		c0-0.4-0.4-0.7-0.8-0.7c-0.5,0-1,0.3-1.6,0.6c0.2-0.5,0.4-0.8,0.7-0.8h0.1C50.6,17.7,50.2,17.3,49.9,17.3L49.9,17.3z M44.2,11.8
		c0,0.2-0.7,0.8-0.9,0.8c-0.1,0-0.1-0.1-0.1-0.2c0-0.2,0.1-0.4,0.2-0.5c0.1-0.1,0.4-0.2,0.6-0.2C44.1,11.7,44.2,11.7,44.2,11.8
		L44.2,11.8z M65,23.8c0.4,0,0.8,0.6,0.8,1.3c0,0.7-0.3,1.5-0.9,2.1c0-1.2-1.5-0.8-1.5-1.7c0-0.4,0.3-0.6,0.6-0.6s0.5,0.1,0.7,0.2
		c-0.2-0.2-0.2-0.4-0.2-0.6C64.4,24.1,64.7,23.8,65,23.8L65,23.8z M58.4,14.6c-0.1-0.1-0.3-0.2-0.5-0.2c-0.4,0-0.7,0.3-0.7,0.5
		c0-0.1-0.1-0.2-0.1-0.3c0-0.4,0.3-0.9,0.9-0.9c0.6,0,0.8,0.3,0.9,0.3c0.1,0,0.2-0.1,0.3-0.1s0.1,0.2,0.1,0.3c0,0.4-0.2,1-0.6,1.2
		c-0.1-0.2-0.2-0.3-0.4-0.4c-0.1,0-0.1-0.1-0.1-0.1C58.2,14.8,58.3,14.7,58.4,14.6L58.4,14.6z M57,15.3c0.2,0.2,0.4,0.3,0.7,0.3
		c0.1,0,0.2,0,0.3,0s0.1,0,0.1,0.1S58,16,57.9,16c0.1,0,0.2,0.1,0.3,0.1c0.5,0,1.1-0.3,1.1-1.1c0.1,0.1,0.2,0.4,0.2,0.6
		c0,1-0.7,1.4-1.4,1.4c-0.4,0-0.6-0.1-0.7-0.1c-0.2,0-0.2,0.3-0.3,0.3c-0.2,0-0.4-0.5-0.4-1C56.8,15.8,56.9,15.5,57,15.3L57,15.3z
		 M50.8,12.7c0,0.3,1.1,1.8,1.3,1.8s0.3-0.3,0.3-0.6c0-0.1,0-0.1-0.1-0.2C52.2,13.5,51.1,12.6,50.8,12.7
		C50.8,12.6,50.8,12.7,50.8,12.7L50.8,12.7z M63.7,11.9c0-0.6-1.5-0.8-1.5-0.9c0-0.1,0.9-0.3,1.3-0.3c-0.7-0.9-1.6-0.8-1.6-0.9
		c0-0.1,0.7-0.3,1.4-0.3c0.6,0,1.1,0.1,1.1,0.5c0,0.2-0.2,0.5-0.2,0.8c0,0.2,0.1,0.4,0.4,0.4c0.3,0,0.3-0.3,0.3-0.6s0-0.5,0-0.6
		c0-0.4,0.3-0.6,0.6-0.6s0.4,0.1,0.8,0.1C66.1,9.6,66,9.9,66,10c0,0.4,0.2,0.6,0.2,1.4c0,1.4-1.3,1.9-2.9,1.9c-0.4,0-0.9,0-1.4-0.1
		c-0.1,0-0.1,0-0.1-0.1s0.6-0.2,0.6-0.8c0-0.2-0.1-0.4-0.1-0.5c0,0,0-0.1,0.1-0.1s0.4,0.5,0.9,0.5C63.4,12.4,63.7,12.4,63.7,11.9
		L63.7,11.9z M65.3,11c0,0.8-0.6,1.4-1.6,1.6c0.1,0,0.2,0,0.3,0c1.2,0,1.7-0.6,1.7-1C65.6,11.3,65.5,11.1,65.3,11L65.3,11z
		 M64.4,18.3c0-0.2-0.5-0.2-0.5-0.7c0-0.1,0-0.2-0.1-0.2c-0.2,0,0,0.5-0.2,0.5c-0.4,0-0.5-0.8-0.7-0.8c0,0-0.1,0-0.1,0.1
		s0,0.2,0,0.3c0,0.1,0,0.2-0.1,0.2c-0.2,0-0.5-0.6-0.7-0.6c0,0-0.1,0-0.1,0.1s0.2,0.3,0.2,0.4c0,0.2-0.6,0.1-0.6,0.3
		c0,0.1,0.1,0.1,0.2,0.1c0.2,0,0.5-0.1,0.6-0.1s0.2,0,0.2,0.1s-0.3,0.3-0.3,0.4s0.1,0.1,0.1,0.1c0.2,0,0.7-0.4,1-0.4
		c0.1,0,0.2,0,0.2,0.1s-0.3,0.3-0.3,0.5c0,0,0,0.1,0.1,0.1c0.2,0,0.4-0.4,0.7-0.4C64.1,18.3,64.2,18.3,64.4,18.3L64.4,18.3
		L64.4,18.3z M58,11.4c0-0.1-0.3-0.3-0.3-0.4l0,0c0.1,0,0.3,0,0.4,0c0.1,0,0.1-0.5,0.2-0.5c0.1,0,0.2,0.5,0.3,0.5s0.3-0.1,0.4-0.1
		l0,0c0,0.1-0.2,0.3-0.2,0.4c0,0.1,0.5,0.2,0.5,0.3s-0.5,0.1-0.5,0.2c0,0.1,0.2,0.3,0.2,0.4l0,0c-0.1,0-0.3-0.1-0.4-0.1
		c-0.1,0-0.3,0.4-0.3,0.4s0,0,0-0.1V12c0,0,0-0.1-0.1-0.1s-0.3,0-0.4,0h-0.1C57.6,11.7,58,11.5,58,11.4L58,11.4z M59.7,13.1
		c-0.6,0-1-0.3-1-0.5c0-0.1,0.1-0.1,0.1-0.1c0.2,0,0.6,0.3,0.8,0.3c0,0,0.1,0,0.1-0.1c0-0.2-0.2-0.4-0.2-0.6c0,0,0-0.1,0.1-0.1
		c0.2,0,0.6,0.1,0.8,0.1c0.1,0,0.1,0,0.1-0.1c0-0.2-0.6-0.6-0.6-0.7c0-0.1,0.7-0.3,0.7-0.4c0-0.2-1-0.1-1-0.2c0-0.1,0.2-0.3,0.2-0.4
		c0,0,0-0.1-0.1-0.1s-0.5,0.2-0.7,0.2c-0.1,0-0.2,0-0.2-0.1c0-0.2,0.3-0.4,0.9-0.4c0.9,0,1.4,0.6,1.4,1.6
		C61.1,12.8,60.2,13.1,59.7,13.1L59.7,13.1z M53.7,28.6c0,0.1,0,0.2-0.1,0.3c-0.1-0.2-0.4-0.3-0.5-0.3c-0.9,0-0.6,1.3-1.6,1.3
		c-0.4,0-0.4-0.1-0.6-0.1c-0.1,0-0.1,0-0.1,0.1c0,0.2,0.3,0.8,1.3,0.8c0.9,0,1.8-0.6,1.8-1.3c0-0.1,0-0.2-0.1-0.4
		c0-0.1,0.1-0.1,0.2-0.1c0.1,0,0.2,0.2,0.4,0.2c0.1,0,0.3-0.1,0.3-0.3c0-0.1-0.1-0.2-0.2-0.3c0.1-0.1,0.1-0.1,0.1-0.2
		c0-0.2-0.1-0.3-0.3-0.3c-0.1,0-0.1,0-0.2,0.1c0-0.2-0.1-0.3-0.3-0.3c-0.1,0-0.2,0.1-0.2,0.3C53.6,28.4,53.7,28.5,53.7,28.6
		L53.7,28.6z M51.3,29c-0.3,0-0.7-0.3-0.7-0.4s0.1-0.2,0.2-0.2c0.2,0,0.6,0.3,0.6,0.5C51.4,28.9,51.4,29,51.3,29L51.3,29z M48.8,27
		c0.7,0.2,1.1,0.6,1.1,1c0.1,0.4,0.2,0.8,0.3,1c0.2,0.3,0.7,0.5,1,0.5s0.6-0.1,0.6-0.4s-0.4-1-1.1-1c-0.1,0-0.1,0-0.2,0
		c-0.1,0-0.2,0-0.3-0.1s-0.2-0.8-0.5-1.2c-0.3-0.4-0.6-0.6-1.1-0.6c-0.3,0-0.7,0.2-0.7,0.4C48.1,26.7,48.2,26.8,48.8,27L48.8,27z
		 M53.3,25.9c0-0.4-0.8-0.4-0.8-1c0-0.2,0.1-0.4,0.3-0.7c0.1,0.5,0.3,0.7,0.7,0.9c0.8,0.3,0.9,0.7,0.9,1.2c0,0.8-0.6,1.8-2,1.8
		c-1.2,0-2-1-2-1.9c0-0.2,0.1-0.5,0.2-0.5c0.1,0,0.2,0.1,0.3,0.2c0.4,0.4,0.8,0.5,1.5,0.5C52.8,26.3,53.3,26.1,53.3,25.9L53.3,25.9z
		 M53.3,26.5c-0.3,0.1-0.4,0.1-0.4,0.4c0,0.1,0,0.3,0,0.3c0,0.1,0,0.2,0.1,0.2c0.3,0,0.8-0.5,0.8-1c0-0.1-0.1-0.2-0.2-0.2
		C53.6,26.3,53.5,26.4,53.3,26.5L53.3,26.5z M50.4,22c0-0.6,1.4-0.9,1.4-1.6c0-0.1,0-0.3-0.1-0.5c0.5,0.3,0.8,0.7,0.8,1.1
		c0,0.6-0.6,0.9-0.6,1.3s0.7,0.5,0.7,1.1c0,0.5-0.7,1-0.7,1.6c0,0.5,0.3,0.8,0.8,0.9c-0.2,0-0.3,0.1-0.5,0.1c-0.9,0-1.8-0.7-1.8-1.6
		c0-0.4,0.2-0.8,0.5-1.1c0.3,0.2,0.5,0.4,0.7,0.4c0.1,0,0.2-0.1,0.2-0.2C51.8,23,50.4,22.7,50.4,22L50.4,22z"/>
	<path fill="#FDFDFF" d="M52.3,41.2c0.3,0,0.7-0.1,1-0.6c-0.2-0.4-0.3-1.3-0.4-1.6c-0.1-1.6,0.5-3.2,1.2-3.2c0.5,0,0.9,0.4,1,1.2
		c0.1,2-0.6,2.9-0.9,3.6c0.1,0.3,0.5,0.8,1,0.8c0.2,0,0.4-0.1,0.4-0.2c0-0.1-0.1-0.3-0.1-0.5c0-1.2,0.8-2.2,1.4-2.2
		c0.5,0,0.8,0.7,0.8,1.2s-0.5,1-1.1,1.4c0.1,0.1,0.3,0.2,0.5,0.2c1,0,1.5-1.2,1.8-2.2c0.1-0.2,0.2-0.5,0.4-0.5
		c0.4,0,0.6,2.7,1.3,2.7c0.3,0,0.5-0.6,0.5-1c0-0.3-0.1-0.4-0.1-0.9s0.3-1,0.7-1c0.2,0,0.3,0.2,0.3,0.5c0,1.1-0.8,3.1-1.9,3.1
		c-0.9,0-0.8-1.5-1.1-1.5S58.2,42,56.5,42c-0.3,0-0.6-0.1-0.8-0.4C55.3,41.9,55,42,54.6,42c-0.6,0-0.9-0.6-1.1-0.6
		c-0.3,0-0.6,0.7-1.7,0.7c-0.8,0-0.9-1.1-1.2-1.1s-0.6,1.1-1.1,1.1c-0.7,0-0.9-1.9-1.5-1.9c-0.5,0-2,1.9-2.5,1.9
		c-0.2,0-0.2-0.1-0.2-0.3s0.2-0.9,0.3-1.2c0.1-0.5,0.3-1.1,0.3-1.3c0.1-0.2,0.3-0.3,0.4-0.3c0.1,0,0.1,0.1,0.1,0.3
		c0.1,0.4,0.2,0.8,0.3,0.8c0.2,0,1-1.5,1.5-1.5c0.6,0,0.6,2.4,1.4,2.4c0.3,0,0.4-0.3,0.6-0.7c0-0.6,0.2-1.5,0.7-1.5
		c0.4,0,0.5,0.8,0.3,1.5C51.4,41,51.9,41.2,52.3,41.2L52.3,41.2z M64.9,39.6c0-0.4-0.4-1-1-1c-0.8,0-1.5,0.8-1.5,2
		c0,1,0.6,1.4,1.3,1.4c1.1,0,1.8-0.9,2.1-1.7c0.2,0.5,0.3,1.7,0.7,1.7c0.2,0,0.3-0.1,0.5-0.5c0.5-1.1,1-2.4,1.7-2.4
		c0.3,0,0.1,0.5,0.7,0.5c0.3,0,0.5-0.2,0.5-0.5c0-0.4-0.4-0.7-0.9-0.7c-1.6,0-1.9,2.4-2.2,2.4c-0.4,0-0.3-1.9-0.6-1.9
		c-0.3,0-0.4,0.3-0.4,0.5C65.6,40,65,41.3,64,41.3c-0.2,0-0.6-0.1-0.6-0.3C63.4,40.7,64.9,40.7,64.9,39.6L64.9,39.6z M54.6,37.4
		c0-0.5-0.1-0.7-0.4-0.7c-0.3,0-0.5,1.1-0.4,2.2c0,0.7,0.2,0.8,0.3,0.8C54.2,39.7,54.7,38.4,54.6,37.4L54.6,37.4z M51.8,36.4
		c0-0.3-0.2-0.5-0.5-0.5s-0.6,0.3-0.6,0.8c0,0.3,0.2,0.5,0.5,0.5C51.6,37.2,51.9,36.7,51.8,36.4L51.8,36.4z M57.1,39.8
		c0-0.3-0.2-0.5-0.3-0.5c-0.2,0-0.5,0.2-0.5,0.7c0,0.4,0.2,0.6,0.2,0.7C57,40.5,57.1,40.1,57.1,39.8L57.1,39.8z M63.7,39.2
		c0.4,0,0.5,0.4,0.4,0.7c-0.1,0.3-0.4,0.5-0.9,0.6C63.1,40.3,63.1,39.2,63.7,39.2L63.7,39.2z M40.5,39.5c0-0.7,0-1.4,0.3-2.4
		c0.2-0.5,0.3-0.7,0.8-0.8c0.4-0.1,0.3,0.3,0.3,0.8c-0.2,1-0.3,1.5-0.2,2.7s0.6,1.7,1.2,1.7c0.9,0,1.3-0.7,1.5-1.8
		c0.1-0.9,0-1.3-0.1-1.6c-0.1-0.2-0.2-0.5-0.2-0.7c-0.1-0.6,0.2-0.9,0.5-1s0.4,0.1,0.5,0.4c0.2,0.5,0.2,1.2,0.1,2.3
		c-0.1,1.4-0.8,3.1-2.5,3C41.2,41.9,40.5,41,40.5,39.5L40.5,39.5z"/>
</g>
<rect y="0" fill="none" width="110" height="50"/>
</svg>
